<?xml version="1.0" encoding="utf-8"?>
<!-- Generator: Adobe Illustrator 27.4.0, SVG Export Plug-In . SVG Version: 6.00 Build 0)  -->
<svg version="1.1" id="Ebene_1" xmlns="http://www.w3.org/2000/svg" xmlns:xlink="http://www.w3.org/1999/xlink" x="0px" y="0px"
	 viewBox="0 0 2000 777.7" style="enable-background:new 0 0 2000 777.7;" xml:space="preserve">
<style type="text/css">
	.st0{clip-path:url(#SVGID_00000167368056612747584220000001762286133899384990_);fill:#FFFFFF;}
	.st1{clip-path:url(#SVGID_00000167368056612747584220000001762286133899384990_);fill:none;stroke:#FFFFFF;stroke-width:2.3186;}
</style>
<g>
	<defs>
		<rect id="SVGID_1_" x="47.5" y="59.2" width="1903.4" height="670.8"/>
	</defs>
	<clipPath id="SVGID_00000115508446481064762360000012033401678171950240_">
		<use xlink:href="#SVGID_1_"  style="overflow:visible;"/>
	</clipPath>
	<path style="clip-path:url(#SVGID_00000115508446481064762360000012033401678171950240_);fill:#FFFFFF;" d="M386.3,580.9
		c0.7-2.7,0.7-6.7,0-9.4c-0.7-2.7,1-4.7,3.7-4.7c2,0,3.9,1.9,4.4,4c0.8,3.4,0.8,7.4,0,10.8c-0.5,2.2-2.4,4-4.4,4
		C387.3,585.6,385.7,583.6,386.3,580.9 M377.6,596.7c0-2.7,2-4.7,4.7-4.7c2.7,0,4.7,2,4.7,4.7s-2,4.7-4.7,4.7
		C379.6,601.5,377.6,599.4,377.6,596.7 M350.6,604.7c0-2.7,2-4.4,4.7-3.7c2.7,0.7,6.7,0.7,9.4,0c2.7-0.7,4.7,1,4.7,3.7
		c0,2-1.9,3.9-4,4.4c-3.4,0.8-7.4,0.8-10.8,0C352.4,608.5,350.6,606.7,350.6,604.7 M332,507.6c0-2.5,2-4.4,4.7-4.4h17.5
		c2.7,0,4.7,1.9,4.7,4.4c0,2.5-2,4.4-4.7,4.4h-17.5C334,512,332,510.2,332,507.6 M324.7,576.1c0-2.7,2-4.7,4.7-4.7s4.7,2,4.7,4.7
		s-2,4.7-4.7,4.7S324.7,578.8,324.7,576.1 M370.3,543.1c-0.8,1.2-2.2,2-3.9,2c-2.7,0-4.7-2-4.7-4.7s2-4.7,4.7-4.7
		c0.7,0,1.3,0.2,1.9,0.3c1.5,0.5,2.9,0.3,3.9-0.5l22.9-20.8v-13.8h-68.2v13.5h46.9c1.3,0,2.4-0.8,2.4-2c0-2.7,2-4.7,4.7-4.7
		c2.7,0,4.7,2,4.7,4.7c0,2.7-2,4.7-4.7,4.7h-3.4c-1.7,0-3.4,0.5-4.7,1.7l-27.7,25l8.8,10.1c2-1,4.7-1.3,6.7-1.3
		c12.1,0,22.9,8.8,22.9,22.9c0,13-9.8,22.9-23.3,22.9c-13.8,0-23.6-9.8-23.6-23.6v-8.4h-14.5v9.4c0,21.4,15.9,36.8,37.8,36.8
		c22.1,0,38.5-15.5,38.5-36.8c0-16.2-9.6-29.4-23.6-33.9C372.8,541.4,371.3,541.7,370.3,543.1 M297.4,539.7c0.7-2.7,0.7-6.7,0-9.4
		s1-4.7,3.7-4.7c2,0,3.9,1.9,4.4,4c0.8,3.4,0.8,7.4,0,10.8c-0.5,2.2-2.4,4-4.4,4C298.4,544.4,296.7,542.4,297.4,539.7 M289.8,514
		c0-2.7,2-4.7,4.7-4.7s4.7,2,4.7,4.7c0,2.7-2,4.7-4.7,4.7S289.8,516.7,289.8,514 M277.8,562.5c0-2.7,2-4.7,4.7-4.7s4.7,2,4.7,4.7
		s-2,4.7-4.7,4.7S277.8,565.2,277.8,562.5 M277.3,603.5c0-2.5,2-4.4,4.7-4.4h17.5c2.7,0,4.7,1.9,4.7,4.4c0,2.5-2,4.4-4.7,4.4H282
		C279.3,607.9,277.3,606,277.3,603.5 M264.8,506.8c0-2,1.9-3.9,4-4.4c3.4-0.8,7.4-0.8,10.8,0c2.2,0.5,4,2.4,4,4.4
		c0,2.7-2,4.4-4.7,3.7c-2.7-0.7-6.7-0.7-9.4,0C266.9,511.2,264.8,509.5,264.8,506.8 M252.7,581.9c-1.2-1.7-0.7-4.2,0.7-5.9
		c2.4-2.7,5.6-5.1,8.8-6.4c2-0.8,4.7-0.5,5.9,1.2c1.5,2.2,0.8,4.7-1.7,5.7c-2.5,1-5.9,3.4-7.6,5.6
		C256.9,584.2,254.4,584.1,252.7,581.9 M241.9,530.2c0-2.7,2-4.7,4.7-4.7c2.7,0,4.7,2,4.7,4.7s-2,4.7-4.7,4.7
		C243.9,535,241.9,532.9,241.9,530.2 M259.6,596.4c-1,0-1.7,0.7-1.7,1.7c0,2.4-2.5,4.2-5.1,4.2c-2.7,0-4.7-2-4.7-4.7
		c0-2.7,2-4.7,4.7-4.7c1,0,1.9-0.7,2.2-1.7c3.4-9.1,14.2-13.7,27.3-21.1c10.8-6.1,26.7-14.2,26.7-36.4c0-20.9-14.5-34.8-34.8-34.8
		c-20.8,0-35.8,15.5-35.8,37.1c0,2.4,0.2,5.1,0.3,8.4l15.2-1.7c-0.5-2.7-0.7-4.9-0.7-6.7c0-13.3,8.9-23.3,21.3-23.3
		c12,0,20.6,9.3,20.6,22.3c0,14.8-11.5,19.6-17.2,22.6c-25,12.8-40.8,21.9-40.8,48.9v4h72.2v-14.2H259.6z M213.5,560.3
		c0.7-2.7,0.7-6.7,0-9.4s1-4.7,3.7-4.7c2,0,3.9,1.9,4.4,4c0.8,3.4,0.8,7.4,0,10.8c-0.5,2.2-2.4,4-4.4,4
		C214.6,565,212.9,563,213.5,560.3 M203.1,590.3c0-2.7,2-4.7,4.7-4.7c2.7,0,4.7,2,4.7,4.7c0,2.7-2,4.7-4.7,4.7
		C205.1,595,203.1,593,203.1,590.3 M202.7,520.8c0-2.7,2-4.7,4.7-4.7c2.7,0,4.7,2,4.7,4.7c0,2.7-2,4.7-4.7,4.7
		C204.8,525.5,202.7,523.5,202.7,520.8 M169.7,506.8c0-2,1.9-3.9,4-4.4c3.4-0.8,7.4-0.8,10.8,0c2.2,0.5,4,2.4,4,4.4
		c0,2.7-2,4.4-4.7,3.7c-2.7-0.7-6.7-0.7-9.4,0C171.7,511.2,169.7,509.5,169.7,506.8 M169.7,604.7c0-2.7,2-4.4,4.7-3.7
		c2.7,0.7,6.7,0.7,9.4,0s4.7,1,4.7,3.7c0,2-1.9,3.9-4,4.4c-3.4,0.8-7.4,0.8-10.8,0C171.5,608.5,169.7,606.7,169.7,604.7
		 M147.4,555.6c0-24.8,13.3-42.9,31.7-42.9s31.7,18.1,31.7,42.9c0,24.8-13.3,42.9-31.7,42.9S147.4,580.4,147.4,555.6 M146,520.8
		c0-2.7,2-4.7,4.7-4.7c2.7,0,4.7,2,4.7,4.7c0,2.7-2,4.7-4.7,4.7C148.1,525.5,146,523.5,146,520.8 M145.7,590.7c0-2.7,2-4.7,4.7-4.7
		c2.7,0,4.7,2,4.7,4.7s-2,4.7-4.7,4.7C147.7,595.4,145.7,593.4,145.7,590.7 M136.6,561c-0.8-3.4-0.8-7.4,0-10.8c0.5-2.2,2.4-4,4.4-4
		c2.7,0,4.4,2,3.7,4.7s-0.7,6.7,0,9.4s-1,4.7-3.7,4.7C139,565,137.1,563.1,136.6,561 M179.1,612.6c27,0,46.6-24,46.6-56.9
		c0-32.9-19.6-56.9-46.6-56.9s-46.6,24-46.6,56.9C132.5,588.6,152.1,612.6,179.1,612.6 M107.7,539.7c0.7-2.7,0.7-6.7,0-9.4
		c-0.7-2.7,1-4.7,3.7-4.7c2,0,3.9,1.9,4.4,4c0.8,3.4,0.8,7.4,0,10.8c-0.5,2.2-2.4,4-4.4,4C108.8,544.4,107.1,542.4,107.7,539.7
		 M100.1,514c0-2.7,2-4.7,4.7-4.7c2.7,0,4.7,2,4.7,4.7c0,2.7-2,4.7-4.7,4.7C102.2,518.8,100.1,516.7,100.1,514 M88.2,562.5
		c0-2.7,2-4.7,4.7-4.7s4.7,2,4.7,4.7s-2,4.7-4.7,4.7S88.2,565.2,88.2,562.5 M87.7,603.5c0-2.5,2-4.4,4.7-4.4h17.5
		c2.7,0,4.7,1.9,4.7,4.4c0,2.5-2,4.4-4.7,4.4H92.4C89.7,607.9,87.7,606,87.7,603.5 M75.2,506.8c0-2,1.9-3.9,4-4.4
		c3.4-0.8,7.4-0.8,10.8,0c2.2,0.5,4,2.4,4,4.4c0,2.7-2,4.4-4.7,3.7c-2.7-0.7-6.7-0.7-9.4,0C77.2,511.2,75.2,509.5,75.2,506.8
		 M63,581.9c-1.2-1.7-0.7-4.2,0.7-5.9c2.4-2.7,5.6-5.1,8.8-6.4c2-0.8,4.7-0.5,5.9,1.2c1.5,2.2,0.8,4.7-1.7,5.7
		c-2.5,1-5.9,3.4-7.6,5.6C67.2,584.2,64.7,584.1,63,581.9 M52.2,530.2c0-2.7,2-4.7,4.7-4.7c2.7,0,4.7,2,4.7,4.7s-2,4.7-4.7,4.7
		C54.2,535,52.2,532.9,52.2,530.2 M69.9,596.4c-1,0-1.7,0.7-1.7,1.7c0,2.4-2.5,4.2-5.1,4.2c-2.7,0-4.7-2-4.7-4.7
		c0-2.7,2-4.7,4.7-4.7c1,0,1.9-0.7,2.2-1.7c3.4-9.1,14.2-13.7,27.3-21.1c10.8-6.1,26.7-14.2,26.7-36.4c0-20.9-14.5-34.8-34.8-34.8
		c-20.8,0-35.8,15.5-35.8,37.1c0,2.4,0.2,5.1,0.3,8.4l15.2-1.7c-0.5-2.7-0.7-4.9-0.7-6.7c0-13.3,8.9-23.3,21.3-23.3
		c12,0,20.6,9.3,20.6,22.3c0,14.8-11.5,19.6-17.2,22.6c-25,12.8-40.8,21.9-40.8,48.9v4h72.2v-14.2H69.9z"/>
	<path style="clip-path:url(#SVGID_00000115508446481064762360000012033401678171950240_);fill:#FFFFFF;" d="M469.7,451.5
		c-1.7-2.2-1.3-4.9,0.7-6.4c2-1.5,4.7-1,6.4,1.2l5.9,8.3c1.5,2.2,1.3,4.9-0.8,6.4c-2,1.5-4.7,0.8-6.2-1.2L469.7,451.5z M463.3,379
		l10-14.5c1.5-2.2,4.2-2.7,6.4-1.3c2,1.5,2.4,4.2,0.8,6.4l-10.1,14.3c-1.5,2.2-4.2,2.9-6.2,1.3C461.9,383.8,461.6,381.1,463.3,379
		 M410.5,369.5c-1.5-2.2-1.2-5.1,0.8-6.4c2-1.5,4.7-1,6.4,1.2l10.3,14.2c1.5,2.2,1.2,4.9-0.8,6.4c-2,1.5-4.7,1-6.2-1.2L410.5,369.5z
		 M409.6,454.5l5.9-8.3c1.7-2.2,4.4-2.7,6.4-1.2c2,1.5,2.4,4.2,0.7,6.4l-5.9,8.3c-1.5,2-4.2,2.7-6.2,1.2
		C408.3,459.4,408.1,456.7,409.6,454.5 M397.1,467h18.2l26.7-38.5c1.9-2.7-0.7-4.2-0.7-7.3c0-2.7,2-4.7,4.7-4.7c2.7,0,4.7,2,4.7,4.7
		c0,3-2.9,4.9-1,7.4l27.7,38.3H495l-40.5-56l37.8-53.7h-17.5l-25,36.1c-1.9,2.5,1,4.4,1,7.4c0,2.7-2,4.7-4.7,4.7
		c-2.7,0-4.7-2-4.7-4.7c0-3,2.7-4.9,0.7-7.6l-26-35.9h-17.9l38.8,53.7L397.1,467z M375.9,459.9c0-2.7,2-4.7,4.7-4.7
		c2.7,0,4.7,2,4.7,4.7c0,2.7-2,4.7-4.7,4.7C377.9,464.7,375.9,462.6,375.9,459.9 M374.5,364.1c0-2.7,2-4.7,4.7-4.7
		c2.7,0,4.7,2,4.7,4.7s-2,4.7-4.7,4.7C376.5,368.8,374.5,366.8,374.5,364.1 M356.3,411c0-2.5,2-4.4,4.7-4.4h10.1
		c2.7,0,4.7,1.9,4.7,4.4c0,2.5-2,4.4-4.7,4.4H361C358.3,415.4,356.3,413.5,356.3,411 M343.5,364.1c0-2.5,2-4.4,4.7-4.4h10.1
		c2.7,0,4.7,1.9,4.7,4.4c0,2.5-2,4.4-4.7,4.4h-10.1C345.5,368.5,343.5,366.6,343.5,364.1 M340.1,459.9c0-2.5,2-4.4,4.7-4.4h17.5
		c2.7,0,4.7,1.9,4.7,4.4c0,2.5-2,4.4-4.7,4.4h-17.5C342.1,464.3,340.1,462.5,340.1,459.9 M314.1,467h76.3v-13.8h-54.8
		c-1.4,0-2.5,0.8-3,2.2c-0.7,1.5-2.4,2.5-4.2,2.5c-2.7,0-4.7-2-4.7-4.7c0-1.9,1-3.5,2.5-4.2c1.3-0.5,2.2-1.7,2.2-3V425
		c0-1.3-0.8-2.5-2.2-3c-1.5-0.7-2.5-2.4-2.5-4.2c0-2.7,2-4.7,4.7-4.7c1.9,0,3.5,1,4.2,2.5c0.5,1.3,1.7,2.2,3,2.2h45.4v-13.5h-45.4
		c-1.4,0-2.5,0.8-3,2.2c-0.7,1.5-2.4,2.5-4.2,2.5c-2.7,0-4.7-2-4.7-4.7c0-1.9,1-3.5,2.5-4.2c1.3-0.5,2.2-1.7,2.2-3v-18.9
		c0-1.3-0.8-2.5-2.2-3c-1.5-0.7-2.5-2.4-2.5-4.2c0-2.7,2-4.7,4.7-4.7c1.9,0,3.5,1,4.2,2.5c0.5,1.3,1.7,2.2,3,2.2H389v-13.5h-74.9
		V467z M284.4,416.7c0.7-2.7,0.7-6.7,0-9.4c-0.7-2.7,1-4.7,3.7-4.7c2,0,3.9,1.9,4.4,4c0.8,3.4,0.8,7.4,0,10.8c-0.5,2.2-2.4,4-4.4,4
		C285.4,421.5,283.7,419.4,284.4,416.7 M270.9,447.1c0-2.7,2-4.7,4.7-4.7c2.7,0,4.7,2,4.7,4.7c0,2.7-2,4.7-4.7,4.7
		C272.9,451.8,270.9,449.8,270.9,447.1 M270.2,376.9c0-2.7,2-4.7,4.7-4.7c2.7,0,4.7,2,4.7,4.7c0,2.7-2,4.7-4.7,4.7
		C272.3,381.7,270.2,379.6,270.2,376.9 M235.5,459.9c0-2.5,2-4.4,4.7-4.4h10.1c2.7,0,4.7,1.9,4.7,4.4c0,2.5-2,4.4-4.7,4.4h-10.1
		C237.5,464.3,235.5,462.5,235.5,459.9 M231.4,364.1c0-2.5,2-4.4,4.7-4.4h10.1c2.7,0,4.7,1.9,4.7,4.4c0,2.5-2,4.4-4.7,4.4h-10.1
		C233.4,368.5,231.4,366.6,231.4,364.1 M211.5,453.2c0-1.9,1-3.5,2.5-4.2c1.4-0.5,2.2-1.7,2.2-3v-67.8c0-1.3-0.8-2.5-2.2-3
		c-1.5-0.7-2.5-2.4-2.5-4.2c0-2.7,2-4.7,4.7-4.7c1.9,0,3.5,1,4.2,2.5c0.5,1.3,1.7,2.2,3,2.2h19.1c22.8,0,39.1,17.4,39.1,41.5
		c0,23.6-15.5,40.8-37.1,40.8h-21.1c-1.3,0-2.5,0.8-3,2.2c-0.7,1.5-2.4,2.5-4.2,2.5C213.5,457.9,211.5,455.9,211.5,453.2
		 M204.8,423.2v-17.5c0-2.7,1.9-4.7,4.4-4.7c2.5,0,4.4,2,4.4,4.7v17.5c0,2.7-1.9,4.7-4.4,4.7C206.6,427.9,204.8,425.9,204.8,423.2
		 M202.1,467h43.9c29.9,0,50.6-24,50.6-55c0-32.7-23.1-54.7-53.3-54.7h-41.2V467z M167.6,377.3v-10.1c0-2.7,1.9-4.7,4.4-4.7
		c2.5,0,4.4,2,4.4,4.7v10.1c0,2.7-1.9,4.7-4.4,4.7C169.5,382,167.6,380,167.6,377.3 M167.6,418.4v-17.5c0-2.7,1.9-4.7,4.4-4.7
		c2.5,0,4.4,2,4.4,4.7v17.5c0,2.7-1.9,4.7-4.4,4.7C169.5,423.2,167.6,421.1,167.6,418.4 M133.2,417.4c-1.5-2.2-1.2-4.9,1-6.4
		c2-1.3,4.7-0.7,6.2,1.5l5.6,8.4c1.5,2.2,1.2,4.9-1,6.4c-2,1.3-4.7,0.7-6.2-1.5L133.2,417.4z M118.2,394.5c0-2.7,2-4.7,4.7-4.7
		c2.7,0,4.7,2,4.7,4.7c0,2.7-2,4.7-4.7,4.7C120.2,399.2,118.2,397.2,118.2,394.5 M92,423.2v-17.5c0-2.7,1.9-4.7,4.4-4.7
		c2.5,0,4.4,2,4.4,4.7v17.5c0,2.7-1.9,4.7-4.4,4.7C93.9,427.9,92,425.9,92,423.2 M92,456.9v-10.1c0-2.7,1.9-4.7,4.4-4.7
		c2.5,0,4.4,2,4.4,4.7v10.1c0,2.7-1.9,4.7-4.4,4.7C93.9,461.6,92,459.6,92,456.9 M89.3,467h14.2v-83.7c0-1.3-0.8-2.4-2-2.4
		c-2.7,0-4.7-2-4.7-4.7c0-2.7,2-4.7,4.7-4.7c2.7,0,4.7,2,4.7,4.7v3c0,1.7,0.5,3.9,1.3,5.1l55.3,82.7h16.2V357.4h-14.2v82.3
		c0,1.3,0.8,2.4,2,2.4c2.7,0,4.7,2,4.7,4.7s-2,4.7-4.7,4.7c-2.7,0-4.7-2-4.7-4.7v-3c0-1.7-0.5-3.9-1.3-5.1l-53.7-81.3H89.3V467z
		 M54.9,423.2v-17.5c0-2.7,1.9-4.7,4.4-4.7c2.5,0,4.4,2,4.4,4.7v17.5c0,2.7-1.9,4.7-4.4,4.7C56.8,427.9,54.9,425.9,54.9,423.2
		 M54.9,456.9v-10.1c0-2.7,1.9-4.7,4.4-4.7c2.5,0,4.4,2,4.4,4.7v10.1c0,2.7-1.9,4.7-4.4,4.7C56.8,461.6,54.9,459.6,54.9,456.9
		 M54.6,367.1c0-2.7,2-4.7,4.7-4.7c2.7,0,4.7,2,4.7,4.7s-2,4.7-4.7,4.7C56.6,371.9,54.6,369.8,54.6,367.1 M52.2,467h14.2V357.4H52.2
		V467z"/>
	<path style="clip-path:url(#SVGID_00000115508446481064762360000012033401678171950240_);fill:#FFFFFF;" d="M508.8,316.4
		c0-2.7,2-4.7,4.7-4.7s4.7,2,4.7,4.7s-2,4.7-4.7,4.7S508.8,319.1,508.8,316.4 M507.5,220.6c0-2.7,2-4.7,4.7-4.7c2.7,0,4.7,2,4.7,4.7
		c0,2.7-2,4.7-4.7,4.7C509.5,225.3,507.5,223.3,507.5,220.6 M489.3,267.5c0-2.5,2-4.4,4.7-4.4h10.1c2.7,0,4.7,1.9,4.7,4.4
		c0,2.5-2,4.4-4.7,4.4H494C491.3,271.9,489.3,270,489.3,267.5 M476.4,220.6c0-2.5,2-4.4,4.7-4.4h10.1c2.7,0,4.7,1.9,4.7,4.4
		c0,2.5-2,4.4-4.7,4.4h-10.1C478.5,225,476.4,223.1,476.4,220.6 M473.1,316.4c0-2.5,2-4.4,4.7-4.4h17.5c2.7,0,4.7,1.9,4.7,4.4
		c0,2.5-2,4.4-4.7,4.4h-17.5C475.1,320.8,473.1,319,473.1,316.4 M447.1,323.5h76.3v-13.8h-54.8c-1.3,0-2.5,0.8-3,2.2
		c-0.7,1.5-2.4,2.5-4.2,2.5c-2.7,0-4.7-2-4.7-4.7c0-1.9,1-3.5,2.5-4.2c1.3-0.5,2.2-1.7,2.2-3v-20.9c0-1.3-0.8-2.5-2.2-3
		c-1.5-0.7-2.5-2.4-2.5-4.2c0-2.7,2-4.7,4.7-4.7c1.9,0,3.5,1,4.2,2.5c0.5,1.3,1.7,2.2,3,2.2h45.4v-13.5h-45.4c-1.3,0-2.5,0.8-3,2.2
		c-0.7,1.5-2.4,2.5-4.2,2.5c-2.7,0-4.7-2-4.7-4.7c0-1.9,1-3.5,2.5-4.2c1.3-0.5,2.2-1.7,2.2-3v-18.9c0-1.3-0.8-2.5-2.2-3
		c-1.5-0.7-2.5-2.4-2.5-4.2c0-2.7,2-4.7,4.7-4.7c1.9,0,3.5,1,4.2,2.5c0.5,1.3,1.7,2.2,3,2.2H522v-13.5h-74.9V323.5z M409.3,302.2
		c0-2.7,2-4.7,4.7-4.7c2.7,0,4.7,2,4.7,4.7c0,2.7-2,4.7-4.7,4.7C411.3,307,409.3,304.9,409.3,302.2 M407.9,234.7
		c0-2.7,2-4.7,4.7-4.7c2.7,0,4.7,2,4.7,4.7c0,2.7-2,4.7-4.7,4.7C410,239.5,407.9,237.4,407.9,234.7 M371.5,317.4
		c0-2.7,2-4.4,4.7-3.7c2.7,0.7,6.7,0.7,9.4,0c2.7-0.7,4.7,1,4.7,3.7c0,2-1.9,3.9-4,4.4c-3.4,0.8-7.4,0.8-10.8,0
		C373.3,321.3,371.5,319.5,371.5,317.4 M370.8,219.7c0-2,1.9-3.9,4-4.4c3.4-0.8,7.4-0.8,10.8,0c2.2,0.5,4,2.4,4,4.4
		c0,2.7-2,4.4-4.7,3.7c-2.7-0.7-6.7-0.7-9.4,0C372.8,224.1,370.8,222.4,370.8,219.7 M343.8,233.4c0-2.7,2-4.7,4.7-4.7s4.7,2,4.7,4.7
		c0,2.7-2,4.7-4.7,4.7S343.8,236.1,343.8,233.4 M343.8,303.6c0-2.7,2-4.7,4.7-4.7s4.7,2,4.7,4.7s-2,4.7-4.7,4.7
		S343.8,306.3,343.8,303.6 M332.3,273.9c-0.8-3.4-0.8-7.4,0-10.8c0.5-2.2,2.4-4,4.4-4c2.7,0,4.4,2,3.7,4.7c-0.7,2.7-0.7,6.7,0,9.4
		c0.7,2.7-1,4.7-3.7,4.7C334.7,277.9,332.8,276.1,332.3,273.9 M429.5,285.7l-15.9-4.7c-2,18.2-15,30.4-32.4,30.4
		c-21.9,0-37.8-17.9-37.8-42.7c0-25,15.5-43,36.8-43c16,0,29.7,12.1,32.4,29l15.5-5.4c-4-21.8-24.1-37.5-47.9-37.5
		c-30.2,0-52,24-52,56.9c0,32.9,22.3,56.9,53,56.9C406.2,325.5,425.5,309.7,429.5,285.7 M309.4,313.4c0-2.7,2-4.7,4.7-4.7
		s4.7,2,4.7,4.7s-2,4.7-4.7,4.7S309.4,316.1,309.4,313.4 M285.1,250.3c-1-2.5,0-5.1,2.4-6.1c2.4-0.8,4.7,0.3,5.7,2.9l3.9,9.3
		c1,2.5,0,5.1-2.4,6.1c-2.4,1-4.7-0.2-5.7-2.7L285.1,250.3z M254.2,256.3l3.9-9.3c1-2.5,3.4-3.7,5.7-2.9c2.4,1,3.4,3.5,2.4,6.1
		l-3.9,9.4c-1,2.5-3.4,3.7-5.7,2.7C254.2,261.4,253.2,258.9,254.2,256.3 M252.7,280.3c0-2.7,2-4.7,4.7-4.7c1,0,2-0.7,2.4-1.5
		l13-34.9c0.5-1.2,0-2.5-0.8-3.4c-0.8-0.8-1.3-2-1.3-3.4c0-2.7,2-4.7,4.7-4.7c2.7,0,4.7,2,4.7,4.7c0,1.3-0.5,2.5-1.3,3.4
		c-0.8,0.8-1.3,2.2-0.8,3.4l13.3,34.9c0.3,0.8,1.3,1.5,2.4,1.5c2.7,0,4.7,2,4.7,4.7c0,2.7-2,4.7-4.7,4.7c-2,0-3.7-1.2-4.4-2.9
		c-0.3-1-1.3-1.9-2.4-1.9h-22.6c-1,0-2,0.8-2.4,1.9c-0.7,1.7-2.4,2.9-4.4,2.9C254.7,285,252.7,283,252.7,280.3 M232.3,313.4
		c0-2.7,2-4.7,4.7-4.7c2.7,0,4.7,2,4.7,4.7s-2,4.7-4.7,4.7C234.3,318.1,232.3,316.1,232.3,313.4 M225,323.5h16.2l8.8-23.6
		c0.3-1,0.2-2.2-0.5-2.7c-1.3-0.8-2.2-2.4-2.2-4c0-2.7,2-4.7,4.7-4.7c2.2,0,4,1.3,4.6,3.4c0.2,1.2,1,2,2,2h33.9c1,0,1.9-0.8,2-2
		c0.5-2,2.4-3.4,4.6-3.4c2.7,0,4.7,2,4.7,4.7c0,1.7-0.8,3.2-2.2,4c-0.7,0.5-0.8,1.7-0.5,2.7l8.9,23.6h16.2l-43.2-109.7h-14.8
		L225,323.5z M217.6,254c0.7-2.7,0.7-6.7,0-9.4c-0.7-2.7,1-4.7,3.7-4.7c2,0,3.9,1.9,4.4,4c0.8,3.4,0.8,7.4,0,10.8
		c-0.5,2.2-2.4,4-4.4,4C218.6,258.7,216.9,256.7,217.6,254 M208.1,227.3c0-2.7,2-4.7,4.7-4.7c2.7,0,4.7,2,4.7,4.7
		c0,2.7-2,4.7-4.7,4.7C210.2,232,208.1,230,208.1,227.3 M206.8,270.9c0-2.7,2-4.7,4.7-4.7c2.7,0,4.7,2,4.7,4.7c0,2.7-2,4.7-4.7,4.7
		C208.8,275.6,206.8,273.6,206.8,270.9 M187.6,276.3c0-2.7,2-4.7,4.7-4.7c2.7,0,4.7,2,4.7,4.7c0,2.7-2,4.7-4.7,4.7
		C189.6,281,187.6,279,187.6,276.3 M178.8,220.6c0-2.5,2-4.4,4.7-4.4h10.1c2.7,0,4.7,1.9,4.7,4.4c0,2.5-2,4.4-4.7,4.4h-10.1
		C180.8,225,178.8,223.1,178.8,220.6 M158.9,269.5c0-1.9,1-3.5,2.5-4.2c1.3-0.5,2.2-1.7,2.2-3v-27.7c0-1.3-0.8-2.5-2.2-3
		c-1.5-0.7-2.5-2.4-2.5-4.2c0-2.7,2-4.7,4.7-4.7c1.9,0,3.5,1,4.2,2.5c0.5,1.3,1.7,2.2,3,2.2H195c11.5,0,19.9,8.8,19.9,21.1
		c0,12.3-8.4,21.1-19.9,21.1h-24.1c-1.3,0-2.5,0.8-3,2.2c-0.7,1.5-2.4,2.5-4.2,2.5C160.9,274.2,158.9,272.2,158.9,269.5
		 M152.1,313.4v-10.1c0-2.7,1.9-4.7,4.4-4.7c2.5,0,4.4,2,4.4,4.7v10.1c0,2.7-1.9,4.7-4.4,4.7C154,318.1,152.1,316.1,152.1,313.4
		 M149.4,323.5h14.2v-33.2c0-1.3-0.8-2.5-2.2-3c-1.5-0.7-2.5-2.4-2.5-4.2c0-2.7,2-4.7,4.7-4.7c1.9,0,3.5,1,4.2,2.5
		c0.5,1.3,1.7,2.2,3,2.2H195c20.1,0,34.8-14.7,34.8-34.8c0-19.9-14.3-34.4-34.1-34.4h-46.2V323.5z M119,298.5c0.7-2.7,0.7-6.7,0-9.4
		c-0.7-2.7,1-4.7,3.7-4.7c2,0,3.9,1.9,4.4,4c0.8,3.4,0.8,7.4,0,10.8c-0.5,2.2-2.4,4-4.4,4C120.1,303.3,118.4,301.2,119,298.5
		 M112.6,234.4c0-2.7,2-4.7,4.7-4.7s4.7,2,4.7,4.7s-2,4.7-4.7,4.7S112.6,237.1,112.6,234.4 M82.8,317.8c0-2.7,2-4.4,4.7-3.7
		s6.7,0.7,9.4,0s4.7,1,4.7,3.7c0,2-1.9,3.9-4,4.4c-3.4,0.8-7.4,0.8-10.8,0C84.6,321.7,82.8,319.8,82.8,317.8 M79.7,219.4
		c0-2,1.9-3.9,4-4.4c3.4-0.8,7.4-0.8,10.8,0c2.2,0.5,4,2.4,4,4.4c0,2.7-2,4.4-4.7,3.7c-2.7-0.7-6.7-0.7-9.4,0
		C81.8,223.8,79.7,222.1,79.7,219.4 M78.5,261.9c0.7-2.2,2.9-2.9,5.1-2.2l17.9,5.9c2.2,0.7,3.4,2.7,2.7,4.9c-0.7,2-2.9,2.9-5.1,2.2
		l-17.9-6.1C79.1,266,77.9,263.9,78.5,261.9 M56.9,245.9c-0.8-3.4-0.8-7.4,0-10.8c0.5-2.2,2.4-4,4.4-4c2.7,0,4.4,2,3.7,4.7
		s-0.7,6.7,0,9.4c0.7,2.7-1,4.7-3.7,4.7C59.3,249.9,57.5,248.1,56.9,245.9 M53.7,298.5c0-2.7,2-4.7,4.7-4.7s4.7,2,4.7,4.7
		c0,2.7-2,4.7-4.7,4.7S53.7,301.2,53.7,298.5 M63,285l-15.5,4c1.3,21.6,19.7,36.4,44.5,36.4c23.8,0,39.8-13,39.8-31.7
		c0-37.3-64.5-29.9-64.5-53.3c0-9.1,10.1-15.2,21.6-15.2c13.5,0,21.9,8.8,23.3,20.2l15.5-4.4c-2-17.5-17.9-29.4-38.8-29.4
		c-20.6,0-36.8,11.5-36.8,29.4c0,35.6,64.1,26.5,64.1,52.6c0,10.5-10.5,17.9-24,17.9C75.7,311.7,63.7,300.6,63,285"/>
	<path style="clip-path:url(#SVGID_00000115508446481064762360000012033401678171950240_);fill:#FFFFFF;" d="M1082.9,77
		c0-2.5,2-4.4,4.7-4.4h10.1c2.7,0,4.7,1.9,4.7,4.4c0,2.5-2,4.4-4.7,4.4h-10.1C1084.9,81.4,1082.9,79.6,1082.9,77 M1056.9,136.1
		v-17.5c0-2.7,1.9-4.7,4.4-4.7c2.5,0,4.4,2,4.4,4.7v17.5c0,2.7-1.9,4.7-4.4,4.7C1058.8,140.8,1056.9,138.8,1056.9,136.1
		 M1056.6,169.9c0-2.7,2-4.7,4.7-4.7s4.7,2,4.7,4.7c0,2.7-2,4.7-4.7,4.7S1056.6,172.6,1056.6,169.9 M1020.1,77c0-2.5,2-4.4,4.7-4.4
		h10.1c2.7,0,4.7,1.9,4.7,4.4c0,2.5-2,4.4-4.7,4.4h-10.1C1022.1,81.4,1020.1,79.6,1020.1,77 M1054.2,91.1V180h14.2V91.1
		c0-1.3-0.8-2.5-2.2-3c-1.5-0.7-2.5-2.4-2.5-4.2c0-2.7,2-4.7,4.7-4.7c1.9,0,3.5,1,4.2,2.5c0.5,1.3,1.7,2.2,3,2.2h31.9V70.3h-92.5
		v13.5h31.9c1.3,0,2.5-0.8,3-2.2c0.7-1.5,2.4-2.5,4.2-2.5c2.7,0,4.7,2,4.7,4.7c0,1.9-1,3.5-2.5,4.2
		C1055,88.5,1054.2,89.7,1054.2,91.1 M991.8,90.2V80.1c0-2.7,1.9-4.7,4.4-4.7c2.5,0,4.4,2,4.4,4.7v10.1c0,2.7-1.9,4.7-4.4,4.7
		C993.6,94.9,991.8,92.9,991.8,90.2 M991.8,131.4v-17.5c0-2.7,1.9-4.7,4.4-4.7c2.5,0,4.4,2,4.4,4.7v17.5c0,2.7-1.9,4.7-4.4,4.7
		C993.6,136.1,991.8,134.1,991.8,131.4 M957.3,130.4c-1.5-2.2-1.2-4.9,1-6.4c2-1.3,4.7-0.7,6.2,1.5l5.6,8.4c1.5,2.2,1.2,4.9-1,6.4
		c-2,1.3-4.7,0.7-6.2-1.5L957.3,130.4z M942.3,107.4c0-2.7,2-4.7,4.7-4.7c2.7,0,4.7,2,4.7,4.7c0,2.7-2,4.7-4.7,4.7
		C944.3,112.1,942.3,110.1,942.3,107.4 M916.2,136.1v-17.5c0-2.7,1.9-4.7,4.4-4.7c2.5,0,4.4,2,4.4,4.7v17.5c0,2.7-1.9,4.7-4.4,4.7
		C918,140.8,916.2,138.8,916.2,136.1 M916.2,169.9v-10.1c0-2.7,1.9-4.7,4.4-4.7c2.5,0,4.4,2,4.4,4.7v10.1c0,2.7-1.9,4.7-4.4,4.7
		C918,174.6,916.2,172.6,916.2,169.9 M913.5,180h14.2V96.3c0-1.3-0.8-2.4-2-2.4c-2.7,0-4.7-2-4.7-4.7c0-2.7,2-4.7,4.7-4.7
		s4.7,2,4.7,4.7v3c0,1.7,0.5,3.9,1.3,5.1L987,180h16.2V70.3h-14.2v82.3c0,1.3,0.8,2.4,2,2.4c2.7,0,4.7,2,4.7,4.7s-2,4.7-4.7,4.7
		s-4.7-2-4.7-4.7v-3c0-1.7-0.5-3.9-1.3-5.1l-53.7-81.3h-17.9V180z M882.1,172.9c0-2.7,2-4.7,4.7-4.7c2.7,0,4.7,2,4.7,4.7
		c0,2.7-2,4.7-4.7,4.7C884.1,177.6,882.1,175.6,882.1,172.9 M880.7,77c0-2.7,2-4.7,4.7-4.7c2.7,0,4.7,2,4.7,4.7c0,2.7-2,4.7-4.7,4.7
		C882.8,81.8,880.7,79.7,880.7,77 M862.5,124c0-2.5,2-4.4,4.7-4.4h10.1c2.7,0,4.7,1.9,4.7,4.4c0,2.5-2,4.4-4.7,4.4h-10.1
		C864.5,128.3,862.5,126.5,862.5,124 M849.7,77c0-2.5,2-4.4,4.7-4.4h10.1c2.7,0,4.7,1.9,4.7,4.4c0,2.5-2,4.4-4.7,4.4h-10.1
		C851.7,81.4,849.7,79.6,849.7,77 M846.3,172.9c0-2.5,2-4.4,4.7-4.4h17.5c2.7,0,4.7,1.9,4.7,4.4c0,2.5-2,4.4-4.7,4.4H851
		C848.3,177.3,846.3,175.4,846.3,172.9 M820.3,180h76.3v-13.8h-54.8c-1.3,0-2.5,0.8-3,2.2c-0.7,1.5-2.4,2.5-4.2,2.5
		c-2.7,0-4.7-2-4.7-4.7c0-1.9,1-3.5,2.5-4.2c1.3-0.5,2.2-1.7,2.2-3V138c0-1.3-0.8-2.5-2.2-3c-1.5-0.7-2.5-2.4-2.5-4.2
		c0-2.7,2-4.7,4.7-4.7c1.9,0,3.5,1,4.2,2.5c0.5,1.3,1.7,2.2,3,2.2h45.4v-13.5h-45.4c-1.3,0-2.5,0.8-3,2.2c-0.7,1.5-2.4,2.5-4.2,2.5
		c-2.7,0-4.7-2-4.7-4.7c0-1.9,1-3.5,2.5-4.2c1.3-0.5,2.2-1.7,2.2-3V91.1c0-1.3-0.8-2.5-2.2-3c-1.5-0.7-2.5-2.4-2.5-4.2
		c0-2.7,2-4.7,4.7-4.7c1.9,0,3.5,1,4.2,2.5c0.5,1.3,1.7,2.2,3,2.2h53.5V70.3h-74.9V180z M790.6,129.7c0.7-2.7,0.7-6.7,0-9.4
		c-0.7-2.7,1-4.7,3.7-4.7c2,0,3.9,1.9,4.4,4c0.8,3.4,0.8,7.4,0,10.8c-0.5,2.2-2.4,4-4.4,4C791.6,134.4,790,132.4,790.6,129.7
		 M777.1,160.1c0-2.7,2-4.7,4.7-4.7s4.7,2,4.7,4.7c0,2.7-2,4.7-4.7,4.7S777.1,162.8,777.1,160.1 M776.5,89.9c0-2.7,2-4.7,4.7-4.7
		c2.7,0,4.7,2,4.7,4.7c0,2.7-2,4.7-4.7,4.7C778.5,94.6,776.5,92.6,776.5,89.9 M741.7,172.9c0-2.5,2-4.4,4.7-4.4h10.1
		c2.7,0,4.7,1.9,4.7,4.4c0,2.5-2,4.4-4.7,4.4h-10.1C743.7,177.3,741.7,175.4,741.7,172.9 M737.6,77c0-2.5,2-4.4,4.7-4.4h10.1
		c2.7,0,4.7,1.9,4.7,4.4c0,2.5-2,4.4-4.7,4.4h-10.1C739.7,81.4,737.6,79.6,737.6,77 M717.7,166.1c0-1.9,1-3.5,2.5-4.2
		c1.3-0.5,2.2-1.7,2.2-3V91.1c0-1.3-0.8-2.5-2.2-3c-1.5-0.7-2.5-2.4-2.5-4.2c0-2.7,2-4.7,4.7-4.7c1.9,0,3.5,1,4.2,2.5
		c0.5,1.3,1.7,2.2,3,2.2h19.1c22.8,0,39.1,17.4,39.1,41.5c0,23.6-15.5,40.8-37.1,40.8h-21.1c-1.3,0-2.5,0.8-3,2.2
		c-0.7,1.5-2.4,2.5-4.2,2.5C719.8,170.9,717.7,168.8,717.7,166.1 M711,136.1v-17.5c0-2.7,1.9-4.7,4.4-4.7c2.5,0,4.4,2,4.4,4.7v17.5
		c0,2.7-1.9,4.7-4.4,4.7C712.8,140.8,711,138.8,711,136.1 M708.3,180h43.9c29.9,0,50.6-24,50.6-55c0-32.7-23.1-54.7-53.3-54.7h-41.2
		V180z M673.9,90.2V80.1c0-2.7,1.9-4.7,4.4-4.7c2.5,0,4.4,2,4.4,4.7v10.1c0,2.7-1.9,4.7-4.4,4.7C675.7,94.9,673.9,92.9,673.9,90.2
		 M673.9,131.4v-17.5c0-2.7,1.9-4.7,4.4-4.7c2.5,0,4.4,2,4.4,4.7v17.5c0,2.7-1.9,4.7-4.4,4.7C675.7,136.1,673.9,134.1,673.9,131.4
		 M639.4,130.4c-1.5-2.2-1.2-4.9,1-6.4c2-1.3,4.7-0.7,6.2,1.5l5.6,8.4c1.5,2.2,1.2,4.9-1,6.4c-2,1.3-4.7,0.7-6.2-1.5L639.4,130.4z
		 M624.4,107.4c0-2.7,2-4.7,4.7-4.7c2.7,0,4.7,2,4.7,4.7c0,2.7-2,4.7-4.7,4.7C626.4,112.1,624.4,110.1,624.4,107.4 M598.3,136.1
		v-17.5c0-2.7,1.9-4.7,4.4-4.7c2.5,0,4.4,2,4.4,4.7v17.5c0,2.7-1.9,4.7-4.4,4.7C600.1,140.8,598.3,138.8,598.3,136.1 M598.3,169.9
		v-10.1c0-2.7,1.9-4.7,4.4-4.7c2.5,0,4.4,2,4.4,4.7v10.1c0,2.7-1.9,4.7-4.4,4.7C600.1,174.6,598.3,172.6,598.3,169.9 M595.6,180
		h14.2V96.3c0-1.3-0.8-2.4-2-2.4c-2.7,0-4.7-2-4.7-4.7c0-2.7,2-4.7,4.7-4.7c2.7,0,4.7,2,4.7,4.7v3c0,1.7,0.5,3.9,1.3,5.1l55.3,82.7
		h16.2V70.3h-14.2v82.3c0,1.3,0.8,2.4,2,2.4c2.7,0,4.7,2,4.7,4.7s-2,4.7-4.7,4.7s-4.7-2-4.7-4.7v-3c0-1.7-0.5-3.9-1.3-5.1
		l-53.7-81.3h-17.9V180z M564.2,172.9c0-2.7,2-4.7,4.7-4.7c2.7,0,4.7,2,4.7,4.7c0,2.7-2,4.7-4.7,4.7
		C566.2,177.6,564.2,175.6,564.2,172.9 M562.8,77c0-2.7,2-4.7,4.7-4.7s4.7,2,4.7,4.7c0,2.7-2,4.7-4.7,4.7S562.8,79.7,562.8,77
		 M544.6,124c0-2.5,2-4.4,4.7-4.4h10.1c2.7,0,4.7,1.9,4.7,4.4c0,2.5-2,4.4-4.7,4.4h-10.1C546.6,128.3,544.6,126.5,544.6,124
		 M531.8,77c0-2.5,2-4.4,4.7-4.4h10.1c2.7,0,4.7,1.9,4.7,4.4c0,2.5-2,4.4-4.7,4.4h-10.1C533.8,81.4,531.8,79.6,531.8,77
		 M528.4,172.9c0-2.5,2-4.4,4.7-4.4h17.5c2.7,0,4.7,1.9,4.7,4.4c0,2.5-2,4.4-4.7,4.4h-17.5C530.4,177.3,528.4,175.4,528.4,172.9
		 M502.4,180h76.3v-13.8h-54.8c-1.3,0-2.5,0.8-3,2.2c-0.7,1.5-2.4,2.5-4.2,2.5c-2.7,0-4.7-2-4.7-4.7c0-1.9,1-3.5,2.5-4.2
		c1.3-0.5,2.2-1.7,2.2-3V138c0-1.3-0.8-2.5-2.2-3c-1.5-0.7-2.5-2.4-2.5-4.2c0-2.7,2-4.7,4.7-4.7c1.9,0,3.5,1,4.2,2.5
		c0.5,1.3,1.7,2.2,3,2.2h45.4v-13.5h-45.4c-1.3,0-2.5,0.8-3,2.2c-0.7,1.5-2.4,2.5-4.2,2.5c-2.7,0-4.7-2-4.7-4.7c0-1.9,1-3.5,2.5-4.2
		c1.3-0.5,2.2-1.7,2.2-3V91.1c0-1.3-0.8-2.5-2.2-3c-1.5-0.7-2.5-2.4-2.5-4.2c0-2.7,2-4.7,4.7-4.7c1.9,0,3.5,1,4.2,2.5
		c0.5,1.3,1.7,2.2,3,2.2h53.5V70.3h-74.9V180z M475.4,110.5c0.7-2.7,0.7-6.7,0-9.4c-0.7-2.7,1-4.7,3.7-4.7c2,0,3.9,1.9,4.4,4
		c0.8,3.4,0.8,7.4,0,10.8c-0.5,2.2-2.4,4-4.4,4C476.4,115.2,474.7,113.2,475.4,110.5 M466,83.8c0-2.7,2-4.7,4.7-4.7
		c2.7,0,4.7,2,4.7,4.7c0,2.7-2,4.7-4.7,4.7C468,88.5,466,86.5,466,83.8 M464.6,127.3c0-2.7,2-4.7,4.7-4.7c2.7,0,4.7,2,4.7,4.7
		c0,2.7-2,4.7-4.7,4.7C466.6,132.1,464.6,130,464.6,127.3 M445.4,132.7c0-2.7,2-4.7,4.7-4.7c2.7,0,4.7,2,4.7,4.7
		c0,2.7-2,4.7-4.7,4.7C447.4,137.5,445.4,135.4,445.4,132.7 M436.6,77c0-2.5,2-4.4,4.7-4.4h10.1c2.7,0,4.7,1.9,4.7,4.4
		c0,2.5-2,4.4-4.7,4.4h-10.1C438.6,81.4,436.6,79.6,436.6,77 M416.7,126c0-1.9,1-3.5,2.5-4.2c1.3-0.5,2.2-1.7,2.2-3V91.1
		c0-1.3-0.8-2.5-2.2-3c-1.5-0.7-2.5-2.4-2.5-4.2c0-2.7,2-4.7,4.7-4.7c1.9,0,3.5,1,4.2,2.5c0.5,1.3,1.7,2.2,3,2.2h24.1
		c11.5,0,19.9,8.8,19.9,21.1c0,12.3-8.4,21.1-19.9,21.1h-24.1c-1.3,0-2.5,0.8-3,2.2c-0.7,1.5-2.4,2.5-4.2,2.5
		C418.7,130.7,416.7,128.7,416.7,126 M409.9,169.9v-10.1c0-2.7,1.9-4.7,4.4-4.7c2.5,0,4.4,2,4.4,4.7v10.1c0,2.7-1.9,4.7-4.4,4.7
		C411.8,174.6,409.9,172.6,409.9,169.9 M407.2,180h14.2v-33.2c0-1.3-0.8-2.5-2.2-3c-1.5-0.7-2.5-2.4-2.5-4.2c0-2.7,2-4.7,4.7-4.7
		c1.9,0,3.5,1,4.2,2.5c0.5,1.3,1.7,2.2,3,2.2h24.1c20.1,0,34.8-14.7,34.8-34.8c0-19.9-14.3-34.4-34.1-34.4h-46.2V180z M375.9,172.9
		c0-2.7,2-4.7,4.7-4.7c2.7,0,4.7,2,4.7,4.7c0,2.7-2,4.7-4.7,4.7C377.9,177.6,375.9,175.6,375.9,172.9 M374.5,77c0-2.7,2-4.7,4.7-4.7
		c2.7,0,4.7,2,4.7,4.7c0,2.7-2,4.7-4.7,4.7C376.5,81.8,374.5,79.7,374.5,77 M356.3,124c0-2.5,2-4.4,4.7-4.4h10.1
		c2.7,0,4.7,1.9,4.7,4.4c0,2.5-2,4.4-4.7,4.4H361C358.3,128.3,356.3,126.5,356.3,124 M343.5,77c0-2.5,2-4.4,4.7-4.4h10.1
		c2.7,0,4.7,1.9,4.7,4.4c0,2.5-2,4.4-4.7,4.4h-10.1C345.5,81.4,343.5,79.6,343.5,77 M340.1,172.9c0-2.5,2-4.4,4.7-4.4h17.5
		c2.7,0,4.7,1.9,4.7,4.4c0,2.5-2,4.4-4.7,4.4h-17.5C342.1,177.3,340.1,175.4,340.1,172.9 M314.1,180h76.3v-13.8h-54.8
		c-1.4,0-2.5,0.8-3,2.2c-0.7,1.5-2.4,2.5-4.2,2.5c-2.7,0-4.7-2-4.7-4.7c0-1.9,1-3.5,2.5-4.2c1.3-0.5,2.2-1.7,2.2-3V138
		c0-1.3-0.8-2.5-2.2-3c-1.5-0.7-2.5-2.4-2.5-4.2c0-2.7,2-4.7,4.7-4.7c1.9,0,3.5,1,4.2,2.5c0.5,1.3,1.7,2.2,3,2.2h45.4v-13.5h-45.4
		c-1.4,0-2.5,0.8-3,2.2c-0.7,1.5-2.4,2.5-4.2,2.5c-2.7,0-4.7-2-4.7-4.7c0-1.9,1-3.5,2.5-4.2c1.3-0.5,2.2-1.7,2.2-3V91.1
		c0-1.3-0.8-2.5-2.2-3c-1.5-0.7-2.5-2.4-2.5-4.2c0-2.7,2-4.7,4.7-4.7c1.9,0,3.5,1,4.2,2.5c0.5,1.3,1.7,2.2,3,2.2H389V70.3h-74.9V180
		z M284.4,129.7c0.7-2.7,0.7-6.7,0-9.4s1-4.7,3.7-4.7c2,0,3.9,1.9,4.4,4c0.8,3.4,0.8,7.4,0,10.8c-0.5,2.2-2.4,4-4.4,4
		C285.4,134.4,283.7,132.4,284.4,129.7 M270.9,160.1c0-2.7,2-4.7,4.7-4.7c2.7,0,4.7,2,4.7,4.7c0,2.7-2,4.7-4.7,4.7
		C272.9,164.8,270.9,162.8,270.9,160.1 M270.2,89.9c0-2.7,2-4.7,4.7-4.7c2.7,0,4.7,2,4.7,4.7c0,2.7-2,4.7-4.7,4.7
		C272.3,94.6,270.2,92.6,270.2,89.9 M235.5,172.9c0-2.5,2-4.4,4.7-4.4h10.1c2.7,0,4.7,1.9,4.7,4.4c0,2.5-2,4.4-4.7,4.4h-10.1
		C237.5,177.3,235.5,175.4,235.5,172.9 M231.4,77c0-2.5,2-4.4,4.7-4.4h10.1c2.7,0,4.7,1.9,4.7,4.4c0,2.5-2,4.4-4.7,4.4h-10.1
		C233.4,81.4,231.4,79.6,231.4,77 M211.5,166.1c0-1.9,1-3.5,2.5-4.2c1.4-0.5,2.2-1.7,2.2-3V91.1c0-1.3-0.8-2.5-2.2-3
		c-1.5-0.7-2.5-2.4-2.5-4.2c0-2.7,2-4.7,4.7-4.7c1.9,0,3.5,1,4.2,2.5c0.5,1.3,1.7,2.2,3,2.2h19.1c22.8,0,39.1,17.4,39.1,41.5
		c0,23.6-15.5,40.8-37.1,40.8h-21.1c-1.3,0-2.5,0.8-3,2.2c-0.7,1.5-2.4,2.5-4.2,2.5C213.5,170.9,211.5,168.8,211.5,166.1
		 M204.8,136.1v-17.5c0-2.7,1.9-4.7,4.4-4.7c2.5,0,4.4,2,4.4,4.7v17.5c0,2.7-1.9,4.7-4.4,4.7C206.6,140.8,204.8,138.8,204.8,136.1
		 M202.1,180h43.9c29.9,0,50.6-24,50.6-55c0-32.7-23.1-54.7-53.3-54.7h-41.2V180z M167.6,90.2V80.1c0-2.7,1.9-4.7,4.4-4.7
		c2.5,0,4.4,2,4.4,4.7v10.1c0,2.7-1.9,4.7-4.4,4.7C169.5,94.9,167.6,92.9,167.6,90.2 M167.6,131.4v-17.5c0-2.7,1.9-4.7,4.4-4.7
		c2.5,0,4.4,2,4.4,4.7v17.5c0,2.7-1.9,4.7-4.4,4.7C169.5,136.1,167.6,134.1,167.6,131.4 M133.2,130.4c-1.5-2.2-1.2-4.9,1-6.4
		c2-1.3,4.7-0.7,6.2,1.5l5.6,8.4c1.5,2.2,1.2,4.9-1,6.4c-2,1.3-4.7,0.7-6.2-1.5L133.2,130.4z M118.2,107.4c0-2.7,2-4.7,4.7-4.7
		c2.7,0,4.7,2,4.7,4.7c0,2.7-2,4.7-4.7,4.7C120.2,112.1,118.2,110.1,118.2,107.4 M92,136.1v-17.5c0-2.7,1.9-4.7,4.4-4.7
		c2.5,0,4.4,2,4.4,4.7v17.5c0,2.7-1.9,4.7-4.4,4.7C93.9,140.8,92,138.8,92,136.1 M92,169.9v-10.1c0-2.7,1.9-4.7,4.4-4.7
		c2.5,0,4.4,2,4.4,4.7v10.1c0,2.7-1.9,4.7-4.4,4.7C93.9,174.6,92,172.6,92,169.9 M89.3,180h14.2V96.3c0-1.3-0.8-2.4-2-2.4
		c-2.7,0-4.7-2-4.7-4.7c0-2.7,2-4.7,4.7-4.7c2.7,0,4.7,2,4.7,4.7v3c0,1.7,0.5,3.9,1.3,5.1l55.3,82.7h16.2V70.3h-14.2v82.3
		c0,1.3,0.8,2.4,2,2.4c2.7,0,4.7,2,4.7,4.7s-2,4.7-4.7,4.7c-2.7,0-4.7-2-4.7-4.7v-3c0-1.7-0.5-3.9-1.3-5.1l-53.7-81.3H89.3V180z
		 M54.9,136.1v-17.5c0-2.7,1.9-4.7,4.4-4.7c2.5,0,4.4,2,4.4,4.7v17.5c0,2.7-1.9,4.7-4.4,4.7C56.8,140.8,54.9,138.8,54.9,136.1
		 M54.9,169.9v-10.1c0-2.7,1.9-4.7,4.4-4.7c2.5,0,4.4,2,4.4,4.7v10.1c0,2.7-1.9,4.7-4.4,4.7C56.8,174.6,54.9,172.6,54.9,169.9
		 M54.6,80.1c0-2.7,2-4.7,4.7-4.7c2.7,0,4.7,2,4.7,4.7s-2,4.7-4.7,4.7C56.6,84.8,54.6,82.8,54.6,80.1 M52.2,180h14.2V70.3H52.2V180z
		"/>
	<path style="clip-path:url(#SVGID_00000115508446481064762360000012033401678171950240_);fill:#FFFFFF;" d="M1064.5,533.8
		l-4.9-16.8c-0.8-2.6,0.5-5.1,2.9-5.8c2.4-0.7,4.8,0.7,5.5,3.3l4.9,16.8c0.8,2.6-0.5,5.1-2.9,5.8
		C1067.6,537.8,1065.2,536.4,1064.5,533.8 M1079.2,585.4c-0.8-2.6,0.6-5.1,3.2-5.9c2.6-0.8,5.1,0.6,5.9,3.2c0.8,2.6-0.6,5.1-3.2,5.9
		C1082.4,589.3,1079.9,588,1079.2,585.4 M1029.1,506.5c-0.8-2.6,0.6-5.1,3.2-5.9c2.6-0.8,5.1,0.6,5.9,3.2c0.8,2.6-0.6,5.1-3.2,5.9
		C1032.4,510.4,1029.9,509.1,1029.1,506.5 M1033.3,533.4c0.5-2.6,0.1-6.7-0.6-9.3c-0.8-2.8,0.7-4.8,3.4-5c2.1-0.1,4,1.6,4.7,3.9
		c0.9,3.2,1.3,7.4,0.5,10.8c-0.2,2.2-2.1,4.1-4.1,4.2C1034.5,538.1,1032.7,536.2,1033.3,533.4 M1079.7,595.8l13.6-4l-6.4-22
		c-0.3-1-1.1-1.4-2.1-1.1c-2.6,0.8-5.1-0.6-5.9-3.2s0.6-5.1,3.2-5.9c2.6-0.8,5.1,0.6,5.9,3.2c0.3,1,1.1,1.4,2.1,1.1l13-3.8l-3.8-13
		l-17.5,5.1l-14-48l-13.6,4l12.7,43.6c0.2,0.8,1.1,1.3,1.9,1c2.6-0.8,5.1,0.6,5.9,3.2c0.8,2.6-0.6,5.1-3.2,5.9
		c-2.6,0.8-5.1-0.6-5.9-3.2c-0.3-1-1.1-1.4-2.1-1.1l-24.1,7c-1,0.3-1.4,1.1-1.1,2.1c0.8,2.6-0.6,5.1-3.2,5.9
		c-2.6,0.8-5.1-0.6-5.9-3.2c-0.8-2.6,0.6-5.1,3.2-5.9c0.8-0.2,1.8-0.4,2.6-0.1c1.2,0.4,2.2-0.1,2.8-1.2c7.7-15.2,8.3-39.5,1.4-63.3
		l-1.5-5.2l-13.9,4.1l3,10.4c7.2,24.6,4.6,49.6-6.7,61.4l4,13.6l48-14L1079.7,595.8z M988.8,576.9c-0.8-2.6,0.6-5.1,3.2-5.9
		c2.6-0.8,5.1,0.6,5.9,3.2c0.8,2.6-0.6,5.1-3.2,5.9C992.1,580.9,989.6,579.5,988.8,576.9 M951.2,587.9c-0.8-2.6,0.6-5.1,3.2-5.9
		c2.6-0.8,5.1,0.6,5.9,3.2c0.8,2.6-0.6,5.1-3.2,5.9C954.5,591.8,952,590.5,951.2,587.9 M944.5,583l3.7,12.6l56.4-16.4l-3.7-12.6
		L944.5,583z M917.5,569.2c-0.1-2.8-1.2-6.7-2.6-9.1c-1.4-2.4-0.4-4.8,2.2-5.6c1.9-0.6,4.2,0.7,5.3,2.7c1.8,3,2.9,6.9,3,10.4
		c0.1,2.2-1.1,4.5-3.1,5.1C919.8,573.5,917.6,572,917.5,569.2 M903,546.7c-0.8-2.6,0.6-5.1,3.2-5.9c2.6-0.8,5.1,0.6,5.9,3.2
		c0.8,2.6-0.6,5.1-3.2,5.9C906.3,550.7,903.8,549.3,903,546.7 M905.1,596.6c-0.8-2.6,0.6-5.1,3.2-5.9s5.1,0.6,5.9,3.2
		c0.8,2.6-0.6,5.1-3.2,5.9C908.4,600.5,905.9,599.2,905.1,596.6 M916.1,636.1c-0.7-2.4,0.7-4.8,3.3-5.5l16.8-4.9
		c2.6-0.8,5.1,0.5,5.8,2.9c0.7,2.4-0.7,4.8-3.3,5.5l-16.8,4.9C919.3,639.7,916.8,638.5,916.1,636.1 M877,546.7
		c-0.6-1.9,0.7-4.2,2.7-5.3c3-1.8,6.9-2.9,10.4-3c2.2-0.1,4.5,1.1,5.1,3.1c0.8,2.6-0.7,4.8-3.5,4.9c-2.8,0.1-6.7,1.2-9.1,2.6
		C880.2,550.4,877.8,549.3,877,546.7 M886.4,622.2c-1.6-1.3-1.8-3.9-1-5.9c1.5-3.3,3.9-6.4,6.6-8.6c1.7-1.4,4.4-1.8,6-0.5
		c2.1,1.7,2.1,4.3,0,6c-2.1,1.7-4.7,4.9-5.7,7.5C891.1,623.3,888.6,623.9,886.4,622.2 M861.6,575.7c-0.8-2.6,0.6-5.1,3.2-5.9
		c2.6-0.8,5.1,0.6,5.9,3.2c0.8,2.6-0.6,5.1-3.2,5.9C864.8,579.7,862.3,578.3,861.6,575.7 M897.1,634.2c-1,0.3-1.4,1.1-1.1,2.1
		c0.7,2.3-1.2,4.8-3.7,5.5c-2.6,0.8-5.1-0.6-5.9-3.2c-0.8-2.6,0.6-5.1,3.2-5.9c1-0.3,1.6-1.2,1.6-2.2c0.7-9.7,9.8-17.1,20.3-27.9
		c8.7-8.9,21.6-21.1,15.4-42.5c-5.9-20.1-23.7-29.3-43.1-23.6c-19.9,5.8-30,24.9-24,45.7c0.7,2.3,1.6,4.8,2.7,8l14.1-5.9
		c-1.2-2.5-2-4.5-2.5-6.3c-3.7-12.8,2.1-24.9,13.9-28.3c11.5-3.4,22.4,3.1,26,15.6c4.2,14.3-5.5,22-10.2,26.5
		c-20.4,19.3-33.1,32.5-25.5,58.4l1.1,3.9l69.3-20.2l-4-13.6L897.1,634.2z"/>
	<path style="clip-path:url(#SVGID_00000115508446481064762360000012033401678171950240_);fill:#FFFFFF;" d="M1103.6,422.4
		c-0.8-2.6,0.6-5.1,3.2-5.9c2.6-0.8,5.1,0.6,5.9,3.2c0.8,2.6-0.6,5.1-3.2,5.9C1106.8,426.4,1104.3,425,1103.6,422.4 M1087.1,373.1
		c-0.8-2.6,0.6-5.1,3.2-5.9c2.6-0.8,5.1,0.6,5.9,3.2s-0.6,5.1-3.2,5.9C1090.3,377.1,1087.8,375.7,1087.1,373.1 M1071,403.5
		c-0.8-2.6,0.6-5.1,3.2-5.9c2.6-0.8,5.1,0.6,5.9,3.2c0.8,2.6-0.6,5.1-3.2,5.9C1074.2,407.4,1071.7,406.1,1071,403.5 M1077.7,440.9
		c-0.8-2.6,0.7-4.8,3.5-4.9c2.8-0.1,6.7-1.2,9.1-2.6c2.4-1.4,4.8-0.4,5.6,2.2c0.6,1.9-0.7,4.2-2.7,5.3c-3,1.8-6.9,2.9-10.4,3
		C1080.5,444.1,1078.2,442.8,1077.7,440.9 M1055.9,371.1c-0.6-1.9,0.7-4.2,2.7-5.3c3-1.8,6.9-2.9,10.4-3c2.2-0.1,4.5,1.1,5.1,3.1
		c0.8,2.6-0.7,4.8-3.5,4.9c-2.8,0.1-6.7,1.2-9.1,2.6C1059.1,374.8,1056.7,373.7,1055.9,371.1 M1055,436.6c-0.8-2.6,0.6-5.1,3.2-5.9
		c2.6-0.8,5.1,0.6,5.9,3.2c0.8,2.6-0.6,5.1-3.2,5.9C1058.2,440.6,1055.7,439.2,1055,436.6 M1040.1,386.8c-0.8-2.6,0.6-5.1,3.2-5.9
		c2.6-0.8,5.1,0.6,5.9,3.2c0.8,2.6-0.6,5.1-3.2,5.9C1043.4,390.8,1040.9,389.4,1040.1,386.8 M1043.7,405.3c-0.8-2.6,0.6-5.1,3.2-5.9
		c1.1-0.3,1.9-1.4,2-2.9c1-11,7.3-19.7,17.3-22.6c9.9-2.9,20.8,0.3,28.1,9.4c0.9,1.2,1.9,1.7,3.2,1.3c2.6-0.8,5.1,0.6,5.9,3.2
		c0.8,2.6-0.6,5.1-3.2,5.9c-2.1,0.6-4.1-0.2-5.3-1.8c-0.9-1.2-1.9-1.7-3-1.4l-36.6,10.7c-1.6,0.5-2.1,1.7-2.3,3.1
		c-0.1,2-1.4,3.6-3.4,4.1C1047,409.2,1044.5,407.9,1043.7,405.3 M1088.6,445.8c18.1-5.3,30.4-20.1,29.8-35.4l-15.9-0.3
		c0.8,10-6.9,19.6-17.6,22.7c-11.3,3.3-22.4-1.4-29.2-11.4c-0.7-1.2-2.1-1.8-3.1-1.6c-2.6,0.8-5.1-0.6-5.9-3.2
		c-0.8-2.6,0.6-5.1,3.2-5.9c2.1-0.6,4.1,0.2,5.3,1.8c0.9,1.2,2.1,1.7,3.4,1.3l56.5-16.5c-0.2-1.3-0.5-2.2-0.6-2.8
		c-7.6-25.9-27.9-40.4-51.3-33.6c-22.7,6.6-33.6,29.3-26.4,54.1C1043.9,439.7,1065.3,452.6,1088.6,445.8 M1014.7,430l-2.8-9.7
		c-0.8-2.6,0.5-5.1,2.9-5.8c2.4-0.7,4.8,0.7,5.5,3.3l2.8,9.7c0.8,2.6-0.5,5.1-2.9,5.8C1017.9,434.1,1015.5,432.6,1014.7,430
		 M1021,452.8c-0.8-2.6,0.6-5.1,3.2-5.9c2.6-0.8,5.1,0.6,5.9,3.2c0.8,2.6-0.6,5.1-3.2,5.9C1024.3,456.8,1021.8,455.4,1021,452.8
		 M1000.8,399c-0.8-2.6,0.6-5.1,3.2-5.9c2.6-0.8,5.1,0.6,5.9,3.2c0.8,2.6-0.6,5.1-3.2,5.9C1004,402.9,1001.5,401.6,1000.8,399
		 M971.1,396.2c-0.6-1.9,0.7-4.2,2.7-5.3c3-1.8,6.9-2.9,10.4-3c2.2-0.1,4.5,1.1,5.1,3.1c0.8,2.6-0.7,4.8-3.5,4.9
		c-2.8,0.1-6.7,1.2-9.1,2.6C974.3,399.8,971.9,398.8,971.1,396.2 M963.4,469.6l-2.8-9.7c-0.8-2.6,0.5-5.1,2.9-5.8
		c2.4-0.7,4.8,0.7,5.5,3.3l2.8,9.7c0.8,2.6-0.5,5.1-2.9,5.8C966.5,473.7,964.1,472.2,963.4,469.6 M953.6,437.3
		c-0.8-2.6,0.6-5.1,3.2-5.9c2.6-0.8,5.1,0.6,5.9,3.2c0.8,2.6-0.6,5.1-3.2,5.9C956.9,441.3,954.3,439.9,953.6,437.3 M960.6,405.8
		c0.8,0.8,1.1,1.4,1.4,2.4c0.8,2.6-0.6,5.1-3.2,5.9c-2.6,0.8-5.1-0.6-5.9-3.2c-0.4-1.5-0.2-2.9,0.6-4c1-1.3,1.2-3,0.6-4.4l-2.8-6.6
		l-11,3.2l23.6,81l13-3.8l-12.7-43.4c-4.5-15.4,3.4-29.8,16.9-33.7c12.1-3.5,23.1,3.1,26.7,15.8l14.1,48.3l13-3.8l-14.4-49.2
		c-5.7-19.6-22.9-29.9-41.3-24.5c-9.6,2.8-16,9.1-19.5,16.2C959.1,403.2,959.5,404.5,960.6,405.8 M915.8,426.9l-2.8-9.7
		c-0.8-2.6,0.5-5.1,2.9-5.8c2.4-0.7,4.8,0.7,5.5,3.3l2.8,9.7c0.8,2.6-0.5,5.1-2.9,5.8C918.9,430.9,916.5,429.5,915.8,426.9
		 M924,456.5c-0.8-2.6,0.6-5.1,3.2-5.9c2.6-0.8,5.1,0.6,5.9,3.2c0.8,2.6-0.6,5.1-3.2,5.9C927.3,460.5,924.8,459.1,924,456.5
		 M895.6,494c-0.8-2.6,0.7-4.8,3.5-4.9c2.8-0.1,6.7-1.2,9.1-2.6c2.4-1.4,4.8-0.4,5.6,2.2c0.6,1.9-0.7,4.2-2.7,5.3
		c-3,1.8-6.9,2.9-10.4,3C898.4,497.2,896.1,495.9,895.6,494 M877.6,489c-0.8-2.6,0.6-5.1,3.2-5.9c2.6-0.8,5.1,0.6,5.9,3.2
		c0.8,2.6-0.6,5.1-3.2,5.9C880.9,493,878.4,491.6,877.6,489 M867.3,473l-2.8-9.7c-0.8-2.6,0.5-5.1,2.9-5.8c2.4-0.7,4.8,0.7,5.5,3.3
		l2.8,9.7c0.8,2.6-0.5,5.1-2.9,5.8C870.4,477,868.1,475.6,867.3,473 M855.6,433.9c-0.8-2.6,0.6-5.1,3.2-5.9c2.6-0.8,5.1,0.6,5.9,3.2
		s-0.6,5.1-3.2,5.9C858.8,437.9,856.3,436.5,855.6,433.9 M906.2,499c8.9-2.6,15.9-8.2,19.3-15.1c0.6-1.4,0.3-2.7-0.8-4
		c-0.8-0.8-1.1-1.4-1.4-2.4c-0.8-2.6,0.6-5.1,3.2-5.9c2.6-0.8,5.1,0.6,5.9,3.2c0.4,1.5,0.2,2.9-0.6,4c-1,1.3-1.2,3-0.6,4.4l2.3,5.6
		l11.3-3.3l-5-16.1l-18.9-64.8l-13,3.8l12.9,44.4c4.5,15.4-3.8,28.5-16.6,32.3c-12.2,3.5-22.7-3.2-26.3-15.5l-14.1-48.3l-13,3.8
		l14.5,49.6C871,493.9,888.2,504.2,906.2,499 M820.9,428.2l-2.8-9.7c-0.8-2.6,0.5-5.1,2.9-5.8c2.4-0.7,4.8,0.7,5.5,3.3l2.8,9.7
		c0.8,2.6-0.5,5.1-2.9,5.8C824,432.2,821.6,430.8,820.9,428.2 M832.5,468.1l-4.9-16.8c-0.8-2.6,0.5-5.1,2.9-5.8
		c2.4-0.7,4.8,0.7,5.5,3.3l4.9,16.8c0.8,2.6-0.5,5.1-2.9,5.8C835.6,472.1,833.2,470.7,832.5,468.1 M834.6,499.4
		c-0.8-2.6,0.6-5.1,3.2-5.9c2.6-0.8,5.1,0.6,5.9,3.2c0.8,2.6-0.6,5.1-3.2,5.9C837.9,503.4,835.4,502,834.6,499.4 M808.7,518.9
		c-0.8-2.6,0.7-4.8,3.5-4.9s6.7-1.2,9.1-2.6c2.4-1.4,4.8-0.3,5.6,2.2c0.6,1.9-0.7,4.2-2.7,5.3c-3,1.8-6.9,2.9-10.4,3
		C811.5,522.2,809.2,520.9,808.7,518.9 M785.7,513.7c-0.8-2.6,0.6-5.1,3.2-5.9c2.6-0.8,5.1,0.6,5.9,3.2s-0.6,5.1-3.2,5.9
		C788.9,517.7,786.4,516.3,785.7,513.7 M774.1,495.6l-2.8-9.7c-0.8-2.6,0.5-5.1,2.9-5.8c2.4-0.7,4.8,0.7,5.5,3.3l2.8,9.7
		c0.8,2.6-0.5,5.1-2.9,5.8C777.2,499.6,774.8,498.2,774.1,495.6 M816.2,510.4c-13.9,4.1-26.8-3.4-31.2-18.3l-5.5-18.8l-13.9,4.1
		l5.7,19.4c6.5,22.2,26.9,33.7,48.7,27.3c21.9-6.4,32.8-27.3,26.3-49.8l-19.9-68.4l-13.6,4l19.9,68.4
		C836.9,492.8,830.1,506.4,816.2,510.4"/>
	<path style="clip-path:url(#SVGID_00000115508446481064762360000012033401678171950240_);fill:#FFFFFF;" d="M1916.6,236
		c1.5,1.2,3.5,1.9,6.1,2.1c2.9,0.2,5.2-0.2,6.8-1.4c1.6-1.2,2.5-2.6,2.6-4.4c0.1-1.6-0.3-3-1.3-4c-1-1-2.9-1.9-5.5-2.8
		c-2.7-0.9-4.2-1.5-4.7-1.8c-0.3-0.3-0.5-0.6-0.4-1c0-0.4,0.3-0.8,0.7-1c0.6-0.3,1.6-0.4,3-0.3c1.1,0.1,1.9,0.4,2.4,0.8
		c0.5,0.5,0.9,1.1,1,1.8l4.9-0.5c-0.3-1.7-1.1-3.1-2.3-4.1c-1.2-1-3.2-1.6-5.8-1.8c-2.8-0.2-4.9,0.2-6.3,1.2c-1.4,1-2.2,2.4-2.3,4.1
		c-0.2,1.9,0.5,3.4,1.9,4.6c1,0.8,3.6,1.9,7.7,3.2c0.9,0.3,1.4,0.6,1.7,0.8c0.2,0.3,0.3,0.6,0.3,1c0,0.6-0.3,1-0.8,1.3
		c-0.7,0.4-1.7,0.6-3.1,0.5c-1.2-0.1-2.1-0.4-2.8-1c-0.6-0.6-1-1.4-1.1-2.4l-5.2,0.4C1914.2,233.3,1915.1,234.8,1916.6,236
		 M1899.3,224.3c0.1-1.4,0.6-2.5,1.4-3.2c0.8-0.8,1.8-1.1,2.9-1c1,0.1,1.9,0.5,2.6,1.4c0.7,0.8,1,2,0.9,3.5L1899.3,224.3z
		 M1904.8,232.1c-0.6,0.4-1.3,0.6-2.1,0.5c-1.2-0.1-2.1-0.6-2.9-1.5c-0.7-0.9-1-2.1-0.9-3.7l12.9,1.1c0.4-3.9-0.2-6.9-1.7-9
		c-1.5-2-3.7-3.2-6.6-3.4c-2.6-0.2-4.8,0.5-6.6,2.2c-1.8,1.7-2.9,4.1-3.2,7.4c-0.2,2.7,0.2,5,1.4,6.8c1.4,2.3,3.8,3.7,7.2,3.9
		c2.1,0.2,3.9-0.2,5.4-1c1.5-0.9,2.7-2.2,3.5-4l-5-1.3C1905.8,231.1,1905.4,231.7,1904.8,232.1 M1889.1,216.5
		c-1.3-1.1-3.1-1.8-5.5-2c-2.9-0.2-5.3,0.5-7.1,2.1c-1.8,1.6-2.9,4.1-3.2,7.3c-0.3,3.2,0.4,5.7,1.9,7.6c1.5,1.9,3.7,3,6.6,3.3
		c2.5,0.2,4.5-0.2,6.1-1.3c1.6-1.1,2.7-2.7,3.4-5l-5-1.3c-0.4,1.3-0.9,2.2-1.6,2.8c-0.7,0.5-1.5,0.7-2.5,0.6c-1.3-0.1-2.3-0.7-3-1.7
		c-0.7-1-0.9-2.7-0.8-5c0.2-2.1,0.7-3.5,1.5-4.3c0.8-0.8,1.9-1.2,3.2-1.1c1,0.1,1.7,0.4,2.3,1c0.6,0.6,0.9,1.4,1,2.4l5.1-0.5
		C1891.3,219.2,1890.4,217.6,1889.1,216.5 M1864.2,224.5c-0.1,1.2-0.2,2.1-0.4,2.5c-0.3,0.7-0.7,1.2-1.4,1.6
		c-0.9,0.5-1.8,0.8-2.7,0.7c-0.8-0.1-1.5-0.4-2-1c-0.5-0.6-0.7-1.2-0.6-1.9c0.1-0.7,0.4-1.3,1.2-1.7c0.5-0.3,1.4-0.5,2.9-0.7
		c1.5-0.2,2.5-0.4,3.2-0.5L1864.2,224.5z M1859.2,216.9c0.5-0.3,1.3-0.4,2.2-0.4c1.4,0.1,2.3,0.4,2.7,0.9c0.5,0.5,0.6,1.2,0.6,2.2
		l0,0.5c-1,0.3-2.7,0.6-5.1,0.8c-1.8,0.2-3.2,0.5-4.2,0.9c-1,0.4-1.8,1-2.4,1.8c-0.6,0.8-0.9,1.8-1,2.9c-0.1,1.7,0.3,3.1,1.4,4.3
		c1.1,1.2,2.6,1.9,4.6,2c1.1,0.1,2.2,0,3.3-0.4c1-0.3,2-0.9,3-1.7c0,0.1,0.1,0.3,0.1,0.6c0.1,0.7,0.3,1.2,0.4,1.6l5.1,0.4
		c-0.4-1-0.6-1.9-0.7-2.7c-0.1-0.8-0.1-2.1,0.1-3.8l0.6-6c0.2-2.2,0.1-3.8-0.3-4.7c-0.4-0.9-1.1-1.6-2.2-2.3c-1.1-0.6-2.8-1-5-1.2
		c-2.5-0.2-4.5,0.1-5.8,0.9c-1.4,0.8-2.4,2.1-3.1,3.9l4.6,1.2C1858.2,217.8,1858.6,217.3,1859.2,216.9 M1837.3,216.2
		c0.9-0.9,2-1.3,3.2-1.2c1.2,0.1,2.2,0.7,2.9,1.7c0.7,1.1,1,2.6,0.8,4.6c-0.2,2.2-0.7,3.7-1.6,4.6c-0.9,0.9-1.9,1.3-3.1,1.2
		c-1.2-0.1-2.3-0.7-3-1.8c-0.8-1.1-1.1-2.8-0.9-4.9C1835.9,218.5,1836.4,217.1,1837.3,216.2 M1829.2,237.4l5.1,0.4l0.8-9.8
		c0.9,1.1,1.7,1.9,2.6,2.4c0.8,0.5,1.8,0.8,2.9,0.9c2.3,0.2,4.2-0.6,6-2.2c1.7-1.7,2.7-4.1,3-7.4c0.3-3.2-0.3-5.7-1.7-7.6
		c-1.4-1.9-3.3-2.9-5.5-3.1c-1.3-0.1-2.5,0.1-3.6,0.6c-1.1,0.5-2,1.2-2.7,2.2l0.2-2.9l-4.8-0.4L1829.2,237.4z M1810.4,227.2
		c1.5,1.2,3.5,1.9,6.1,2.1c2.9,0.2,5.2-0.2,6.8-1.4c1.6-1.2,2.5-2.6,2.6-4.4c0.1-1.6-0.3-3-1.3-4c-1-1-2.9-1.9-5.5-2.8
		c-2.7-0.8-4.2-1.5-4.7-1.8c-0.3-0.3-0.5-0.6-0.4-1c0-0.4,0.3-0.8,0.7-1c0.6-0.3,1.6-0.4,3-0.3c1.1,0.1,1.9,0.4,2.4,0.8
		c0.5,0.5,0.9,1.1,1,1.8l4.9-0.5c-0.3-1.7-1.1-3.1-2.3-4.1c-1.2-1-3.2-1.6-5.8-1.8c-2.8-0.2-4.9,0.2-6.3,1.2c-1.4,1-2.2,2.4-2.3,4.1
		c-0.2,1.9,0.5,3.4,1.9,4.6c1,0.8,3.6,1.9,7.7,3.2c0.9,0.3,1.4,0.6,1.7,0.8c0.2,0.3,0.3,0.6,0.3,1c0,0.6-0.3,1-0.8,1.3
		c-0.7,0.4-1.7,0.6-3.1,0.5c-1.2-0.1-2.1-0.4-2.8-1c-0.6-0.6-1-1.4-1.1-2.4l-5.2,0.4C1808.1,224.5,1809,226,1810.4,227.2
		 M1793.3,207.4l0.6-6.9l-5.4,2.6l-0.3,3.9l-2.4-0.2l-0.3,4.1l2.4,0.2l-0.7,8.5c-0.1,1.8-0.2,3-0.1,3.6c0.1,0.9,0.2,1.5,0.6,2.1
		c0.3,0.5,0.8,1,1.5,1.3c0.7,0.4,1.5,0.6,2.5,0.7c1.5,0.1,2.9,0,4.1-0.4l-0.1-4c-0.9,0.3-1.6,0.4-2.1,0.3c-0.3,0-0.6-0.1-0.8-0.3
		s-0.4-0.4-0.4-0.7c0-0.3,0-1.2,0.1-2.8l0.6-7.8l3.5,0.3l0.3-4.1L1793.3,207.4z M1780.9,207.5c-1.3-1.1-3.1-1.8-5.5-2
		c-2.9-0.2-5.3,0.5-7.1,2.1c-1.8,1.6-2.9,4.1-3.2,7.3c-0.3,3.2,0.4,5.7,1.9,7.6c1.5,1.9,3.7,3,6.6,3.3c2.5,0.2,4.5-0.2,6.1-1.3
		c1.6-1.1,2.7-2.7,3.4-5l-5-1.3c-0.4,1.3-0.9,2.2-1.6,2.8c-0.7,0.5-1.5,0.7-2.5,0.6c-1.3-0.1-2.3-0.7-3-1.7c-0.7-1-0.9-2.7-0.8-5
		c0.2-2.1,0.7-3.5,1.5-4.3c0.8-0.8,1.9-1.2,3.2-1.1c1,0.1,1.7,0.4,2.3,1c0.6,0.6,0.9,1.4,1,2.4l5.1-0.5
		C1783.1,210.2,1782.2,208.6,1780.9,207.5 M1749.4,211.9c0.1-1.4,0.6-2.5,1.4-3.2c0.8-0.8,1.8-1.1,2.9-1c1,0.1,1.9,0.5,2.6,1.4
		c0.7,0.8,1,2,0.9,3.5L1749.4,211.9z M1755,219.7c-0.6,0.4-1.3,0.6-2.1,0.5c-1.2-0.1-2.1-0.6-2.9-1.5c-0.7-0.9-1-2.1-0.9-3.7
		l12.9,1.1c0.4-3.9-0.2-6.9-1.7-9c-1.5-2-3.7-3.2-6.6-3.4c-2.6-0.2-4.8,0.5-6.6,2.2c-1.8,1.7-2.9,4.1-3.2,7.3
		c-0.2,2.7,0.2,5,1.4,6.9c1.4,2.3,3.8,3.7,7.2,3.9c2.1,0.2,3.9-0.2,5.5-1c1.5-0.9,2.7-2.2,3.5-4l-5-1.3
		C1756,218.6,1755.5,219.3,1755,219.7 M1735.7,202.6l-1.5,18.5c-0.1,1.6-0.3,2.5-0.4,2.8c-0.1,0.3-0.4,0.6-0.7,0.8
		c-0.4,0.2-0.8,0.3-1.3,0.2c-0.2,0-0.4,0-0.6-0.1c-0.2,0-0.4-0.1-0.7-0.2l-1.3,4.3c0.7,0.2,1.3,0.4,1.9,0.6c0.6,0.1,1.1,0.2,1.6,0.3
		c1.4,0.1,2.6-0.1,3.6-0.6c1-0.5,1.7-1.2,2.1-2.2c0.4-1,0.7-2.7,0.9-5.2l1.6-18.8L1735.7,202.6z M1741.1,200.4l0.4-4.8l-5.1-0.4
		l-0.4,4.8L1741.1,200.4z M1718,206.5c1-0.9,2.2-1.4,3.5-1.3c1.3,0.1,2.4,0.7,3.2,1.8c0.8,1.1,1.2,2.6,1,4.5c-0.2,2-0.7,3.4-1.7,4.3
		c-1,0.9-2.2,1.4-3.5,1.3c-1.3-0.1-2.4-0.7-3.3-1.8c-0.8-1.1-1.2-2.6-1-4.5C1716.4,208.8,1717,207.4,1718,206.5 M1711.8,215.8
		c0.7,1.6,1.8,2.9,3.4,3.8c1.5,0.9,3.2,1.5,5,1.6c2.9,0.2,5.3-0.5,7.4-2.3c2.1-1.8,3.2-4.1,3.4-7.1c0.2-2.9-0.5-5.4-2.2-7.5
		c-1.7-2.1-4-3.2-7-3.5c-1.9-0.2-3.7,0.1-5.3,0.8c-1.6,0.7-2.9,1.8-3.9,3.4c-1,1.5-1.5,3.1-1.7,4.8
		C1710.8,212.3,1711.1,214.2,1711.8,215.8 M1702.2,213.3c0.3-3.3,0.6-5.5,1-6.5c0.4-1,0.8-1.7,1.4-2.1c0.5-0.4,1.2-0.5,1.9-0.4
		c0.7,0.1,1.5,0.4,2.3,1l2-4.3c-1-0.7-2.1-1.2-3.3-1.2c-0.8-0.1-1.6,0.1-2.3,0.4c-0.7,0.4-1.5,1.2-2.4,2.4l0.2-2.8l-4.8-0.4
		l-1.6,19.4l5.1,0.4L1702.2,213.3z M1681.3,203.2c0.9-0.9,2-1.3,3.2-1.2c1.2,0.1,2.2,0.7,2.9,1.7c0.7,1.1,1,2.6,0.8,4.6
		c-0.2,2.2-0.7,3.7-1.6,4.6c-0.9,0.9-1.9,1.3-3.1,1.2c-1.2-0.1-2.3-0.7-3-1.8c-0.8-1.1-1.1-2.8-0.9-4.9
		C1679.9,205.5,1680.4,204.1,1681.3,203.2 M1673.2,224.4l5.1,0.4l0.8-9.8c0.9,1.1,1.7,1.9,2.6,2.4c0.8,0.5,1.8,0.8,2.9,0.9
		c2.3,0.2,4.2-0.6,6-2.2c1.7-1.7,2.7-4.1,3-7.4c0.3-3.2-0.3-5.7-1.7-7.6c-1.4-1.9-3.3-2.9-5.5-3.1c-1.3-0.1-2.5,0.1-3.6,0.6
		c-1.1,0.5-2,1.2-2.7,2.2l0.2-2.9l-4.8-0.4L1673.2,224.4z M1650.1,199.6l2.8,0.2l-1.3,15.4l5.1,0.4l1.3-15.4l3.8,0.3l0.3-4l-3.8-0.3
		l0.1-1.4c0.1-1,0.3-1.6,0.6-2c0.4-0.3,0.9-0.5,1.6-0.4c0.8,0.1,1.5,0.2,2.3,0.5l1-3.5c-1.4-0.6-2.8-0.9-4.2-1
		c-1.4-0.1-2.6,0-3.6,0.5s-1.7,1-2.1,1.8c-0.4,0.8-0.7,2-0.8,3.6l-0.1,1.5l-2.9-0.2L1650.1,199.6z M1634.8,199.6
		c1-0.9,2.2-1.4,3.5-1.3c1.3,0.1,2.4,0.7,3.2,1.8c0.8,1.1,1.2,2.6,1,4.5c-0.2,2-0.7,3.4-1.7,4.3c-1,0.9-2.2,1.4-3.5,1.3
		c-1.3-0.1-2.4-0.7-3.3-1.8c-0.8-1.1-1.2-2.6-1-4.5C1633.2,201.9,1633.8,200.5,1634.8,199.6 M1628.6,208.9c0.7,1.6,1.8,2.9,3.4,3.8
		c1.5,0.9,3.2,1.5,5,1.6c2.9,0.2,5.3-0.5,7.4-2.3c2.1-1.8,3.2-4.1,3.4-7.1c0.2-2.9-0.5-5.4-2.2-7.5c-1.7-2.1-4-3.2-7-3.5
		c-1.9-0.2-3.7,0.1-5.3,0.8c-1.6,0.7-2.9,1.8-3.9,3.4c-1,1.5-1.5,3.1-1.7,4.8C1627.7,205.4,1627.9,207.3,1628.6,208.9 M1612.5,211.9
		l2.2-26.8l-5.1-0.4l-2.2,26.8L1612.5,211.9z M1598,202.4c-0.1,1.2-0.2,2.1-0.4,2.5c-0.2,0.7-0.7,1.2-1.4,1.6
		c-0.9,0.5-1.8,0.8-2.7,0.7c-0.8-0.1-1.5-0.4-2-1c-0.5-0.6-0.7-1.2-0.6-1.9c0.1-0.7,0.4-1.3,1.2-1.7c0.5-0.3,1.4-0.5,2.9-0.7
		c1.5-0.2,2.5-0.4,3.2-0.5L1598,202.4z M1592.9,194.8c0.5-0.3,1.3-0.4,2.2-0.4c1.4,0.1,2.3,0.4,2.7,0.9c0.5,0.5,0.6,1.2,0.6,2.2
		l0,0.5c-1,0.3-2.7,0.6-5.1,0.8c-1.8,0.2-3.2,0.5-4.2,0.9c-1,0.4-1.8,1-2.4,1.8c-0.6,0.8-0.9,1.8-1,2.9c-0.1,1.7,0.3,3.1,1.4,4.3
		c1.1,1.2,2.6,1.9,4.6,2c1.1,0.1,2.2,0,3.3-0.4c1-0.3,2-0.9,3-1.7c0,0.1,0.1,0.3,0.1,0.6c0.1,0.7,0.3,1.2,0.4,1.6l5.1,0.4
		c-0.4-1-0.6-1.9-0.7-2.7c-0.1-0.8-0.1-2.1,0.1-3.8l0.6-6c0.2-2.2,0.1-3.8-0.3-4.7c-0.4-0.9-1.1-1.6-2.2-2.3c-1.1-0.6-2.8-1-5.1-1.2
		c-2.5-0.2-4.5,0.1-5.8,0.9c-1.4,0.8-2.4,2.1-3.1,3.9l4.6,1.2C1591.9,195.7,1592.4,195.1,1592.9,194.8 M1575.7,208.9l9.3-18.8
		l-5.3-0.4l-4.5,9.6c-0.2,0.5-0.5,1.1-0.7,1.6c-0.1,0.3-0.3,0.8-0.7,1.6l-0.8-3.4l-2.8-10.2l-5.4-0.4l6.2,20.1L1575.7,208.9z
		 M1560.5,207.6l1.6-19.4l-5.1-0.4l-1.6,19.4L1560.5,207.6z M1562.3,185.6l0.4-4.8l-5.1-0.4l-0.4,4.8L1562.3,185.6z M1549.9,187.2
		l0.6-6.9l-5.4,2.6l-0.3,3.9l-2.4-0.2l-0.3,4.1l2.4,0.2l-0.7,8.5c-0.1,1.8-0.2,3-0.1,3.6c0.1,0.9,0.2,1.5,0.6,2.1
		c0.3,0.5,0.8,1,1.5,1.3c0.7,0.4,1.5,0.6,2.5,0.7c1.5,0.1,2.9,0,4.1-0.4l-0.1-4c-0.9,0.3-1.6,0.4-2.1,0.3c-0.3,0-0.6-0.1-0.8-0.3
		c-0.2-0.2-0.4-0.4-0.4-0.7c0-0.3,0-1.2,0.1-2.8l0.7-7.8l3.5,0.3l0.3-4.1L1549.9,187.2z M1523.4,203.3c1.5,1.2,3.5,1.9,6.1,2.1
		c2.9,0.2,5.2-0.2,6.8-1.4c1.6-1.2,2.5-2.6,2.6-4.4c0.1-1.6-0.3-2.9-1.3-4c-1-1-2.9-1.9-5.5-2.8c-2.7-0.9-4.2-1.5-4.7-1.8
		c-0.3-0.3-0.5-0.6-0.4-1c0-0.4,0.3-0.8,0.7-1c0.6-0.3,1.6-0.4,3-0.3c1.1,0.1,1.9,0.4,2.4,0.8c0.5,0.4,0.9,1.1,1,1.8l4.9-0.5
		c-0.3-1.7-1.1-3.1-2.3-4.1c-1.2-1-3.2-1.6-5.8-1.8c-2.8-0.2-4.9,0.2-6.3,1.2c-1.4,1-2.2,2.4-2.3,4.1c-0.2,1.9,0.5,3.4,1.9,4.6
		c1,0.8,3.6,1.9,7.7,3.2c0.9,0.3,1.4,0.6,1.7,0.8c0.2,0.3,0.3,0.6,0.3,1c0,0.6-0.3,1-0.8,1.3c-0.7,0.4-1.7,0.6-3.1,0.5
		c-1.2-0.1-2.1-0.4-2.7-1c-0.6-0.6-1-1.4-1.1-2.4l-5.2,0.4C1521.1,200.6,1521.9,202.1,1523.4,203.3 M1506.1,191.6
		c0.1-1.4,0.6-2.5,1.4-3.2s1.8-1.1,2.9-1c1,0.1,1.9,0.5,2.6,1.4c0.7,0.8,1,2,0.9,3.5L1506.1,191.6z M1511.6,199.5
		c-0.6,0.4-1.3,0.6-2.1,0.5c-1.2-0.1-2.1-0.6-2.9-1.5c-0.7-0.9-1-2.1-0.9-3.7l12.9,1.1c0.4-3.9-0.2-6.9-1.7-9
		c-1.5-2-3.7-3.2-6.6-3.4c-2.6-0.2-4.8,0.5-6.6,2.2c-1.8,1.7-2.9,4.1-3.2,7.3c-0.2,2.7,0.2,5,1.4,6.8c1.4,2.3,3.8,3.7,7.2,3.9
		c2.1,0.2,3.9-0.2,5.5-1c1.5-0.9,2.7-2.2,3.5-4l-5-1.3C1512.7,198.4,1512.2,199.1,1511.6,199.5 M1487.8,186.1l2.9,0.2l-1.3,15.4
		l5.1,0.4l1.3-15.4l3.8,0.3l0.3-4l-3.8-0.3l0.1-1.4c0.1-1,0.3-1.6,0.6-2c0.4-0.3,0.9-0.5,1.6-0.4c0.8,0.1,1.5,0.2,2.3,0.5l1-3.5
		c-1.4-0.6-2.8-0.9-4.2-1c-1.4-0.1-2.6,0-3.6,0.5c-1,0.4-1.7,1-2.1,1.8c-0.4,0.8-0.7,2-0.8,3.6l-0.1,1.5l-2.9-0.2L1487.8,186.1z
		 M1462.4,188c0.1-1.4,0.6-2.5,1.4-3.2c0.8-0.8,1.8-1.1,2.9-1c1,0.1,1.9,0.5,2.6,1.4c0.7,0.8,1,2,0.9,3.5L1462.4,188z M1467.9,195.8
		c-0.6,0.4-1.3,0.6-2.1,0.5c-1.2-0.1-2.1-0.6-2.9-1.5c-0.7-0.9-1-2.1-0.9-3.7l12.9,1.1c0.4-3.9-0.2-6.9-1.7-9
		c-1.5-2-3.7-3.2-6.6-3.4c-2.6-0.2-4.8,0.5-6.6,2.2c-1.8,1.7-2.9,4.1-3.2,7.3c-0.2,2.7,0.2,5,1.4,6.8c1.4,2.3,3.8,3.7,7.2,3.9
		c2.1,0.2,3.9-0.2,5.5-1c1.5-0.9,2.7-2.2,3.5-4l-5-1.3C1469,194.8,1468.5,195.4,1467.9,195.8 M1436.9,170.4l-2.2,26.8l5.1,0.4
		l0.8-9.7c0.1-1.6,0.4-2.9,0.8-3.7c0.4-0.8,0.9-1.4,1.6-1.7c0.7-0.4,1.5-0.5,2.3-0.4c0.7,0.1,1.3,0.3,1.8,0.6
		c0.5,0.4,0.8,0.8,0.9,1.4c0.1,0.6,0.1,1.9,0,3.9l-0.9,10.3l5.1,0.4l0.9-11.4c0.1-1.7,0.2-3,0.1-3.9c-0.1-0.8-0.4-1.6-0.8-2.3
		c-0.4-0.7-1.1-1.3-2-1.9c-0.9-0.5-2-0.8-3.1-0.9c-2.3-0.2-4.4,0.6-6.2,2.4l0.8-9.9L1436.9,170.4z M1423.3,196.2l1.8-22.3l7.9,0.7
		l0.4-4.5l-21.3-1.8l-0.4,4.5l8,0.7l-1.8,22.3L1423.3,196.2z"/>
	
		<path style="clip-path:url(#SVGID_00000115508446481064762360000012033401678171950240_);fill:none;stroke:#FFFFFF;stroke-width:2.3186;" d="
		M1102,109.6c0,0,402.1-128.8,582.9,30.1"/>
	<path style="clip-path:url(#SVGID_00000115508446481064762360000012033401678171950240_);fill:#FFFFFF;" d="M1102,114.3
		c2.6,0,4.6-2.1,4.6-4.6c0-2.6-2.1-4.6-4.6-4.6c-2.6,0-4.6,2.1-4.6,4.6C1097.4,112.2,1099.5,114.3,1102,114.3"/>
	<path style="clip-path:url(#SVGID_00000115508446481064762360000012033401678171950240_);fill:#FFFFFF;" d="M1684.9,144.3
		c2.6,0,4.6-2.1,4.6-4.6c0-2.6-2.1-4.6-4.6-4.6c-2.6,0-4.6,2.1-4.6,4.6C1680.3,142.2,1682.3,144.3,1684.9,144.3"/>
	
		<path style="clip-path:url(#SVGID_00000115508446481064762360000012033401678171950240_);fill:none;stroke:#FFFFFF;stroke-width:2.3186;" d="
		M1687.2,254.9c0,0-202.5,337.4-585.5,227.9"/>
	<path style="clip-path:url(#SVGID_00000115508446481064762360000012033401678171950240_);fill:#FFFFFF;" d="M1687.2,259.5
		c2.6,0,4.6-2.1,4.6-4.6c0-2.6-2.1-4.6-4.6-4.6c-2.6,0-4.6,2.1-4.6,4.6C1682.6,257.4,1684.7,259.5,1687.2,259.5"/>
	<path style="clip-path:url(#SVGID_00000115508446481064762360000012033401678171950240_);fill:#FFFFFF;" d="M1101.7,487.4
		c2.6,0,4.6-2.1,4.6-4.6s-2.1-4.6-4.6-4.6s-4.6,2.1-4.6,4.6S1099.2,487.4,1101.7,487.4"/>
	
		<path style="clip-path:url(#SVGID_00000115508446481064762360000012033401678171950240_);fill:none;stroke:#FFFFFF;stroke-width:2.3186;" d="
		M822.8,549.5c0,0-409.6,309.5-644.7,15.2"/>
	<path style="clip-path:url(#SVGID_00000115508446481064762360000012033401678171950240_);fill:#FFFFFF;" d="M822.8,554.1
		c2.6,0,4.6-2.1,4.6-4.6s-2.1-4.6-4.6-4.6c-2.6,0-4.6,2.1-4.6,4.6S820.3,554.1,822.8,554.1"/>
	<path style="clip-path:url(#SVGID_00000115508446481064762360000012033401678171950240_);fill:#FFFFFF;" d="M178.1,569.4
		c2.6,0,4.6-2.1,4.6-4.6c0-2.6-2.1-4.6-4.6-4.6s-4.6,2.1-4.6,4.6C173.5,567.3,175.5,569.4,178.1,569.4"/>
	
		<path style="clip-path:url(#SVGID_00000115508446481064762360000012033401678171950240_);fill:none;stroke:#FFFFFF;stroke-width:2.3186;" d="
		M1122.5,567.7c0,0,388.6-136.9-11.8-412.6"/>
	<path style="clip-path:url(#SVGID_00000115508446481064762360000012033401678171950240_);fill:#FFFFFF;" d="M1122.5,572.3
		c2.6,0,4.6-2.1,4.6-4.6c0-2.6-2.1-4.6-4.6-4.6s-4.6,2.1-4.6,4.6C1117.8,570.3,1119.9,572.3,1122.5,572.3"/>
	<path style="clip-path:url(#SVGID_00000115508446481064762360000012033401678171950240_);fill:#FFFFFF;" d="M1110.7,159.7
		c2.6,0,4.6-2.1,4.6-4.6c0-2.6-2.1-4.6-4.6-4.6s-4.6,2.1-4.6,4.6C1106,157.7,1108.1,159.7,1110.7,159.7"/>
	
		<path style="clip-path:url(#SVGID_00000115508446481064762360000012033401678171950240_);fill:none;stroke:#FFFFFF;stroke-width:2.3186;" d="
		M755.9,133.2c0,0,188.1,122.4,133.4,278.5"/>
	<path style="clip-path:url(#SVGID_00000115508446481064762360000012033401678171950240_);fill:#FFFFFF;" d="M755.9,137.8
		c2.6,0,4.6-2.1,4.6-4.6c0-2.6-2.1-4.6-4.6-4.6s-4.6,2.1-4.6,4.6C751.3,135.7,753.4,137.8,755.9,137.8"/>
	<path style="clip-path:url(#SVGID_00000115508446481064762360000012033401678171950240_);fill:#FFFFFF;" d="M889.3,416.3
		c2.6,0,4.6-2.1,4.6-4.6c0-2.6-2.1-4.6-4.6-4.6s-4.6,2.1-4.6,4.6C884.7,414.3,886.8,416.3,889.3,416.3"/>
	
		<path style="clip-path:url(#SVGID_00000115508446481064762360000012033401678171950240_);fill:none;stroke:#FFFFFF;stroke-width:2.3186;" d="
		M496.2,292.5c0,0,598.9,114.6,867.2-104.5"/>
	<path style="clip-path:url(#SVGID_00000115508446481064762360000012033401678171950240_);fill:#FFFFFF;" d="M496.2,297.2
		c2.6,0,4.6-2.1,4.6-4.6c0-2.6-2.1-4.6-4.6-4.6c-2.6,0-4.6,2.1-4.6,4.6C491.5,295.1,493.6,297.2,496.2,297.2"/>
	<path style="clip-path:url(#SVGID_00000115508446481064762360000012033401678171950240_);fill:#FFFFFF;" d="M1363.4,192.7
		c2.6,0,4.6-2.1,4.6-4.6c0-2.6-2.1-4.6-4.6-4.6c-2.6,0-4.6,2.1-4.6,4.6C1358.8,190.6,1360.8,192.7,1363.4,192.7"/>
	
		<path style="clip-path:url(#SVGID_00000115508446481064762360000012033401678171950240_);fill:none;stroke:#FFFFFF;stroke-width:2.3186;" d="
		M1744,141.5c0,0,185.8-105.5,202.2,52.2"/>
	<path style="clip-path:url(#SVGID_00000115508446481064762360000012033401678171950240_);fill:#FFFFFF;" d="M1744,146.1
		c2.6,0,4.6-2.1,4.6-4.6c0-2.6-2.1-4.6-4.6-4.6c-2.6,0-4.6,2.1-4.6,4.6C1739.4,144,1741.5,146.1,1744,146.1"/>
	<path style="clip-path:url(#SVGID_00000115508446481064762360000012033401678171950240_);fill:#FFFFFF;" d="M1946.3,198.4
		c2.6,0,4.6-2.1,4.6-4.6c0-2.6-2.1-4.6-4.6-4.6c-2.6,0-4.6,2.1-4.6,4.6C1941.6,196.3,1943.7,198.4,1946.3,198.4"/>
	
		<path style="clip-path:url(#SVGID_00000115508446481064762360000012033401678171950240_);fill:none;stroke:#FFFFFF;stroke-width:2.3186;" d="
		M1919.1,274.3c0,0-681.7,303.8-975-112.7"/>
	<path style="clip-path:url(#SVGID_00000115508446481064762360000012033401678171950240_);fill:#FFFFFF;" d="M1919.1,278.9
		c2.6,0,4.6-2.1,4.6-4.6c0-2.6-2.1-4.6-4.6-4.6c-2.6,0-4.6,2.1-4.6,4.6C1914.5,276.8,1916.6,278.9,1919.1,278.9"/>
	<path style="clip-path:url(#SVGID_00000115508446481064762360000012033401678171950240_);fill:#FFFFFF;" d="M944.2,166.2
		c2.6,0,4.6-2.1,4.6-4.6c0-2.6-2.1-4.6-4.6-4.6c-2.6,0-4.6,2.1-4.6,4.6C939.5,164.1,941.6,166.2,944.2,166.2"/>
	
		<path style="clip-path:url(#SVGID_00000115508446481064762360000012033401678171950240_);fill:none;stroke:#FFFFFF;stroke-width:2.3186;" d="
		M480.7,406.6c0,0,215.2-116.4,319.2,47.9"/>
	<path style="clip-path:url(#SVGID_00000115508446481064762360000012033401678171950240_);fill:#FFFFFF;" d="M480.7,411.3
		c2.6,0,4.6-2.1,4.6-4.6c0-2.6-2.1-4.6-4.6-4.6s-4.6,2.1-4.6,4.6C476.1,409.2,478.2,411.3,480.7,411.3"/>
	<path style="clip-path:url(#SVGID_00000115508446481064762360000012033401678171950240_);fill:#FFFFFF;" d="M800,459.2
		c2.6,0,4.6-2.1,4.6-4.6c0-2.6-2.1-4.6-4.6-4.6c-2.6,0-4.6,2.1-4.6,4.6C795.3,457.1,797.4,459.2,800,459.2"/>
	
		<path style="clip-path:url(#SVGID_00000115508446481064762360000012033401678171950240_);fill:none;stroke:#FFFFFF;stroke-width:2.3186;" d="
		M357.5,574.3c0,0,391.4,329.5,699.6,26.4"/>
	<path style="clip-path:url(#SVGID_00000115508446481064762360000012033401678171950240_);fill:#FFFFFF;" d="M357.5,578.9
		c2.6,0,4.6-2.1,4.6-4.6c0-2.6-2.1-4.6-4.6-4.6s-4.6,2.1-4.6,4.6C352.9,576.8,354.9,578.9,357.5,578.9"/>
	<path style="clip-path:url(#SVGID_00000115508446481064762360000012033401678171950240_);fill:#FFFFFF;" d="M1057.1,605.4
		c2.6,0,4.6-2.1,4.6-4.6c0-2.6-2.1-4.6-4.6-4.6s-4.6,2.1-4.6,4.6C1052.5,603.3,1054.6,605.4,1057.1,605.4"/>
	
		<path style="clip-path:url(#SVGID_00000115508446481064762360000012033401678171950240_);fill:none;stroke:#FFFFFF;stroke-width:2.3186;" d="
		M1144,365.4c0,0,136.9-141,345.4-125.7"/>
	<path style="clip-path:url(#SVGID_00000115508446481064762360000012033401678171950240_);fill:#FFFFFF;" d="M1144,370
		c2.6,0,4.6-2.1,4.6-4.6c0-2.6-2.1-4.6-4.6-4.6c-2.6,0-4.6,2.1-4.6,4.6C1139.3,368,1141.4,370,1144,370"/>
	<path style="clip-path:url(#SVGID_00000115508446481064762360000012033401678171950240_);fill:#FFFFFF;" d="M1489.4,244.3
		c2.6,0,4.6-2.1,4.6-4.6c0-2.6-2.1-4.6-4.6-4.6c-2.6,0-4.6,2.1-4.6,4.6C1484.7,242.3,1486.8,244.3,1489.4,244.3"/>
</g>
</svg>
