<?xml version="1.0" encoding="utf-8"?>
<!-- Generator: Adobe Illustrator 27.4.0, SVG Export Plug-In . SVG Version: 6.00 Build 0)  -->
<svg version="1.1" id="Ebene_1" xmlns="http://www.w3.org/2000/svg" xmlns:xlink="http://www.w3.org/1999/xlink" x="0px" y="0px"
	 viewBox="0 0 2000 1000" style="enable-background:new 0 0 2000 1000;" xml:space="preserve">
<style type="text/css">
	.st0{clip-path:url(#SVGID_00000142867869317252362310000006991975033959329458_);fill:#FFFFFF;}
	.st1{clip-path:url(#SVGID_00000142867869317252362310000006991975033959329458_);fill:none;stroke:#FFFFFF;stroke-width:2.2762;}
	.st2{fill:none;stroke:#FFFFFF;stroke-width:2.2762;}
	.st3{clip-path:url(#SVGID_00000009562460535071352210000006860403881545885582_);fill:none;stroke:#FFFFFF;stroke-width:2.2762;}
	.st4{clip-path:url(#SVGID_00000009562460535071352210000006860403881545885582_);fill:#FFFFFF;}
</style>
<g>
	<defs>
		<rect id="SVGID_1_" x="33.45" y="40.16" width="1815.31" height="923.35"/>
	</defs>
	<clipPath id="SVGID_00000044858752667080563040000012983056972654923408_">
		<use xlink:href="#SVGID_1_"  style="overflow:visible;"/>
	</clipPath>
	<path style="clip-path:url(#SVGID_00000044858752667080563040000012983056972654923408_);fill:#FFFFFF;" d="M407.66,604.03
		c0.75-2.98,0.75-7.45,0-10.44c-0.75-2.98,1.12-5.22,4.1-5.22c2.24,0,4.28,2.05,4.85,4.47c0.93,3.73,0.93,8.2,0,11.93
		c-0.56,2.42-2.61,4.47-4.85,4.47C408.78,609.25,406.91,607.02,407.66,604.03 M397.97,621.55c0-2.98,2.24-5.22,5.22-5.22
		s5.22,2.24,5.22,5.22c0,2.98-2.24,5.22-5.22,5.22S397.97,624.53,397.97,621.55 M368.15,630.31c0-2.98,2.24-4.85,5.22-4.1
		s7.45,0.75,10.44,0s5.22,1.12,5.22,4.1c0,2.24-2.05,4.29-4.47,4.85c-3.73,0.93-8.2,0.93-11.93,0
		C370.2,634.6,368.15,632.55,368.15,630.31 M347.65,523.15c0-2.79,2.24-4.85,5.22-4.85h19.38c2.98,0,5.22,2.05,5.22,4.85
		c0,2.8-2.24,4.85-5.22,4.85h-19.38C349.89,528,347.65,525.95,347.65,523.15 M339.64,598.82c0-2.98,2.24-5.22,5.22-5.22
		s5.22,2.24,5.22,5.22c0,2.98-2.24,5.22-5.22,5.22S339.64,601.8,339.64,598.82 M389.95,562.29c-0.93,1.31-2.42,2.24-4.28,2.24
		c-2.98,0-5.22-2.24-5.22-5.22s2.24-5.22,5.22-5.22c0.75,0,1.49,0.19,2.05,0.37c1.68,0.56,3.17,0.37,4.29-0.56l25.35-22.92V515.7
		h-75.29v14.91h51.81c1.49,0,2.61-0.93,2.61-2.24c0-2.98,2.24-5.22,5.22-5.22s5.22,2.24,5.22,5.22s-2.24,5.22-5.22,5.22h-3.73
		c-1.86,0-3.73,0.56-5.22,1.86l-30.56,27.58l9.69,11.18c2.24-1.12,5.22-1.49,7.45-1.49c13.42,0,25.35,9.69,25.35,25.35
		c0,14.35-10.81,25.35-25.72,25.35c-15.28,0-26.09-10.81-26.09-26.09v-9.32h-16.03v10.44c0,23.67,17.52,40.63,41.74,40.63
		c24.41,0,42.49-17.15,42.49-40.63c0-17.89-10.62-32.43-26.09-37.46C392.75,560.43,391.07,560.8,389.95,562.29 M309.45,558.56
		c0.75-2.98,0.75-7.45,0-10.44c-0.75-2.98,1.12-5.22,4.1-5.22c2.24,0,4.28,2.05,4.85,4.47c0.93,3.73,0.93,8.2,0,11.93
		c-0.56,2.42-2.61,4.47-4.85,4.47C310.57,563.78,308.7,561.54,309.45,558.56 M301.06,530.24c0-2.98,2.24-5.22,5.22-5.22
		c2.98,0,5.22,2.24,5.22,5.22s-2.24,5.22-5.22,5.22C303.3,535.45,301.06,533.22,301.06,530.24 M287.83,583.72
		c0-2.98,2.24-5.22,5.22-5.22c2.98,0,5.22,2.24,5.22,5.22c0,2.98-2.24,5.22-5.22,5.22C290.07,588.94,287.83,586.7,287.83,583.72
		 M287.27,629.01c0-2.8,2.24-4.85,5.22-4.85h19.38c2.98,0,5.22,2.05,5.22,4.85c0,2.79-2.24,4.85-5.22,4.85h-19.38
		C289.51,633.85,287.27,631.8,287.27,629.01 M273.48,522.22c0-2.24,2.05-4.29,4.47-4.85c3.73-0.93,8.2-0.93,11.93,0
		c2.42,0.56,4.47,2.61,4.47,4.85c0,2.98-2.24,4.85-5.22,4.1c-2.98-0.75-7.45-0.75-10.44,0
		C275.72,527.07,273.48,525.21,273.48,522.22 M260.06,605.15c-1.3-1.86-0.75-4.66,0.75-6.52c2.61-2.98,6.15-5.59,9.69-7.08
		c2.24-0.93,5.22-0.56,6.52,1.3c1.68,2.42,0.93,5.22-1.86,6.34c-2.8,1.12-6.52,3.73-8.39,6.15
		C264.72,607.76,261.93,607.58,260.06,605.15 M248.13,548.13c0-2.98,2.24-5.22,5.22-5.22c2.98,0,5.22,2.24,5.22,5.22
		c0,2.98-2.24,5.22-5.22,5.22C250.37,553.34,248.13,551.11,248.13,548.13 M267.7,621.18c-1.12,0-1.86,0.75-1.86,1.86
		c0,2.61-2.8,4.66-5.59,4.66c-2.98,0-5.22-2.24-5.22-5.22c0-2.98,2.24-5.22,5.22-5.22c1.12,0,2.05-0.75,2.42-1.86
		c3.73-10.06,15.65-15.1,30.19-23.3c11.93-6.71,29.44-15.65,29.44-40.25c0-23.11-16.03-38.39-38.39-38.39
		c-22.92,0-39.51,17.15-39.51,41c0,2.61,0.19,5.59,0.37,9.32l16.77-1.86c-0.56-2.98-0.75-5.4-0.75-7.45
		c0-14.72,9.88-25.72,23.48-25.72c13.23,0,22.74,10.25,22.74,24.6c0,16.4-12.67,21.62-19.01,24.97
		c-27.58,14.16-45.1,24.23-45.1,54.04v4.47h79.76v-15.65H267.7z M216.83,581.3c0.75-2.98,0.75-7.45,0-10.44
		c-0.75-2.98,1.12-5.22,4.1-5.22c2.24,0,4.28,2.05,4.85,4.47c0.93,3.73,0.93,8.2,0,11.93c-0.56,2.42-2.61,4.47-4.85,4.47
		C217.95,586.52,216.08,584.28,216.83,581.3 M205.27,614.47c0-2.98,2.24-5.22,5.22-5.22s5.22,2.24,5.22,5.22
		c0,2.98-2.24,5.22-5.22,5.22S205.27,617.45,205.27,614.47 M204.9,537.69c0-2.98,2.24-5.22,5.22-5.22c2.98,0,5.22,2.24,5.22,5.22
		c0,2.98-2.24,5.22-5.22,5.22C207.14,542.91,204.9,540.67,204.9,537.69 M168.37,522.22c0-2.24,2.05-4.29,4.47-4.85
		c3.73-0.93,8.2-0.93,11.93,0c2.42,0.56,4.47,2.61,4.47,4.85c0,2.98-2.24,4.85-5.22,4.1c-2.98-0.75-7.45-0.75-10.44,0
		C170.61,527.07,168.37,525.21,168.37,522.22 M168.37,630.31c0-2.98,2.24-4.85,5.22-4.1c2.98,0.75,7.45,0.75,10.44,0
		s5.22,1.12,5.22,4.1c0,2.24-2.05,4.29-4.47,4.85c-3.73,0.93-8.2,0.93-11.93,0C170.42,634.6,168.37,632.55,168.37,630.31
		 M143.78,576.08c0-27.39,14.72-47.34,35.04-47.34s35.04,19.94,35.04,47.34c0,27.4-14.72,47.34-35.04,47.34
		S143.78,603.48,143.78,576.08 M142.28,537.69c0-2.98,2.24-5.22,5.22-5.22c2.98,0,5.22,2.24,5.22,5.22c0,2.98-2.24,5.22-5.22,5.22
		C144.52,542.91,142.28,540.67,142.28,537.69 M141.91,614.84c0-2.98,2.24-5.22,5.22-5.22s5.22,2.24,5.22,5.22s-2.24,5.22-5.22,5.22
		S141.91,617.83,141.91,614.84 M131.85,582.04c-0.93-3.73-0.93-8.2,0-11.93c0.56-2.42,2.61-4.47,4.85-4.47
		c2.98,0,4.85,2.24,4.1,5.22c-0.75,2.98-0.75,7.45,0,10.44c0.75,2.98-1.12,5.22-4.1,5.22C134.46,586.52,132.41,584.47,131.85,582.04
		 M178.81,639.07c29.82,0,51.44-26.46,51.44-62.8c0-36.34-21.62-62.8-51.44-62.8s-51.44,26.46-51.44,62.8
		C127.38,612.61,148.99,639.07,178.81,639.07 M99.98,558.56c0.75-2.98,0.75-7.45,0-10.44c-0.75-2.98,1.12-5.22,4.1-5.22
		c2.24,0,4.28,2.05,4.85,4.47c0.93,3.73,0.93,8.2,0,11.93c-0.56,2.42-2.61,4.47-4.85,4.47C101.1,563.78,99.24,561.54,99.98,558.56
		 M91.59,530.24c0-2.98,2.24-5.22,5.22-5.22c2.98,0,5.22,2.24,5.22,5.22s-2.24,5.22-5.22,5.22
		C93.83,535.45,91.59,533.22,91.59,530.24 M78.36,583.72c0-2.98,2.24-5.22,5.22-5.22c2.98,0,5.22,2.24,5.22,5.22
		c0,2.98-2.24,5.22-5.22,5.22C80.6,588.94,78.36,586.7,78.36,583.72 M77.8,629.01c0-2.8,2.24-4.85,5.22-4.85h19.38
		c2.98,0,5.22,2.05,5.22,4.85c0,2.79-2.24,4.85-5.22,4.85H83.02C80.04,633.85,77.8,631.8,77.8,629.01 M64.01,522.22
		c0-2.24,2.05-4.29,4.47-4.85c3.73-0.93,8.2-0.93,11.93,0c2.42,0.56,4.47,2.61,4.47,4.85c0,2.98-2.24,4.85-5.22,4.1
		c-2.98-0.75-7.45-0.75-10.44,0C66.25,527.07,64.01,525.21,64.01,522.22 M50.6,605.15c-1.31-1.86-0.75-4.66,0.75-6.52
		c2.61-2.98,6.15-5.59,9.69-7.08c2.24-0.93,5.22-0.56,6.52,1.3c1.68,2.42,0.93,5.22-1.86,6.34c-2.8,1.12-6.52,3.73-8.38,6.15
		C55.26,607.76,52.46,607.58,50.6,605.15 M38.67,548.13c0-2.98,2.24-5.22,5.22-5.22s5.22,2.24,5.22,5.22c0,2.98-2.24,5.22-5.22,5.22
		S38.67,551.11,38.67,548.13 M58.24,621.18c-1.12,0-1.86,0.75-1.86,1.86c0,2.61-2.79,4.66-5.59,4.66c-2.98,0-5.22-2.24-5.22-5.22
		c0-2.98,2.24-5.22,5.22-5.22c1.12,0,2.05-0.75,2.42-1.86c3.73-10.06,15.65-15.1,30.19-23.3c11.93-6.71,29.44-15.65,29.44-40.25
		c0-23.11-16.03-38.39-38.39-38.39c-22.92,0-39.51,17.15-39.51,41c0,2.61,0.18,5.59,0.37,9.32l16.77-1.86
		c-0.56-2.98-0.75-5.4-0.75-7.45c0-14.72,9.88-25.72,23.48-25.72c13.23,0,22.74,10.25,22.74,24.6c0,16.4-12.67,21.62-19.01,24.97
		c-27.58,14.16-45.1,24.23-45.1,54.04v4.47h79.76v-15.65H58.24z"/>
	<path style="clip-path:url(#SVGID_00000044858752667080563040000012983056972654923408_);fill:#FFFFFF;" d="M499.71,461.18
		c-1.86-2.42-1.49-5.4,0.75-7.08c2.24-1.68,5.22-1.12,7.08,1.31l6.52,9.13c1.68,2.42,1.49,5.4-0.93,7.08
		c-2.24,1.68-5.22,0.93-6.9-1.31L499.71,461.18z M492.63,381.04l10.99-16.03c1.68-2.42,4.66-2.98,7.08-1.49
		c2.24,1.68,2.61,4.66,0.93,7.08l-11.18,15.84c-1.68,2.42-4.66,3.17-6.9,1.49C491.14,386.45,490.77,383.47,492.63,381.04
		 M434.3,370.61c-1.68-2.42-1.3-5.59,0.93-7.08c2.24-1.68,5.22-1.12,7.08,1.31l11.37,15.65c1.68,2.42,1.31,5.4-0.93,7.08
		c-2.24,1.68-5.22,1.12-6.9-1.31L434.3,370.61z M433.37,464.53l6.52-9.13c1.86-2.42,4.85-2.98,7.08-1.31
		c2.24,1.68,2.61,4.66,0.75,7.08l-6.52,9.13c-1.68,2.24-4.66,2.98-6.9,1.31C431.88,469.93,431.69,466.95,433.37,464.53
		 M419.58,478.32h20.13l29.44-42.49c2.05-2.98-0.75-4.66-0.75-8.01c0-2.98,2.24-5.22,5.22-5.22s5.22,2.24,5.22,5.22
		c0,3.35-3.17,5.4-1.12,8.2l30.56,42.3h19.38l-44.73-61.87l41.74-59.26H505.3l-27.58,39.88c-2.05,2.8,1.12,4.85,1.12,8.2
		c0,2.98-2.24,5.22-5.22,5.22s-5.22-2.24-5.22-5.22c0-3.35,2.98-5.4,0.75-8.38l-28.7-39.7H420.7l42.86,59.26L419.58,478.32z
		 M396.1,470.49c0-2.98,2.24-5.22,5.22-5.22c2.98,0,5.22,2.24,5.22,5.22c0,2.98-2.24,5.22-5.22,5.22
		C398.34,475.71,396.1,473.48,396.1,470.49 M394.61,364.64c0-2.98,2.24-5.22,5.22-5.22s5.22,2.24,5.22,5.22s-2.24,5.22-5.22,5.22
		S394.61,367.62,394.61,364.64 M374.48,416.45c0-2.79,2.24-4.85,5.22-4.85h11.18c2.98,0,5.22,2.05,5.22,4.85
		c0,2.8-2.24,4.85-5.22,4.85H379.7C376.72,421.3,374.48,419.25,374.48,416.45 M360.32,364.64c0-2.79,2.24-4.85,5.22-4.85h11.18
		c2.98,0,5.22,2.05,5.22,4.85c0,2.8-2.24,4.85-5.22,4.85h-11.18C362.56,369.49,360.32,367.44,360.32,364.64 M356.59,470.49
		c0-2.8,2.24-4.85,5.22-4.85h19.38c2.98,0,5.22,2.05,5.22,4.85c0,2.79-2.24,4.85-5.22,4.85h-19.38
		C358.83,475.34,356.59,473.29,356.59,470.49 M327.89,478.32h84.23v-15.28h-60.57c-1.49,0-2.8,0.93-3.35,2.42
		c-0.75,1.68-2.61,2.8-4.66,2.8c-2.98,0-5.22-2.24-5.22-5.22c0-2.05,1.12-3.91,2.8-4.66c1.49-0.56,2.42-1.86,2.42-3.35v-23.11
		c0-1.49-0.93-2.8-2.42-3.35c-1.68-0.75-2.8-2.61-2.8-4.66c0-2.98,2.24-5.22,5.22-5.22c2.05,0,3.92,1.12,4.66,2.8
		c0.56,1.49,1.86,2.42,3.35,2.42h50.13V409h-50.13c-1.49,0-2.8,0.93-3.35,2.42c-0.75,1.68-2.61,2.79-4.66,2.79
		c-2.98,0-5.22-2.24-5.22-5.22c0-2.05,1.12-3.91,2.8-4.66c1.49-0.56,2.42-1.86,2.42-3.35v-20.87c0-1.49-0.93-2.8-2.42-3.35
		c-1.68-0.75-2.8-2.61-2.8-4.66c0-2.98,2.24-5.22,5.22-5.22c2.05,0,3.92,1.12,4.66,2.8c0.56,1.49,1.86,2.42,3.35,2.42h59.07v-14.91
		h-82.74V478.32z M295.1,422.79c0.75-2.98,0.75-7.45,0-10.44s1.12-5.22,4.1-5.22c2.24,0,4.29,2.05,4.85,4.47
		c0.93,3.73,0.93,8.2,0,11.93c-0.56,2.42-2.61,4.47-4.85,4.47C296.21,428,294.35,425.77,295.1,422.79 M280.19,456.33
		c0-2.98,2.24-5.22,5.22-5.22s5.22,2.24,5.22,5.22c0,2.98-2.24,5.22-5.22,5.22S280.19,459.31,280.19,456.33 M279.44,378.81
		c0-2.98,2.24-5.22,5.22-5.22s5.22,2.24,5.22,5.22c0,2.98-2.24,5.22-5.22,5.22S279.44,381.79,279.44,378.81 M241.05,470.49
		c0-2.8,2.24-4.85,5.22-4.85h11.18c2.98,0,5.22,2.05,5.22,4.85c0,2.79-2.24,4.85-5.22,4.85h-11.18
		C243.29,475.34,241.05,473.29,241.05,470.49 M236.58,364.64c0-2.79,2.24-4.85,5.22-4.85h11.18c2.98,0,5.22,2.05,5.22,4.85
		c0,2.8-2.24,4.85-5.22,4.85H241.8C238.81,369.49,236.58,367.44,236.58,364.64 M214.59,463.04c0-2.05,1.12-3.91,2.8-4.66
		c1.49-0.56,2.42-1.86,2.42-3.35v-74.92c0-1.49-0.93-2.8-2.42-3.35c-1.68-0.75-2.8-2.61-2.8-4.66c0-2.98,2.24-5.22,5.22-5.22
		c2.05,0,3.92,1.12,4.66,2.8c0.56,1.49,1.86,2.42,3.35,2.42h21.06c25.16,0,43.24,19.2,43.24,45.84c0,26.09-17.15,45.1-41,45.1
		h-23.29c-1.49,0-2.8,0.93-3.35,2.42c-0.75,1.68-2.61,2.8-4.66,2.8C216.82,468.26,214.59,466.02,214.59,463.04 M207.14,429.87
		v-19.38c0-2.98,2.05-5.22,4.84-5.22c2.8,0,4.85,2.24,4.85,5.22v19.38c0,2.98-2.05,5.22-4.85,5.22
		C209.19,435.09,207.14,432.85,207.14,429.87 M204.15,478.32h48.45c32.99,0,55.91-26.46,55.91-60.75
		c0-36.15-25.53-60.38-58.89-60.38h-45.47V478.32z M166.14,379.18V368c0-2.98,2.05-5.22,4.85-5.22c2.79,0,4.85,2.24,4.85,5.22v11.18
		c0,2.98-2.05,5.22-4.85,5.22C168.19,384.4,166.14,382.16,166.14,379.18 M166.14,424.65v-19.38c0-2.98,2.05-5.22,4.85-5.22
		c2.79,0,4.85,2.24,4.85,5.22v19.38c0,2.98-2.05,5.22-4.85,5.22C168.19,429.87,166.14,427.63,166.14,424.65 M128.12,423.53
		c-1.68-2.42-1.31-5.4,1.12-7.08c2.24-1.49,5.22-0.75,6.89,1.68l6.15,9.32c1.68,2.42,1.3,5.4-1.12,7.08
		c-2.24,1.49-5.22,0.75-6.9-1.68L128.12,423.53z M111.53,398.19c0-2.98,2.24-5.22,5.22-5.22s5.22,2.24,5.22,5.22
		c0,2.98-2.24,5.22-5.22,5.22S111.53,401.17,111.53,398.19 M82.65,429.87v-19.38c0-2.98,2.05-5.22,4.85-5.22
		c2.79,0,4.85,2.24,4.85,5.22v19.38c0,2.98-2.05,5.22-4.85,5.22C84.7,435.09,82.65,432.85,82.65,429.87 M82.65,467.14v-11.18
		c0-2.98,2.05-5.22,4.85-5.22c2.79,0,4.85,2.24,4.85,5.22v11.18c0,2.98-2.05,5.22-4.85,5.22C84.7,472.36,82.65,470.12,82.65,467.14
		 M79.67,478.32h15.65v-92.43c0-1.49-0.93-2.61-2.24-2.61c-2.98,0-5.22-2.24-5.22-5.22c0-2.98,2.24-5.22,5.22-5.22
		s5.22,2.24,5.22,5.22v3.35c0,1.86,0.56,4.29,1.49,5.59l61.13,91.32h17.89V357.19h-15.65v90.94c0,1.49,0.93,2.61,2.24,2.61
		c2.98,0,5.22,2.24,5.22,5.22s-2.24,5.22-5.22,5.22s-5.22-2.24-5.22-5.22v-3.35c0-1.86-0.56-4.28-1.49-5.59l-59.26-89.83H79.67
		V478.32z M41.65,429.87v-19.38c0-2.98,2.05-5.22,4.85-5.22s4.85,2.24,4.85,5.22v19.38c0,2.98-2.05,5.22-4.85,5.22
		S41.65,432.85,41.65,429.87 M41.65,467.14v-11.18c0-2.98,2.05-5.22,4.85-5.22s4.85,2.24,4.85,5.22v11.18
		c0,2.98-2.05,5.22-4.85,5.22S41.65,470.12,41.65,467.14 M41.28,368c0-2.98,2.24-5.22,5.22-5.22s5.22,2.24,5.22,5.22
		s-2.24,5.22-5.22,5.22S41.28,370.98,41.28,368 M38.67,478.32h15.65V357.19H38.67V478.32z"/>
	<path style="clip-path:url(#SVGID_00000044858752667080563040000012983056972654923408_);fill:#FFFFFF;" d="M542.95,311.98
		c0-2.98,2.24-5.22,5.22-5.22c2.98,0,5.22,2.24,5.22,5.22c0,2.98-2.24,5.22-5.22,5.22C545.19,317.2,542.95,314.96,542.95,311.98
		 M541.46,206.13c0-2.98,2.24-5.22,5.22-5.22c2.98,0,5.22,2.24,5.22,5.22s-2.24,5.22-5.22,5.22
		C543.7,211.35,541.46,209.11,541.46,206.13 M521.33,257.94c0-2.79,2.24-4.85,5.22-4.85h11.18c2.98,0,5.22,2.05,5.22,4.85
		c0,2.8-2.24,4.85-5.22,4.85h-11.18C523.57,262.78,521.33,260.74,521.33,257.94 M507.17,206.13c0-2.79,2.24-4.85,5.22-4.85h11.18
		c2.98,0,5.22,2.05,5.22,4.85c0,2.8-2.24,4.85-5.22,4.85h-11.18C509.41,210.98,507.17,208.93,507.17,206.13 M503.44,311.98
		c0-2.8,2.24-4.85,5.22-4.85h19.38c2.98,0,5.22,2.05,5.22,4.85c0,2.79-2.24,4.85-5.22,4.85h-19.38
		C505.68,316.83,503.44,314.78,503.44,311.98 M474.74,319.81h84.24v-15.28h-60.57c-1.49,0-2.8,0.93-3.35,2.42
		c-0.75,1.68-2.61,2.8-4.66,2.8c-2.98,0-5.22-2.24-5.22-5.22c0-2.05,1.12-3.91,2.8-4.66c1.49-0.56,2.42-1.86,2.42-3.35v-23.11
		c0-1.49-0.93-2.8-2.42-3.35c-1.68-0.75-2.8-2.61-2.8-4.66c0-2.98,2.24-5.22,5.22-5.22c2.05,0,3.92,1.12,4.66,2.8
		c0.56,1.49,1.86,2.42,3.35,2.42h50.13v-14.91h-50.13c-1.49,0-2.8,0.93-3.35,2.42c-0.75,1.68-2.61,2.79-4.66,2.79
		c-2.98,0-5.22-2.24-5.22-5.22c0-2.05,1.12-3.91,2.8-4.66c1.49-0.56,2.42-1.86,2.42-3.35V221.6c0-1.49-0.93-2.8-2.42-3.35
		c-1.68-0.75-2.8-2.61-2.8-4.66c0-2.98,2.24-5.22,5.22-5.22c2.05,0,3.92,1.12,4.66,2.8c0.56,1.49,1.86,2.42,3.35,2.42h59.07v-14.91
		h-82.74V319.81z M433,296.33c0-2.98,2.24-5.22,5.22-5.22c2.98,0,5.22,2.24,5.22,5.22c0,2.98-2.24,5.22-5.22,5.22
		C435.24,301.55,433,299.31,433,296.33 M431.51,221.78c0-2.98,2.24-5.22,5.22-5.22c2.98,0,5.22,2.24,5.22,5.22s-2.24,5.22-5.22,5.22
		C433.75,227,431.51,224.77,431.51,221.78 M391.26,313.1c0-2.98,2.24-4.85,5.22-4.1c2.98,0.75,7.45,0.75,10.44,0
		c2.98-0.75,5.22,1.12,5.22,4.1c0,2.24-2.05,4.28-4.47,4.85c-3.73,0.93-8.2,0.93-11.93,0C393.31,317.39,391.26,315.34,391.26,313.1
		 M390.51,205.2c0-2.24,2.05-4.29,4.47-4.85c3.73-0.93,8.2-0.93,11.93,0c2.42,0.56,4.47,2.61,4.47,4.85c0,2.98-2.24,4.85-5.22,4.1
		c-2.98-0.75-7.45-0.75-10.44,0C392.75,210.04,390.51,208.18,390.51,205.2 M360.69,220.29c0-2.98,2.24-5.22,5.22-5.22
		c2.98,0,5.22,2.24,5.22,5.22c0,2.98-2.24,5.22-5.22,5.22C362.93,225.51,360.69,223.28,360.69,220.29 M360.69,297.82
		c0-2.98,2.24-5.22,5.22-5.22c2.98,0,5.22,2.24,5.22,5.22c0,2.98-2.24,5.22-5.22,5.22C362.93,303.04,360.69,300.8,360.69,297.82
		 M348.02,265.02c-0.93-3.73-0.93-8.2,0-11.93c0.56-2.42,2.61-4.47,4.85-4.47c2.98,0,4.85,2.24,4.1,5.22
		c-0.75,2.98-0.75,7.45,0,10.44s-1.12,5.22-4.1,5.22C350.63,269.49,348.58,267.44,348.02,265.02 M455.37,278.07l-17.52-5.22
		c-2.24,20.13-16.59,33.54-35.78,33.54c-24.23,0-41.74-19.75-41.74-47.15c0-27.58,17.15-47.52,40.63-47.52
		c17.7,0,32.8,13.42,35.78,32.05l17.15-5.96c-4.47-24.04-26.65-41.37-52.93-41.37c-33.36,0-57.4,26.46-57.4,62.8
		c0,36.34,24.6,62.8,58.52,62.8C429.65,322.05,450.89,304.53,455.37,278.07 M322.68,308.63c0-2.98,2.24-5.22,5.22-5.22
		s5.22,2.24,5.22,5.22c0,2.98-2.24,5.22-5.22,5.22S322.68,311.61,322.68,308.63 M295.84,238.93c-1.12-2.79,0-5.59,2.61-6.71
		c2.61-0.93,5.22,0.37,6.34,3.17l4.29,10.25c1.12,2.8,0,5.59-2.61,6.71s-5.22-0.18-6.34-2.98L295.84,238.93z M261.74,245.64
		l4.28-10.25c1.12-2.8,3.73-4.1,6.34-3.17c2.61,1.12,3.73,3.91,2.61,6.71l-4.28,10.44c-1.12,2.8-3.73,4.1-6.34,2.98
		C261.74,251.23,260.62,248.44,261.74,245.64 M260.06,272.1c0-2.98,2.24-5.22,5.22-5.22c1.12,0,2.24-0.75,2.61-1.68l14.35-38.58
		c0.56-1.3,0-2.79-0.93-3.73c-0.93-0.93-1.49-2.24-1.49-3.73c0-2.98,2.24-5.22,5.22-5.22c2.98,0,5.22,2.24,5.22,5.22
		c0,1.49-0.56,2.8-1.49,3.73c-0.93,0.93-1.49,2.42-0.93,3.73l14.72,38.58c0.37,0.93,1.49,1.68,2.61,1.68c2.98,0,5.22,2.24,5.22,5.22
		c0,2.98-2.24,5.22-5.22,5.22c-2.24,0-4.1-1.3-4.85-3.17c-0.37-1.12-1.49-2.05-2.61-2.05h-24.97c-1.12,0-2.24,0.93-2.61,2.05
		c-0.75,1.86-2.61,3.17-4.85,3.17C262.3,277.32,260.06,275.08,260.06,272.1 M237.51,308.63c0-2.98,2.24-5.22,5.22-5.22
		c2.98,0,5.22,2.24,5.22,5.22c0,2.98-2.24,5.22-5.22,5.22C239.75,313.85,237.51,311.61,237.51,308.63 M229.5,319.81h17.89
		l9.69-26.09c0.37-1.12,0.19-2.42-0.56-2.98c-1.49-0.93-2.42-2.61-2.42-4.47c0-2.98,2.24-5.22,5.22-5.22c2.42,0,4.47,1.49,5.03,3.73
		c0.18,1.3,1.12,2.24,2.24,2.24h37.46c1.12,0,2.05-0.93,2.24-2.24c0.56-2.24,2.61-3.73,5.03-3.73c2.98,0,5.22,2.24,5.22,5.22
		c0,1.86-0.93,3.54-2.42,4.47c-0.75,0.56-0.93,1.86-0.56,2.98l9.88,26.09h17.89l-47.71-121.13h-16.4L229.5,319.81z M221.3,243.03
		c0.75-2.98,0.75-7.45,0-10.44c-0.75-2.98,1.12-5.22,4.1-5.22c2.24,0,4.28,2.05,4.85,4.47c0.93,3.73,0.93,8.2,0,11.93
		c-0.56,2.42-2.61,4.47-4.85,4.47C222.42,248.25,220.55,246.01,221.3,243.03 M210.86,213.58c0-2.98,2.24-5.22,5.22-5.22
		c2.98,0,5.22,2.24,5.22,5.22c0,2.98-2.24,5.22-5.22,5.22C213.1,218.8,210.86,216.57,210.86,213.58 M209.37,261.67
		c0-2.98,2.24-5.22,5.22-5.22c2.98,0,5.22,2.24,5.22,5.22c0,2.98-2.24,5.22-5.22,5.22C211.61,266.88,209.37,264.65,209.37,261.67
		 M188.13,267.63c0-2.98,2.24-5.22,5.22-5.22c2.98,0,5.22,2.24,5.22,5.22s-2.24,5.22-5.22,5.22
		C190.36,272.85,188.13,270.61,188.13,267.63 M178.44,206.13c0-2.79,2.24-4.85,5.22-4.85h11.18c2.98,0,5.22,2.05,5.22,4.85
		c0,2.8-2.24,4.85-5.22,4.85h-11.18C180.67,210.98,178.44,208.93,178.44,206.13 M156.45,260.17c0-2.05,1.12-3.91,2.79-4.66
		c1.49-0.56,2.42-1.86,2.42-3.35V221.6c0-1.49-0.93-2.8-2.42-3.35c-1.68-0.75-2.79-2.61-2.79-4.66c0-2.98,2.24-5.22,5.22-5.22
		c2.05,0,3.91,1.12,4.66,2.8c0.56,1.49,1.86,2.42,3.35,2.42h26.65c12.67,0,21.99,9.69,21.99,23.3c0,13.6-9.32,23.29-21.99,23.29
		h-26.65c-1.49,0-2.79,0.93-3.35,2.42c-0.75,1.68-2.61,2.79-4.66,2.79C158.68,265.39,156.45,263.16,156.45,260.17 M148.99,308.63
		v-11.18c0-2.98,2.05-5.22,4.85-5.22c2.79,0,4.85,2.24,4.85,5.22v11.18c0,2.98-2.05,5.22-4.85,5.22
		C151.04,313.85,148.99,311.61,148.99,308.63 M146.01,319.81h15.65V283.1c0-1.49-0.93-2.79-2.42-3.35
		c-1.68-0.75-2.79-2.61-2.79-4.66c0-2.98,2.24-5.22,5.22-5.22c2.05,0,3.91,1.12,4.66,2.8c0.56,1.49,1.86,2.42,3.35,2.42h26.65
		c22.18,0,38.39-16.21,38.39-38.39c0-21.99-15.84-38.02-37.64-38.02h-51.06V319.81z M112.47,292.23c0.75-2.98,0.75-7.45,0-10.44
		s1.12-5.22,4.1-5.22c2.24,0,4.28,2.05,4.85,4.47c0.93,3.73,0.93,8.2,0,11.93c-0.56,2.42-2.61,4.47-4.85,4.47
		C113.59,297.45,111.72,295.21,112.47,292.23 M105.39,221.41c0-2.98,2.24-5.22,5.22-5.22c2.98,0,5.22,2.24,5.22,5.22
		s-2.24,5.22-5.22,5.22C107.62,226.63,105.39,224.39,105.39,221.41 M72.4,313.47c0-2.98,2.24-4.85,5.22-4.1
		c2.98,0.75,7.45,0.75,10.44,0c2.98-0.75,5.22,1.12,5.22,4.1c0,2.24-2.05,4.28-4.47,4.85c-3.73,0.93-8.2,0.93-11.93,0
		C74.45,317.76,72.4,315.71,72.4,313.47 M69.04,204.83c0-2.24,2.05-4.29,4.47-4.85c3.73-0.93,8.2-0.93,11.93,0
		c2.42,0.56,4.47,2.61,4.47,4.85c0,2.98-2.24,4.85-5.22,4.1c-2.98-0.75-7.45-0.75-10.44,0C71.28,209.67,69.04,207.81,69.04,204.83
		 M67.74,251.79c0.75-2.42,3.17-3.17,5.59-2.42l19.75,6.52c2.42,0.75,3.73,2.98,2.98,5.4c-0.75,2.24-3.17,3.17-5.59,2.42
		l-19.75-6.71C68.3,256.26,67,254.03,67.74,251.79 M43.89,234.08c-0.93-3.73-0.93-8.2,0-11.93c0.56-2.42,2.61-4.47,4.85-4.47
		c2.98,0,4.85,2.24,4.1,5.22c-0.75,2.98-0.75,7.45,0,10.44c0.75,2.98-1.12,5.22-4.1,5.22C46.5,238.56,44.45,236.51,43.89,234.08
		 M40.35,292.23c0-2.98,2.24-5.22,5.22-5.22s5.22,2.24,5.22,5.22s-2.24,5.22-5.22,5.22S40.35,295.21,40.35,292.23 M50.6,277.32
		l-17.15,4.47c1.49,23.85,21.81,40.25,49.2,40.25c26.28,0,43.98-14.35,43.98-35.04c0-41.18-71.19-32.98-71.19-58.89
		c0-10.06,11.18-16.77,23.85-16.77c14.91,0,24.23,9.69,25.72,22.36l17.15-4.85c-2.24-19.38-19.75-32.43-42.86-32.43
		c-22.74,0-40.63,12.67-40.63,32.43c0,39.32,70.82,29.26,70.82,58.14c0,11.55-11.55,19.75-26.46,19.75
		C64.57,306.76,51.34,294.46,50.6,277.32"/>
	<path style="clip-path:url(#SVGID_00000044858752667080563040000012983056972654923408_);fill:#FFFFFF;" d="M1176.93,47.62
		c0-2.79,2.24-4.85,5.22-4.85h11.18c2.98,0,5.22,2.05,5.22,4.85c0,2.8-2.24,4.85-5.22,4.85h-11.18
		C1179.17,52.46,1176.93,50.42,1176.93,47.62 M1148.23,112.84V93.46c0-2.98,2.05-5.22,4.85-5.22c2.79,0,4.85,2.24,4.85,5.22v19.38
		c0,2.98-2.05,5.22-4.85,5.22C1150.28,118.06,1148.23,115.83,1148.23,112.84 M1147.86,150.12c0-2.98,2.24-5.22,5.22-5.22
		c2.98,0,5.22,2.24,5.22,5.22s-2.24,5.22-5.22,5.22C1150.1,155.33,1147.86,153.1,1147.86,150.12 M1107.61,47.62
		c0-2.79,2.24-4.85,5.22-4.85h11.18c2.98,0,5.22,2.05,5.22,4.85c0,2.8-2.24,4.85-5.22,4.85h-11.18
		C1109.84,52.46,1107.61,50.42,1107.61,47.62 M1145.25,63.09v98.21h15.65V63.09c0-1.49-0.93-2.8-2.42-3.35
		c-1.68-0.75-2.79-2.61-2.79-4.66c0-2.98,2.24-5.22,5.22-5.22c2.05,0,3.91,1.12,4.66,2.8c0.56,1.49,1.86,2.42,3.35,2.42h35.22V40.16
		h-102.12v14.91h35.22c1.49,0,2.8-0.93,3.35-2.42c0.75-1.68,2.61-2.8,4.66-2.8c2.98,0,5.22,2.24,5.22,5.22
		c0,2.05-1.12,3.92-2.8,4.66C1146.18,60.29,1145.25,61.6,1145.25,63.09 M1076.3,62.15V50.97c0-2.98,2.05-5.22,4.85-5.22
		c2.79,0,4.85,2.24,4.85,5.22v11.18c0,2.98-2.05,5.22-4.85,5.22C1078.35,67.37,1076.3,65.14,1076.3,62.15 M1076.3,107.63V88.24
		c0-2.98,2.05-5.22,4.85-5.22c2.79,0,4.85,2.24,4.85,5.22v19.38c0,2.98-2.05,5.22-4.85,5.22
		C1078.35,112.84,1076.3,110.61,1076.3,107.63 M1038.28,106.51c-1.68-2.42-1.31-5.41,1.12-7.08c2.24-1.49,5.22-0.75,6.89,1.68
		l6.15,9.32c1.68,2.42,1.3,5.41-1.12,7.08c-2.24,1.49-5.22,0.75-6.9-1.68L1038.28,106.51z M1021.7,81.16c0-2.98,2.24-5.22,5.22-5.22
		c2.98,0,5.22,2.24,5.22,5.22c0,2.98-2.24,5.22-5.22,5.22C1023.93,86.38,1021.7,84.14,1021.7,81.16 M992.81,112.84V93.46
		c0-2.98,2.05-5.22,4.85-5.22c2.8,0,4.85,2.24,4.85,5.22v19.38c0,2.98-2.05,5.22-4.85,5.22
		C994.86,118.06,992.81,115.83,992.81,112.84 M992.81,150.12v-11.18c0-2.98,2.05-5.22,4.85-5.22c2.8,0,4.85,2.24,4.85,5.22v11.18
		c0,2.98-2.05,5.22-4.85,5.22C994.86,155.33,992.81,153.1,992.81,150.12 M989.83,161.3h15.65V68.86c0-1.49-0.93-2.61-2.24-2.61
		c-2.98,0-5.22-2.24-5.22-5.22c0-2.98,2.24-5.22,5.22-5.22c2.98,0,5.22,2.24,5.22,5.22v3.35c0,1.86,0.56,4.29,1.49,5.59l61.13,91.32
		h17.89V40.16h-15.65v90.94c0,1.49,0.93,2.61,2.24,2.61c2.98,0,5.22,2.24,5.22,5.22s-2.24,5.22-5.22,5.22s-5.22-2.24-5.22-5.22
		v-3.35c0-1.86-0.56-4.29-1.49-5.59l-59.26-89.83h-19.75V161.3z M955.17,153.47c0-2.98,2.24-5.22,5.22-5.22
		c2.98,0,5.22,2.24,5.22,5.22c0,2.98-2.24,5.22-5.22,5.22C957.4,158.69,955.17,156.45,955.17,153.47 M953.68,47.62
		c0-2.98,2.24-5.22,5.22-5.22c2.98,0,5.22,2.24,5.22,5.22s-2.24,5.22-5.22,5.22C955.91,52.84,953.68,50.6,953.68,47.62
		 M933.55,99.43c0-2.8,2.24-4.85,5.22-4.85h11.18c2.98,0,5.22,2.05,5.22,4.85c0,2.79-2.24,4.85-5.22,4.85h-11.18
		C935.79,104.27,933.55,102.22,933.55,99.43 M919.39,47.62c0-2.79,2.24-4.85,5.22-4.85h11.18c2.98,0,5.22,2.05,5.22,4.85
		c0,2.8-2.24,4.85-5.22,4.85H924.6C921.62,52.46,919.39,50.42,919.39,47.62 M915.66,153.47c0-2.8,2.24-4.85,5.22-4.85h19.38
		c2.98,0,5.22,2.05,5.22,4.85c0,2.79-2.24,4.85-5.22,4.85h-19.38C917.9,158.32,915.66,156.27,915.66,153.47 M886.96,161.3h84.24
		v-15.28h-60.57c-1.49,0-2.8,0.93-3.35,2.42c-0.75,1.68-2.61,2.8-4.66,2.8c-2.98,0-5.22-2.24-5.22-5.22c0-2.05,1.12-3.91,2.8-4.66
		c1.49-0.56,2.42-1.86,2.42-3.35v-23.11c0-1.49-0.93-2.79-2.42-3.35c-1.68-0.75-2.8-2.61-2.8-4.66c0-2.98,2.24-5.22,5.22-5.22
		c2.05,0,3.92,1.12,4.66,2.79c0.56,1.49,1.86,2.42,3.35,2.42h50.13V91.97h-50.13c-1.49,0-2.8,0.93-3.35,2.42
		c-0.75,1.68-2.61,2.8-4.66,2.8c-2.98,0-5.22-2.24-5.22-5.22c0-2.05,1.12-3.92,2.8-4.66c1.49-0.56,2.42-1.86,2.42-3.35V63.09
		c0-1.49-0.93-2.8-2.42-3.35c-1.68-0.75-2.8-2.61-2.8-4.66c0-2.98,2.24-5.22,5.22-5.22c2.05,0,3.92,1.12,4.66,2.8
		c0.56,1.49,1.86,2.42,3.35,2.42h59.07V40.16h-82.74V161.3z M854.16,105.76c0.75-2.98,0.75-7.45,0-10.44
		c-0.75-2.98,1.12-5.22,4.1-5.22c2.24,0,4.29,2.05,4.85,4.47c0.93,3.73,0.93,8.2,0,11.93c-0.56,2.42-2.61,4.47-4.85,4.47
		C855.28,110.98,853.42,108.74,854.16,105.76 M839.25,139.31c0-2.98,2.24-5.22,5.22-5.22c2.98,0,5.22,2.24,5.22,5.22
		c0,2.98-2.24,5.22-5.22,5.22C841.49,144.53,839.25,142.29,839.25,139.31 M838.51,61.78c0-2.98,2.24-5.22,5.22-5.22
		c2.98,0,5.22,2.24,5.22,5.22c0,2.98-2.24,5.22-5.22,5.22C840.75,67,838.51,64.76,838.51,61.78 M800.12,153.47
		c0-2.8,2.24-4.85,5.22-4.85h11.18c2.98,0,5.22,2.05,5.22,4.85c0,2.79-2.24,4.85-5.22,4.85h-11.18
		C802.36,158.32,800.12,156.27,800.12,153.47 M795.65,47.62c0-2.79,2.24-4.85,5.22-4.85h11.18c2.98,0,5.22,2.05,5.22,4.85
		c0,2.8-2.24,4.85-5.22,4.85h-11.18C797.89,52.46,795.65,50.42,795.65,47.62 M773.66,146.02c0-2.05,1.12-3.91,2.79-4.66
		c1.49-0.56,2.42-1.86,2.42-3.35V63.09c0-1.49-0.93-2.8-2.42-3.35c-1.68-0.75-2.79-2.61-2.79-4.66c0-2.98,2.24-5.22,5.22-5.22
		c2.05,0,3.91,1.12,4.66,2.8c0.56,1.49,1.86,2.42,3.35,2.42h21.06c25.16,0,43.23,19.19,43.23,45.84c0,26.09-17.15,45.1-41,45.1
		h-23.3c-1.49,0-2.79,0.93-3.35,2.42c-0.75,1.68-2.61,2.8-4.66,2.8C775.89,151.23,773.66,149,773.66,146.02 M766.2,112.84V93.46
		c0-2.98,2.05-5.22,4.85-5.22c2.79,0,4.85,2.24,4.85,5.22v19.38c0,2.98-2.05,5.22-4.85,5.22
		C768.25,118.06,766.2,115.83,766.2,112.84 M763.22,161.3h48.45c32.99,0,55.91-26.46,55.91-60.75c0-36.15-25.53-60.38-58.89-60.38
		h-45.47V161.3z M725.2,62.15V50.97c0-2.98,2.05-5.22,4.85-5.22c2.79,0,4.85,2.24,4.85,5.22v11.18c0,2.98-2.05,5.22-4.85,5.22
		C727.25,67.37,725.2,65.14,725.2,62.15 M725.2,107.63V88.24c0-2.98,2.05-5.22,4.85-5.22c2.79,0,4.85,2.24,4.85,5.22v19.38
		c0,2.98-2.05,5.22-4.85,5.22C727.25,112.84,725.2,110.61,725.2,107.63 M687.19,106.51c-1.68-2.42-1.31-5.41,1.12-7.08
		c2.24-1.49,5.22-0.75,6.89,1.68l6.15,9.32c1.68,2.42,1.3,5.41-1.12,7.08c-2.24,1.49-5.22,0.75-6.9-1.68L687.19,106.51z
		 M670.6,81.16c0-2.98,2.24-5.22,5.22-5.22c2.98,0,5.22,2.24,5.22,5.22c0,2.98-2.24,5.22-5.22,5.22
		C672.84,86.38,670.6,84.14,670.6,81.16 M641.72,112.84V93.46c0-2.98,2.05-5.22,4.85-5.22c2.8,0,4.85,2.24,4.85,5.22v19.38
		c0,2.98-2.05,5.22-4.85,5.22C643.77,118.06,641.72,115.83,641.72,112.84 M641.72,150.12v-11.18c0-2.98,2.05-5.22,4.85-5.22
		c2.8,0,4.85,2.24,4.85,5.22v11.18c0,2.98-2.05,5.22-4.85,5.22C643.77,155.33,641.72,153.1,641.72,150.12 M638.73,161.3h15.65V68.86
		c0-1.49-0.93-2.61-2.24-2.61c-2.98,0-5.22-2.24-5.22-5.22c0-2.98,2.24-5.22,5.22-5.22s5.22,2.24,5.22,5.22v3.35
		c0,1.86,0.56,4.29,1.49,5.59l61.13,91.32h17.89V40.16h-15.65v90.94c0,1.49,0.93,2.61,2.24,2.61c2.98,0,5.22,2.24,5.22,5.22
		s-2.24,5.22-5.22,5.22s-5.22-2.24-5.22-5.22v-3.35c0-1.86-0.56-4.29-1.49-5.59l-59.26-89.83h-19.75V161.3z M604.07,153.47
		c0-2.98,2.24-5.22,5.22-5.22c2.98,0,5.22,2.24,5.22,5.22c0,2.98-2.24,5.22-5.22,5.22C606.31,158.69,604.07,156.45,604.07,153.47
		 M602.58,47.62c0-2.98,2.24-5.22,5.22-5.22s5.22,2.24,5.22,5.22s-2.24,5.22-5.22,5.22S602.58,50.6,602.58,47.62 M582.46,99.43
		c0-2.8,2.24-4.85,5.22-4.85h11.18c2.98,0,5.22,2.05,5.22,4.85c0,2.79-2.24,4.85-5.22,4.85h-11.18
		C584.69,104.27,582.46,102.22,582.46,99.43 M568.29,47.62c0-2.79,2.24-4.85,5.22-4.85h11.18c2.98,0,5.22,2.05,5.22,4.85
		c0,2.8-2.24,4.85-5.22,4.85h-11.18C570.53,52.46,568.29,50.42,568.29,47.62 M564.56,153.47c0-2.8,2.24-4.85,5.22-4.85h19.38
		c2.98,0,5.22,2.05,5.22,4.85c0,2.79-2.24,4.85-5.22,4.85h-19.38C566.8,158.32,564.56,156.27,564.56,153.47 M535.87,161.3h84.23
		v-15.28h-60.57c-1.49,0-2.8,0.93-3.35,2.42c-0.75,1.68-2.61,2.8-4.66,2.8c-2.98,0-5.22-2.24-5.22-5.22c0-2.05,1.12-3.91,2.8-4.66
		c1.49-0.56,2.42-1.86,2.42-3.35v-23.11c0-1.49-0.93-2.79-2.42-3.35c-1.68-0.75-2.8-2.61-2.8-4.66c0-2.98,2.24-5.22,5.22-5.22
		c2.05,0,3.91,1.12,4.66,2.79c0.56,1.49,1.86,2.42,3.35,2.42h50.13V91.97h-50.13c-1.49,0-2.8,0.93-3.35,2.42
		c-0.75,1.68-2.61,2.8-4.66,2.8c-2.98,0-5.22-2.24-5.22-5.22c0-2.05,1.12-3.92,2.8-4.66c1.49-0.56,2.42-1.86,2.42-3.35V63.09
		c0-1.49-0.93-2.8-2.42-3.35c-1.68-0.75-2.8-2.61-2.8-4.66c0-2.98,2.24-5.22,5.22-5.22c2.05,0,3.91,1.12,4.66,2.8
		c0.56,1.49,1.86,2.42,3.35,2.42h59.07V40.16h-82.74V161.3z M506.05,84.52c0.75-2.98,0.75-7.45,0-10.44
		c-0.75-2.98,1.12-5.22,4.1-5.22c2.24,0,4.28,2.05,4.85,4.47c0.93,3.73,0.93,8.2,0,11.93c-0.56,2.42-2.61,4.47-4.85,4.47
		C507.17,89.74,505.3,87.5,506.05,84.52 M495.61,55.07c0-2.98,2.24-5.22,5.22-5.22s5.22,2.24,5.22,5.22c0,2.98-2.24,5.22-5.22,5.22
		S495.61,58.05,495.61,55.07 M494.12,103.15c0-2.98,2.24-5.22,5.22-5.22s5.22,2.24,5.22,5.22c0,2.98-2.24,5.22-5.22,5.22
		S494.12,106.14,494.12,103.15 M472.88,109.12c0-2.98,2.24-5.22,5.22-5.22c2.98,0,5.22,2.24,5.22,5.22s-2.24,5.22-5.22,5.22
		C475.11,114.34,472.88,112.1,472.88,109.12 M463.19,47.62c0-2.79,2.24-4.85,5.22-4.85h11.18c2.98,0,5.22,2.05,5.22,4.85
		c0,2.8-2.24,4.85-5.22,4.85h-11.18C465.42,52.46,463.19,50.42,463.19,47.62 M441.2,101.66c0-2.05,1.12-3.92,2.79-4.66
		c1.49-0.56,2.42-1.86,2.42-3.35V63.09c0-1.49-0.93-2.8-2.42-3.35c-1.68-0.75-2.79-2.61-2.79-4.66c0-2.98,2.24-5.22,5.22-5.22
		c2.05,0,3.91,1.12,4.66,2.8c0.56,1.49,1.86,2.42,3.35,2.42h26.65c12.67,0,21.99,9.69,21.99,23.29c0,13.61-9.32,23.3-21.99,23.3
		h-26.65c-1.49,0-2.79,0.93-3.35,2.42c-0.75,1.68-2.61,2.8-4.66,2.8C443.43,106.88,441.2,104.64,441.2,101.66 M433.74,150.12v-11.18
		c0-2.98,2.05-5.22,4.85-5.22c2.79,0,4.85,2.24,4.85,5.22v11.18c0,2.98-2.05,5.22-4.85,5.22
		C435.79,155.33,433.74,153.1,433.74,150.12 M430.76,161.3h15.65v-36.71c0-1.49-0.93-2.79-2.42-3.35c-1.68-0.75-2.79-2.61-2.79-4.66
		c0-2.98,2.24-5.22,5.22-5.22c2.05,0,3.91,1.12,4.66,2.79c0.56,1.49,1.86,2.42,3.35,2.42h26.65c22.18,0,38.39-16.21,38.39-38.39
		c0-21.99-15.84-38.02-37.64-38.02h-51.06V161.3z M396.1,153.47c0-2.98,2.24-5.22,5.22-5.22c2.98,0,5.22,2.24,5.22,5.22
		c0,2.98-2.24,5.22-5.22,5.22C398.34,158.69,396.1,156.45,396.1,153.47 M394.61,47.62c0-2.98,2.24-5.22,5.22-5.22
		s5.22,2.24,5.22,5.22s-2.24,5.22-5.22,5.22S394.61,50.6,394.61,47.62 M374.48,99.43c0-2.8,2.24-4.85,5.22-4.85h11.18
		c2.98,0,5.22,2.05,5.22,4.85c0,2.79-2.24,4.85-5.22,4.85H379.7C376.72,104.27,374.48,102.22,374.48,99.43 M360.32,47.62
		c0-2.79,2.24-4.85,5.22-4.85h11.18c2.98,0,5.22,2.05,5.22,4.85c0,2.8-2.24,4.85-5.22,4.85h-11.18
		C362.56,52.46,360.32,50.42,360.32,47.62 M356.59,153.47c0-2.8,2.24-4.85,5.22-4.85h19.38c2.98,0,5.22,2.05,5.22,4.85
		c0,2.79-2.24,4.85-5.22,4.85h-19.38C358.83,158.32,356.59,156.27,356.59,153.47 M327.89,161.3h84.23v-15.28h-60.57
		c-1.49,0-2.8,0.93-3.35,2.42c-0.75,1.68-2.61,2.8-4.66,2.8c-2.98,0-5.22-2.24-5.22-5.22c0-2.05,1.12-3.91,2.8-4.66
		c1.49-0.56,2.42-1.86,2.42-3.35v-23.11c0-1.49-0.93-2.79-2.42-3.35c-1.68-0.75-2.8-2.61-2.8-4.66c0-2.98,2.24-5.22,5.22-5.22
		c2.05,0,3.92,1.12,4.66,2.79c0.56,1.49,1.86,2.42,3.35,2.42h50.13V91.97h-50.13c-1.49,0-2.8,0.93-3.35,2.42
		c-0.75,1.68-2.61,2.8-4.66,2.8c-2.98,0-5.22-2.24-5.22-5.22c0-2.05,1.12-3.92,2.8-4.66c1.49-0.56,2.42-1.86,2.42-3.35V63.09
		c0-1.49-0.93-2.8-2.42-3.35c-1.68-0.75-2.8-2.61-2.8-4.66c0-2.98,2.24-5.22,5.22-5.22c2.05,0,3.92,1.12,4.66,2.8
		c0.56,1.49,1.86,2.42,3.35,2.42h59.07V40.16h-82.74V161.3z M295.1,105.76c0.75-2.98,0.75-7.45,0-10.44s1.12-5.22,4.1-5.22
		c2.24,0,4.29,2.05,4.85,4.47c0.93,3.73,0.93,8.2,0,11.93c-0.56,2.42-2.61,4.47-4.85,4.47C296.21,110.98,294.35,108.74,295.1,105.76
		 M280.19,139.31c0-2.98,2.24-5.22,5.22-5.22s5.22,2.24,5.22,5.22c0,2.98-2.24,5.22-5.22,5.22S280.19,142.29,280.19,139.31
		 M279.44,61.78c0-2.98,2.24-5.22,5.22-5.22s5.22,2.24,5.22,5.22c0,2.98-2.24,5.22-5.22,5.22S279.44,64.76,279.44,61.78
		 M241.05,153.47c0-2.8,2.24-4.85,5.22-4.85h11.18c2.98,0,5.22,2.05,5.22,4.85c0,2.79-2.24,4.85-5.22,4.85h-11.18
		C243.29,158.32,241.05,156.27,241.05,153.47 M236.58,47.62c0-2.79,2.24-4.85,5.22-4.85h11.18c2.98,0,5.22,2.05,5.22,4.85
		c0,2.8-2.24,4.85-5.22,4.85H241.8C238.81,52.46,236.58,50.42,236.58,47.62 M214.59,146.02c0-2.05,1.12-3.91,2.8-4.66
		c1.49-0.56,2.42-1.86,2.42-3.35V63.09c0-1.49-0.93-2.8-2.42-3.35c-1.68-0.75-2.8-2.61-2.8-4.66c0-2.98,2.24-5.22,5.22-5.22
		c2.05,0,3.92,1.12,4.66,2.8c0.56,1.49,1.86,2.42,3.35,2.42h21.06c25.16,0,43.24,19.19,43.24,45.84c0,26.09-17.15,45.1-41,45.1
		h-23.29c-1.49,0-2.8,0.93-3.35,2.42c-0.75,1.68-2.61,2.8-4.66,2.8C216.82,151.23,214.59,149,214.59,146.02 M207.14,112.84V93.46
		c0-2.98,2.05-5.22,4.84-5.22c2.8,0,4.85,2.24,4.85,5.22v19.38c0,2.98-2.05,5.22-4.85,5.22
		C209.19,118.06,207.14,115.83,207.14,112.84 M204.15,161.3h48.45c32.99,0,55.91-26.46,55.91-60.75c0-36.15-25.53-60.38-58.89-60.38
		h-45.47V161.3z M166.14,62.15V50.97c0-2.98,2.05-5.22,4.85-5.22c2.79,0,4.85,2.24,4.85,5.22v11.18c0,2.98-2.05,5.22-4.85,5.22
		C168.19,67.37,166.14,65.14,166.14,62.15 M166.14,107.63V88.24c0-2.98,2.05-5.22,4.85-5.22c2.79,0,4.85,2.24,4.85,5.22v19.38
		c0,2.98-2.05,5.22-4.85,5.22C168.19,112.84,166.14,110.61,166.14,107.63 M128.12,106.51c-1.68-2.42-1.31-5.41,1.12-7.08
		c2.24-1.49,5.22-0.75,6.89,1.68l6.15,9.32c1.68,2.42,1.3,5.41-1.12,7.08c-2.24,1.49-5.22,0.75-6.9-1.68L128.12,106.51z
		 M111.53,81.16c0-2.98,2.24-5.22,5.22-5.22s5.22,2.24,5.22,5.22c0,2.98-2.24,5.22-5.22,5.22S111.53,84.14,111.53,81.16
		 M82.65,112.84V93.46c0-2.98,2.05-5.22,4.85-5.22c2.79,0,4.85,2.24,4.85,5.22v19.38c0,2.98-2.05,5.22-4.85,5.22
		C84.7,118.06,82.65,115.83,82.65,112.84 M82.65,150.12v-11.18c0-2.98,2.05-5.22,4.85-5.22c2.79,0,4.85,2.24,4.85,5.22v11.18
		c0,2.98-2.05,5.22-4.85,5.22C84.7,155.33,82.65,153.1,82.65,150.12 M79.67,161.3h15.65V68.86c0-1.49-0.93-2.61-2.24-2.61
		c-2.98,0-5.22-2.24-5.22-5.22c0-2.98,2.24-5.22,5.22-5.22s5.22,2.24,5.22,5.22v3.35c0,1.86,0.56,4.29,1.49,5.59l61.13,91.32h17.89
		V40.16h-15.65v90.94c0,1.49,0.93,2.61,2.24,2.61c2.98,0,5.22,2.24,5.22,5.22s-2.24,5.22-5.22,5.22s-5.22-2.24-5.22-5.22v-3.35
		c0-1.86-0.56-4.29-1.49-5.59L99.42,40.16H79.67V161.3z M41.65,112.84V93.46c0-2.98,2.05-5.22,4.85-5.22s4.85,2.24,4.85,5.22v19.38
		c0,2.98-2.05,5.22-4.85,5.22S41.65,115.83,41.65,112.84 M41.65,150.12v-11.18c0-2.98,2.05-5.22,4.85-5.22s4.85,2.24,4.85,5.22
		v11.18c0,2.98-2.05,5.22-4.85,5.22S41.65,153.1,41.65,150.12 M41.28,50.97c0-2.98,2.24-5.22,5.22-5.22s5.22,2.24,5.22,5.22
		c0,2.98-2.24,5.22-5.22,5.22S41.28,53.95,41.28,50.97 M38.67,161.3h15.65V40.16H38.67V161.3z"/>
	<path style="clip-path:url(#SVGID_00000044858752667080563040000012983056972654923408_);fill:#FFFFFF;" d="M882,830.6l-5.42-18.61
		c-0.84-2.86,0.51-5.58,3.19-6.36c2.69-0.78,5.28,0.79,6.11,3.65l5.43,18.61c0.83,2.86-0.51,5.58-3.19,6.36
		C885.43,835.03,882.83,833.46,882,830.6 M898.22,887.6c-0.83-2.86,0.69-5.63,3.55-6.47c2.86-0.83,5.64,0.69,6.47,3.55
		c0.83,2.86-0.69,5.63-3.55,6.47C901.83,891.98,899.06,890.46,898.22,887.6 M842.93,800.45c-0.84-2.86,0.69-5.63,3.55-6.47
		c2.86-0.83,5.64,0.69,6.47,3.55c0.83,2.86-0.69,5.63-3.55,6.47C846.53,804.83,843.76,803.31,842.93,800.45 M847.51,830.17
		c0.52-2.87,0.16-7.42-0.67-10.29c-0.89-3.04,0.79-5.28,3.81-5.58c2.3-0.09,4.41,1.82,5.14,4.32c1.04,3.58,1.4,8.13,0.55,11.88
		c-0.27,2.41-2.36,4.57-4.48,4.61C848.85,835.41,846.87,833.27,847.51,830.17 M898.85,899.06l15.03-4.38l-7.09-24.33
		c-0.31-1.07-1.24-1.58-2.31-1.27c-2.86,0.83-5.64-0.69-6.47-3.55c-0.83-2.86,0.69-5.64,3.55-6.47c2.86-0.83,5.63,0.69,6.47,3.55
		c0.31,1.07,1.23,1.58,2.31,1.27l14.31-4.17l-4.17-14.31l-19.32,5.63l-15.44-52.96l-15.03,4.38l14.03,48.13
		c0.26,0.89,1.18,1.4,2.08,1.14c2.86-0.84,5.63,0.69,6.47,3.55c0.83,2.86-0.69,5.64-3.55,6.47c-2.86,0.83-5.64-0.69-6.47-3.55
		c-0.31-1.07-1.24-1.58-2.31-1.27l-26.66,7.77c-1.08,0.31-1.58,1.24-1.27,2.31c0.83,2.86-0.69,5.64-3.55,6.47
		c-2.86,0.83-5.63-0.69-6.47-3.55c-0.84-2.86,0.69-5.63,3.55-6.47c0.89-0.26,2.02-0.39,2.89-0.07c1.28,0.4,2.48-0.14,3.12-1.3
		c8.48-16.84,9.21-43.64,1.55-69.94l-1.67-5.72l-15.39,4.48l3.34,11.45c7.92,27.19,5.1,54.8-7.42,67.77l4.38,15.03l52.96-15.44
		L898.85,899.06z M798.44,878.25c-0.83-2.86,0.69-5.64,3.55-6.47c2.86-0.83,5.63,0.69,6.47,3.55c0.83,2.86-0.69,5.64-3.55,6.47
		C802.05,882.63,799.28,881.11,798.44,878.25 M756.93,890.35c-0.83-2.86,0.69-5.64,3.55-6.47c2.86-0.83,5.64,0.69,6.47,3.55
		c0.83,2.86-0.69,5.63-3.55,6.47C760.54,894.73,757.77,893.21,756.93,890.35 M749.53,884.93l4.07,13.96l62.26-18.15l-4.07-13.96
		L749.53,884.93z M719.68,869.76c-0.12-3.07-1.37-7.37-2.92-10.02c-1.55-2.65-0.39-5.32,2.48-6.16c2.15-0.63,4.69,0.77,5.9,2.94
		c1.94,3.32,3.19,7.61,3.34,11.45c0.14,2.48-1.25,5.02-3.4,5.65C722.21,874.46,719.8,872.83,719.68,869.76 M703.7,844.91
		c-0.84-2.86,0.69-5.63,3.55-6.47c2.86-0.84,5.64,0.69,6.47,3.55c0.83,2.86-0.69,5.64-3.55,6.47
		C707.31,849.29,704.54,847.77,703.7,844.91 M705.97,899.96c-0.83-2.86,0.69-5.64,3.55-6.47c2.86-0.83,5.63,0.69,6.47,3.55
		c0.83,2.86-0.69,5.63-3.55,6.47C709.57,904.34,706.8,902.82,705.97,899.96 M718.1,943.59c-0.78-2.69,0.79-5.28,3.66-6.11l18.6-5.42
		c2.87-0.83,5.59,0.51,6.37,3.19c0.78,2.68-0.79,5.28-3.65,6.11l-18.61,5.42C721.61,947.62,718.88,946.28,718.1,943.59
		 M674.98,844.93c-0.63-2.15,0.77-4.69,2.94-5.9c3.32-1.94,7.61-3.19,11.45-3.34c2.48-0.14,5.02,1.25,5.65,3.4
		c0.83,2.86-0.79,5.28-3.86,5.4c-3.07,0.12-7.36,1.37-10.02,2.92C678.48,848.96,675.81,847.8,674.98,844.93 M685.31,928.31
		c-1.78-1.43-2.02-4.26-1.11-6.47c1.67-3.59,4.34-7.09,7.32-9.51c1.89-1.52,4.85-2,6.63-0.57c2.29,1.86,2.36,4.75-0.01,6.61
		c-2.37,1.86-5.22,5.4-6.33,8.25C690.51,929.51,687.77,930.11,685.31,928.31 M657.9,876.89c-0.83-2.86,0.69-5.63,3.55-6.47
		c2.86-0.84,5.64,0.69,6.47,3.55c0.83,2.86-0.69,5.64-3.55,6.47C661.5,881.28,658.73,879.76,657.9,876.89 M697.13,941.55
		c-1.07,0.31-1.58,1.24-1.27,2.31c0.73,2.5-1.38,5.26-4.06,6.04c-2.86,0.83-5.63-0.69-6.47-3.55c-0.83-2.87,0.69-5.64,3.55-6.47
		c1.07-0.31,1.76-1.29,1.8-2.47c0.76-10.71,10.81-18.88,22.47-30.81c9.57-9.78,23.89-23.27,17-46.89
		c-6.46-22.18-26.13-32.37-47.6-26.11c-22.01,6.42-33.13,27.52-26.46,50.42c0.73,2.5,1.74,5.31,2.96,8.84l15.58-6.48
		c-1.37-2.71-2.23-4.98-2.8-6.95c-4.12-14.13,2.28-27.45,15.35-31.26c12.7-3.7,24.69,3.48,28.71,17.25
		c4.59,15.75-6.12,24.3-11.26,29.29c-22.52,21.32-36.52,35.88-28.18,64.51l1.25,4.29l76.58-22.32l-4.38-15.03L697.13,941.55z"/>
	<path style="clip-path:url(#SVGID_00000044858752667080563040000012983056972654923408_);fill:#FFFFFF;" d="M925.16,707.65
		c-0.83-2.86,0.69-5.64,3.55-6.47s5.64,0.69,6.47,3.55c0.83,2.86-0.69,5.63-3.55,6.47C928.77,712.03,926,710.51,925.16,707.65
		 M906.96,653.17c-0.84-2.86,0.69-5.64,3.55-6.47c2.86-0.83,5.64,0.69,6.47,3.55c0.83,2.86-0.69,5.63-3.55,6.47
		C910.56,657.55,907.79,656.03,906.96,653.17 M889.16,686.7c-0.83-2.86,0.69-5.64,3.55-6.47c2.86-0.84,5.63,0.69,6.47,3.55
		c0.83,2.86-0.69,5.64-3.55,6.47C892.77,691.08,889.99,689.56,889.16,686.7 M896.55,728.02c-0.84-2.86,0.79-5.28,3.86-5.39
		c3.07-0.12,7.37-1.37,10.02-2.92c2.65-1.55,5.32-0.39,6.15,2.48c0.63,2.15-0.77,4.69-2.94,5.9c-3.32,1.94-7.61,3.19-11.45,3.34
		C899.72,731.57,897.18,730.17,896.55,728.02 M872.54,650.97c-0.63-2.15,0.77-4.69,2.94-5.9c3.32-1.94,7.61-3.19,11.45-3.34
		c2.48-0.14,5.02,1.25,5.65,3.4c0.83,2.86-0.79,5.28-3.86,5.39c-3.07,0.12-7.37,1.37-10.02,2.92
		C876.04,655,873.37,653.83,872.54,650.97 M871.49,723.29c-0.84-2.87,0.69-5.64,3.55-6.47c2.86-0.84,5.64,0.69,6.47,3.55
		c0.83,2.86-0.69,5.64-3.55,6.47C875.09,727.68,872.32,726.16,871.49,723.29 M855.07,668.29c-0.84-2.86,0.69-5.63,3.55-6.47
		c2.86-0.84,5.64,0.69,6.47,3.55c0.83,2.86-0.69,5.64-3.55,6.47C858.67,672.68,855.9,671.16,855.07,668.29 M859.07,688.67
		c-0.83-2.86,0.69-5.64,3.55-6.47c1.25-0.37,2.07-1.57,2.19-3.16c1.11-12.17,8.02-21.75,19.12-24.98
		c10.91-3.18,22.99,0.29,30.98,10.38c0.95,1.27,2.11,1.91,3.54,1.49c2.86-0.83,5.64,0.69,6.47,3.55c0.83,2.86-0.69,5.63-3.55,6.47
		c-2.33,0.68-4.53-0.23-5.82-1.99c-0.95-1.27-2.11-1.91-3.36-1.54l-40.43,11.78c-1.79,0.52-2.37,1.86-2.49,3.45
		c-0.14,2.18-1.56,3.95-3.71,4.58C862.68,693.06,859.9,691.54,859.07,688.67 M908.61,733.44c20.04-5.84,33.52-22.19,32.87-39.08
		l-17.56-0.32c0.88,11-7.67,21.65-19.48,25.09c-12.52,3.65-24.71-1.53-32.19-12.55c-0.77-1.33-2.34-2.03-3.41-1.72
		c-2.86,0.83-5.63-0.69-6.47-3.55c-0.84-2.86,0.69-5.64,3.55-6.47c2.32-0.68,4.53,0.23,5.82,1.99c0.95,1.27,2.29,1.86,3.72,1.44
		l62.44-18.2c-0.24-1.48-0.5-2.38-0.71-3.09c-8.34-28.63-30.85-44.58-56.62-37.07c-25.05,7.3-37.15,32.38-29.17,59.75
		C859.27,726.66,882.84,740.95,908.61,733.44 M827.06,716.05l-3.13-10.73c-0.83-2.86,0.51-5.58,3.19-6.36
		c2.68-0.78,5.28,0.79,6.11,3.65l3.13,10.73c0.83,2.86-0.51,5.58-3.19,6.36S827.9,718.92,827.06,716.05 M834.01,741.21
		c-0.83-2.86,0.69-5.63,3.55-6.47c2.87-0.84,5.64,0.69,6.47,3.55c0.84,2.86-0.69,5.64-3.55,6.47
		C837.61,745.59,834.84,744.07,834.01,741.21 M811.62,681.73c-0.83-2.86,0.69-5.64,3.55-6.47s5.63,0.69,6.47,3.55
		c0.83,2.86-0.69,5.63-3.55,6.47C815.23,686.12,812.46,684.59,811.62,681.73 M778.89,678.65c-0.63-2.15,0.77-4.69,2.94-5.9
		c3.32-1.94,7.61-3.19,11.45-3.34c2.48-0.14,5.02,1.25,5.65,3.4c0.83,2.86-0.79,5.28-3.86,5.39c-3.07,0.12-7.37,1.37-10.02,2.92
		C782.4,682.68,779.73,681.52,778.89,678.65 M770.31,759.77l-3.13-10.73c-0.83-2.87,0.51-5.59,3.19-6.37
		c2.68-0.78,5.28,0.79,6.11,3.65l3.13,10.73c0.83,2.87-0.51,5.59-3.19,6.37C773.74,764.21,771.15,762.64,770.31,759.77
		 M759.53,724.09c-0.83-2.87,0.69-5.64,3.55-6.47c2.86-0.84,5.63,0.69,6.47,3.55c0.83,2.86-0.69,5.64-3.55,6.47
		S760.36,726.96,759.53,724.09 M767.22,689.24c0.85,0.92,1.24,1.58,1.55,2.65c0.83,2.86-0.69,5.64-3.55,6.47
		c-2.87,0.83-5.64-0.69-6.47-3.55c-0.47-1.61-0.17-3.25,0.64-4.46c1.12-1.49,1.37-3.31,0.72-4.87l-3.08-7.26l-12.17,3.55
		l26.07,89.46l14.31-4.17l-13.98-47.95c-4.96-17,3.79-32.94,18.64-37.27c13.42-3.91,25.46,3.45,29.53,17.4l15.54,53.32l14.31-4.17
		l-15.85-54.39c-6.31-21.65-25.34-32.99-45.56-27.1c-10.56,3.08-17.66,10-21.56,17.93C765.62,686.4,766.04,687.84,767.22,689.24
		 M717.74,712.59l-3.13-10.73c-0.83-2.86,0.51-5.58,3.19-6.36c2.68-0.78,5.28,0.79,6.11,3.65l3.13,10.73
		c0.83,2.86-0.51,5.58-3.19,6.36C721.17,717.03,718.57,715.45,717.74,712.59 M726.87,745.26c-0.83-2.86,0.69-5.64,3.55-6.47
		c2.86-0.83,5.63,0.69,6.47,3.55c0.84,2.86-0.69,5.63-3.55,6.47C730.48,749.64,727.71,748.12,726.87,745.26 M695.45,786.64
		c-0.83-2.86,0.79-5.28,3.86-5.39c3.07-0.12,7.37-1.37,10.02-2.92c2.65-1.55,5.32-0.39,6.16,2.48c0.63,2.15-0.77,4.69-2.94,5.9
		c-3.32,1.94-7.61,3.19-11.45,3.34C698.62,790.18,696.08,788.79,695.45,786.64 M675.61,781.16c-0.83-2.86,0.69-5.64,3.55-6.47
		c2.86-0.83,5.64,0.69,6.47,3.55c0.84,2.86-0.69,5.63-3.55,6.47C679.22,785.55,676.45,784.03,675.61,781.16 M664.25,763.51
		l-3.13-10.73c-0.83-2.86,0.51-5.58,3.19-6.36c2.68-0.78,5.28,0.79,6.11,3.65l3.13,10.73c0.83,2.86-0.51,5.58-3.19,6.36
		C667.68,767.94,665.09,766.37,664.25,763.51 M651.28,720.32c-0.83-2.86,0.69-5.63,3.55-6.47c2.86-0.83,5.64,0.69,6.47,3.55
		c0.83,2.86-0.69,5.63-3.55,6.47C654.88,724.7,652.11,723.18,651.28,720.32 M707.16,792.16c9.84-2.87,17.56-9,21.34-16.7
		c0.71-1.56,0.29-3-0.89-4.4c-0.85-0.92-1.24-1.58-1.55-2.65c-0.83-2.86,0.69-5.64,3.55-6.47c2.86-0.83,5.64,0.69,6.47,3.55
		c0.47,1.61,0.17,3.25-0.64,4.46c-1.12,1.49-1.36,3.31-0.72,4.87l2.59,6.23l12.52-3.65l-5.57-17.79l-20.86-71.57l-14.31,4.17
		l14.29,49.02c4.95,17-4.21,31.51-18.34,35.63c-13.42,3.91-25.11-3.55-29.07-17.15l-15.54-53.32l-14.31,4.17l15.96,54.75
		C668.27,786.6,687.3,797.94,707.16,792.16 M612.95,714.02l-3.13-10.73c-0.83-2.86,0.51-5.58,3.19-6.36
		c2.68-0.78,5.28,0.79,6.11,3.65l3.13,10.73c0.83,2.86-0.51,5.59-3.19,6.37C616.38,718.45,613.78,716.88,612.95,714.02
		 M625.78,758.03l-5.43-18.61c-0.83-2.86,0.51-5.59,3.19-6.37c2.68-0.78,5.28,0.79,6.11,3.66l5.42,18.6
		c0.84,2.87-0.51,5.59-3.19,6.37C629.2,762.47,626.61,760.89,625.78,758.03 M628.11,792.68c-0.83-2.86,0.69-5.63,3.55-6.47
		c2.86-0.83,5.63,0.69,6.47,3.55c0.84,2.86-0.69,5.64-3.55,6.47C631.72,797.06,628.95,795.54,628.11,792.68 M599.45,814.23
		c-0.84-2.87,0.79-5.28,3.86-5.4c3.07-0.12,7.37-1.37,10.02-2.92c2.65-1.55,5.32-0.38,6.16,2.48c0.63,2.15-0.77,4.69-2.94,5.9
		c-3.32,1.94-7.61,3.19-11.45,3.34C602.62,817.77,600.08,816.38,599.45,814.23 M574.08,808.43c-0.83-2.87,0.69-5.64,3.55-6.47
		c2.86-0.84,5.64,0.69,6.47,3.55c0.83,2.86-0.69,5.64-3.55,6.47C577.69,812.81,574.91,811.29,574.08,808.43 M561.28,788.48
		l-3.13-10.73c-0.83-2.86,0.51-5.59,3.19-6.36c2.68-0.78,5.28,0.79,6.11,3.65l3.13,10.73c0.83,2.86-0.51,5.58-3.19,6.36
		C564.71,792.91,562.11,791.34,561.28,788.48 M607.77,804.82c-15.39,4.48-29.64-3.78-34.44-20.24l-6.05-20.76l-15.39,4.48
		l6.26,21.47c7.14,24.51,29.66,37.17,53.82,30.12c24.15-7.04,36.24-30.17,28.99-55.04l-22.01-75.5l-15.03,4.38l22,75.5
		C630.63,785.34,623.16,800.33,607.77,804.82"/>
	<path style="clip-path:url(#SVGID_00000044858752667080563040000012983056972654923408_);fill:#FFFFFF;" d="M1831.56,435.22
		c1.6,1.33,3.87,2.11,6.79,2.35c3.22,0.27,5.7-0.24,7.46-1.51c1.76-1.28,2.72-2.9,2.89-4.86c0.15-1.8-0.33-3.26-1.43-4.37
		c-1.12-1.1-3.16-2.11-6.12-3.05c-2.96-0.94-4.69-1.62-5.16-2.04c-0.36-0.31-0.51-0.67-0.48-1.08c0.04-0.47,0.29-0.84,0.74-1.1
		c0.68-0.36,1.77-0.48,3.26-0.36c1.18,0.1,2.08,0.4,2.68,0.89c0.6,0.5,0.98,1.17,1.14,2.03l5.43-0.54
		c-0.38-1.91-1.25-3.41-2.59-4.48c-1.35-1.08-3.49-1.73-6.42-1.98c-3.08-0.26-5.41,0.19-6.98,1.33c-1.57,1.14-2.44,2.64-2.59,4.5
		c-0.17,2.06,0.54,3.74,2.14,5.03c1.16,0.94,3.98,2.1,8.47,3.49c0.96,0.31,1.58,0.61,1.84,0.9c0.24,0.31,0.35,0.67,0.32,1.1
		c-0.05,0.63-0.34,1.12-0.87,1.45c-0.79,0.48-1.91,0.65-3.38,0.53c-1.33-0.11-2.34-0.48-3.04-1.12c-0.69-0.63-1.11-1.51-1.26-2.63
		l-5.76,0.4C1828.98,432.2,1829.96,433.9,1831.56,435.22 M1812.42,422.29c0.11-1.55,0.61-2.74,1.49-3.58
		c0.88-0.83,1.94-1.2,3.18-1.1c1.16,0.1,2.11,0.6,2.84,1.53c0.74,0.92,1.06,2.21,0.96,3.85L1812.42,422.29z M1818.53,430.93
		c-0.65,0.43-1.41,0.61-2.3,0.54c-1.31-0.11-2.36-0.67-3.15-1.68c-0.8-1.01-1.15-2.35-1.05-4.04l14.21,1.18
		c0.44-4.34-0.17-7.64-1.84-9.9c-1.67-2.26-4.1-3.52-7.29-3.79c-2.84-0.24-5.27,0.57-7.3,2.43c-2.02,1.86-3.18,4.56-3.48,8.12
		c-0.25,2.97,0.25,5.49,1.51,7.56c1.59,2.58,4.25,4.03,7.97,4.34c2.35,0.2,4.36-0.18,6.02-1.14c1.66-0.95,2.94-2.44,3.84-4.45
		l-5.57-1.42C1819.7,429.75,1819.18,430.49,1818.53,430.93 M1801.18,413.62c-1.45-1.25-3.48-1.99-6.09-2.2
		c-3.19-0.26-5.8,0.51-7.84,2.33s-3.2,4.49-3.49,8.03c-0.29,3.5,0.41,6.32,2.11,8.45c1.7,2.13,4.12,3.33,7.25,3.59
		c2.76,0.23,5.01-0.24,6.77-1.41c1.75-1.17,3.02-3.01,3.81-5.52l-5.49-1.41c-0.41,1.47-0.98,2.48-1.72,3.04
		c-0.74,0.55-1.64,0.79-2.72,0.7c-1.44-0.12-2.54-0.74-3.31-1.86c-0.77-1.12-1.04-2.95-0.83-5.49c0.19-2.29,0.75-3.89,1.67-4.79
		c0.92-0.9,2.09-1.3,3.5-1.18c1.06,0.09,1.91,0.44,2.52,1.06c0.62,0.62,0.98,1.5,1.07,2.63l5.68-0.54
		C1803.59,416.68,1802.63,414.87,1801.18,413.62 M1773.73,422.49c-0.11,1.36-0.26,2.27-0.45,2.75c-0.28,0.72-0.78,1.31-1.51,1.77
		c-0.98,0.59-1.99,0.85-3.01,0.77c-0.91-0.08-1.64-0.43-2.19-1.06c-0.54-0.63-0.78-1.34-0.72-2.13c0.07-0.81,0.49-1.44,1.28-1.91
		c0.51-0.28,1.57-0.53,3.17-0.73c1.6-0.2,2.78-0.4,3.53-0.58L1773.73,422.49z M1768.16,414.15c0.6-0.35,1.4-0.48,2.41-0.4
		c1.49,0.13,2.49,0.44,2.99,0.95c0.5,0.51,0.71,1.31,0.61,2.4l-0.05,0.56c-1.06,0.35-2.93,0.66-5.62,0.94
		c-2,0.21-3.54,0.53-4.62,0.95c-1.09,0.42-1.96,1.08-2.61,1.98c-0.66,0.9-1.04,1.96-1.14,3.17c-0.15,1.83,0.36,3.4,1.53,4.7
		c1.17,1.3,2.86,2.05,5.07,2.23c1.25,0.11,2.45-0.03,3.59-0.41c1.14-0.38,2.24-1,3.28-1.86c0.03,0.11,0.08,0.34,0.15,0.68
		c0.15,0.76,0.29,1.33,0.4,1.72l5.61,0.47c-0.41-1.06-0.67-2.05-0.78-2.96c-0.11-0.91-0.09-2.31,0.07-4.19l0.61-6.62
		c0.2-2.46,0.09-4.18-0.34-5.14c-0.43-0.96-1.23-1.8-2.42-2.5c-1.19-0.7-3.05-1.16-5.58-1.37c-2.79-0.23-4.93,0.09-6.42,0.97
		c-1.5,0.88-2.62,2.33-3.37,4.36l5.07,1.35C1767.04,415.16,1767.56,414.5,1768.16,414.15 M1744.02,413.3c1-0.99,2.2-1.43,3.58-1.32
		c1.33,0.11,2.4,0.75,3.22,1.91c0.81,1.16,1.12,2.87,0.94,5.12c-0.2,2.41-0.78,4.11-1.74,5.09c-0.96,0.98-2.1,1.42-3.42,1.31
		c-1.37-0.11-2.49-0.79-3.35-2.01c-0.86-1.23-1.19-3.05-0.99-5.46C1742.43,415.84,1743.02,414.3,1744.02,413.3 M1735.04,436.71
		l5.67,0.47l0.9-10.8c0.97,1.23,1.91,2.13,2.84,2.68c0.92,0.55,1.98,0.87,3.16,0.97c2.49,0.21,4.69-0.61,6.61-2.45
		c1.91-1.84,3.02-4.55,3.32-8.13c0.29-3.49-0.35-6.28-1.93-8.37c-1.57-2.1-3.6-3.25-6.09-3.45c-1.43-0.12-2.75,0.11-3.98,0.69
		c-1.23,0.57-2.23,1.37-3,2.39l0.26-3.15l-5.29-0.44L1735.04,436.71z M1714.34,425.48c1.6,1.33,3.87,2.11,6.79,2.35
		c3.22,0.27,5.7-0.24,7.46-1.51c1.76-1.27,2.72-2.9,2.89-4.86c0.15-1.8-0.33-3.26-1.43-4.37c-1.12-1.1-3.16-2.11-6.12-3.05
		c-2.96-0.94-4.69-1.62-5.17-2.03c-0.35-0.31-0.51-0.67-0.48-1.08c0.04-0.47,0.28-0.84,0.74-1.1c0.68-0.36,1.77-0.48,3.26-0.36
		c1.18,0.1,2.08,0.4,2.68,0.89c0.6,0.5,0.98,1.17,1.14,2.03l5.43-0.54c-0.38-1.92-1.25-3.41-2.59-4.48
		c-1.35-1.08-3.49-1.73-6.42-1.98c-3.08-0.26-5.41,0.19-6.98,1.33c-1.57,1.14-2.44,2.64-2.59,4.5c-0.17,2.06,0.54,3.74,2.14,5.04
		c1.16,0.94,3.98,2.1,8.47,3.49c0.96,0.31,1.57,0.61,1.84,0.9c0.24,0.3,0.35,0.67,0.32,1.1c-0.05,0.63-0.34,1.12-0.87,1.45
		c-0.79,0.48-1.91,0.65-3.38,0.53c-1.33-0.11-2.34-0.48-3.04-1.12c-0.69-0.63-1.11-1.51-1.26-2.63l-5.76,0.39
		C1711.76,422.46,1712.74,424.16,1714.34,425.48 M1695.38,403.62l0.63-7.57l-5.97,2.84l-0.36,4.26l-2.6-0.22l-0.38,4.52l2.6,0.22
		l-0.78,9.35c-0.17,2.01-0.22,3.34-0.15,4.01c0.07,0.94,0.27,1.7,0.61,2.28c0.34,0.58,0.9,1.07,1.7,1.48
		c0.79,0.41,1.7,0.66,2.72,0.75c1.67,0.14,3.19-0.02,4.55-0.48l-0.12-4.44c-1.02,0.28-1.8,0.4-2.32,0.36
		c-0.38-0.03-0.69-0.15-0.94-0.36c-0.25-0.21-0.4-0.46-0.45-0.76c-0.05-0.3,0-1.32,0.15-3.07l0.72-8.64l3.88,0.32l0.38-4.52
		L1695.38,403.62z M1681.7,403.7c-1.45-1.25-3.48-1.99-6.09-2.2c-3.19-0.26-5.8,0.51-7.83,2.33c-2.04,1.82-3.2,4.49-3.49,8.03
		c-0.29,3.5,0.41,6.31,2.11,8.45c1.7,2.13,4.11,3.33,7.25,3.59c2.76,0.23,5.01-0.24,6.76-1.41c1.75-1.17,3.02-3.01,3.81-5.51
		l-5.49-1.41c-0.41,1.47-0.98,2.48-1.72,3.04c-0.74,0.56-1.64,0.79-2.72,0.7c-1.44-0.12-2.54-0.74-3.31-1.86
		c-0.77-1.12-1.04-2.95-0.83-5.5c0.19-2.29,0.75-3.88,1.67-4.79c0.92-0.91,2.09-1.3,3.51-1.18c1.06,0.09,1.9,0.44,2.52,1.06
		c0.62,0.62,0.98,1.5,1.07,2.63l5.68-0.54C1684.12,406.75,1683.15,404.95,1681.7,403.7 M1646.96,408.54
		c0.12-1.55,0.61-2.74,1.5-3.58c0.88-0.83,1.94-1.2,3.18-1.1c1.16,0.1,2.11,0.61,2.84,1.53c0.74,0.92,1.06,2.21,0.96,3.85
		L1646.96,408.54z M1653.07,417.18c-0.65,0.43-1.41,0.61-2.3,0.54c-1.31-0.11-2.36-0.67-3.16-1.68c-0.8-1.01-1.14-2.36-1.05-4.04
		l14.21,1.18c0.44-4.34-0.17-7.64-1.84-9.9c-1.67-2.26-4.1-3.52-7.29-3.79c-2.84-0.24-5.27,0.57-7.3,2.43
		c-2.02,1.86-3.18,4.56-3.48,8.11c-0.25,2.98,0.26,5.5,1.51,7.57c1.59,2.58,4.24,4.03,7.97,4.34c2.36,0.19,4.36-0.18,6.02-1.14
		c1.66-0.95,2.94-2.44,3.84-4.45l-5.57-1.42C1654.24,416,1653.72,416.75,1653.07,417.18 M1631.83,398.34l-1.7,20.45
		c-0.15,1.75-0.29,2.79-0.44,3.14c-0.15,0.34-0.42,0.62-0.81,0.84c-0.39,0.22-0.88,0.3-1.45,0.26c-0.2-0.02-0.42-0.05-0.65-0.11
		c-0.23-0.05-0.48-0.12-0.75-0.19l-1.39,4.76c0.74,0.26,1.43,0.48,2.07,0.63c0.64,0.15,1.25,0.26,1.81,0.3
		c1.58,0.13,2.9-0.08,3.97-0.63c1.07-0.55,1.83-1.37,2.28-2.46c0.45-1.1,0.79-3.01,1.02-5.74l1.73-20.77L1631.83,398.34z
		 M1637.75,395.91l0.44-5.25l-5.67-0.47l-0.44,5.25L1637.75,395.91z M1612.23,402.59c1.1-1.05,2.4-1.51,3.88-1.39
		c1.48,0.12,2.67,0.79,3.58,2.01c0.91,1.21,1.27,2.87,1.1,4.97c-0.18,2.15-0.82,3.75-1.91,4.8c-1.1,1.05-2.39,1.51-3.87,1.39
		c-1.48-0.12-2.68-0.79-3.59-2.01c-0.92-1.21-1.28-2.88-1.11-5.01C1610.49,405.22,1611.13,403.64,1612.23,402.59 M1605.4,412.94
		c0.79,1.79,2.03,3.21,3.74,4.24c1.71,1.04,3.55,1.64,5.51,1.8c3.18,0.26,5.9-0.58,8.17-2.54c2.27-1.96,3.54-4.56,3.81-7.8
		c0.27-3.22-0.55-5.96-2.45-8.24c-1.89-2.28-4.47-3.55-7.71-3.82c-2.1-0.18-4.04,0.13-5.82,0.92c-1.78,0.79-3.21,2.02-4.28,3.71
		c-1.08,1.69-1.69,3.47-1.85,5.35C1604.32,409.02,1604.61,411.15,1605.4,412.94 M1594.81,410.19c0.3-3.65,0.66-6.03,1.07-7.15
		c0.41-1.12,0.91-1.87,1.5-2.26c0.59-0.39,1.28-0.55,2.07-0.49c0.82,0.07,1.68,0.45,2.59,1.15l2.17-4.8
		c-1.14-0.81-2.35-1.27-3.64-1.38c-0.92-0.08-1.75,0.09-2.51,0.48c-0.76,0.4-1.65,1.28-2.67,2.64l0.25-3.05l-5.27-0.44l-1.78,21.44
		l5.67,0.47L1594.81,410.19z M1571.72,398.99c1-0.99,2.2-1.43,3.59-1.32c1.33,0.11,2.4,0.75,3.22,1.91
		c0.81,1.16,1.12,2.87,0.94,5.12c-0.2,2.41-0.78,4.1-1.74,5.09c-0.96,0.98-2.1,1.42-3.42,1.31c-1.37-0.11-2.49-0.79-3.35-2.02
		c-0.86-1.23-1.19-3.05-0.99-5.46C1570.13,401.53,1570.71,399.98,1571.72,398.99 M1562.74,422.4l5.67,0.47l0.9-10.8
		c0.97,1.23,1.91,2.13,2.84,2.67c0.92,0.55,1.98,0.88,3.16,0.98c2.49,0.2,4.69-0.61,6.61-2.45c1.91-1.84,3.02-4.55,3.32-8.13
		c0.29-3.49-0.35-6.28-1.93-8.37c-1.58-2.1-3.61-3.25-6.1-3.45c-1.43-0.12-2.75,0.11-3.98,0.69c-1.23,0.57-2.23,1.37-3,2.39
		l0.26-3.15l-5.29-0.44L1562.74,422.4z M1537.26,394.97l3.15,0.26l-1.41,16.98l5.67,0.47l1.41-16.97l4.24,0.35l0.37-4.46l-4.24-0.35
		l0.13-1.51c0.09-1.09,0.33-1.81,0.72-2.17c0.39-0.36,0.99-0.5,1.82-0.43c0.83,0.07,1.69,0.25,2.58,0.54l1.1-3.9
		c-1.51-0.61-3.07-0.98-4.68-1.12c-1.58-0.13-2.9,0.04-3.98,0.51c-1.08,0.47-1.84,1.14-2.3,1.99c-0.46,0.86-0.76,2.19-0.91,3.99
		l-0.13,1.61l-3.15-0.26L1537.26,394.97z M1520.39,394.95c1.1-1.04,2.4-1.51,3.88-1.38c1.48,0.12,2.67,0.79,3.58,2
		c0.91,1.21,1.27,2.87,1.1,4.97c-0.18,2.15-0.82,3.75-1.91,4.8s-2.38,1.51-3.86,1.39c-1.48-0.12-2.68-0.79-3.59-2.01
		c-0.92-1.21-1.29-2.89-1.11-5.01S1519.28,396,1520.39,394.95 M1513.55,405.31c0.79,1.8,2.03,3.21,3.74,4.25
		c1.71,1.04,3.55,1.64,5.51,1.8c3.18,0.26,5.9-0.58,8.17-2.54c2.27-1.96,3.54-4.56,3.81-7.8c0.27-3.22-0.55-5.96-2.44-8.24
		c-1.9-2.28-4.47-3.55-7.71-3.82c-2.1-0.17-4.04,0.13-5.82,0.92c-1.78,0.79-3.21,2.03-4.28,3.71c-1.08,1.68-1.69,3.47-1.85,5.35
		C1512.48,401.39,1512.77,403.52,1513.55,405.31 M1495.78,408.62l2.46-29.59l-5.67-0.47l-2.46,29.59L1495.78,408.62z
		 M1479.71,398.06c-0.11,1.36-0.26,2.28-0.45,2.75c-0.28,0.72-0.78,1.31-1.51,1.76c-0.98,0.59-1.99,0.85-3.01,0.77
		c-0.92-0.08-1.64-0.43-2.19-1.06c-0.54-0.63-0.78-1.34-0.72-2.13c0.07-0.81,0.49-1.44,1.28-1.91c0.51-0.28,1.57-0.53,3.17-0.73
		c1.6-0.2,2.78-0.4,3.53-0.58L1479.71,398.06z M1474.14,389.72c0.6-0.35,1.4-0.48,2.41-0.4c1.49,0.13,2.49,0.44,2.99,0.95
		c0.5,0.51,0.7,1.31,0.61,2.4l-0.05,0.56c-1.06,0.35-2.93,0.66-5.63,0.94c-1.99,0.21-3.54,0.53-4.62,0.95
		c-1.08,0.42-1.96,1.08-2.61,1.98c-0.66,0.9-1.04,1.96-1.14,3.17c-0.15,1.83,0.36,3.4,1.53,4.7c1.17,1.31,2.86,2.05,5.07,2.23
		c1.25,0.11,2.45-0.03,3.59-0.41c1.14-0.38,2.24-1,3.29-1.86c0.03,0.11,0.08,0.34,0.15,0.68c0.15,0.76,0.29,1.33,0.41,1.72
		l5.61,0.47c-0.41-1.06-0.67-2.05-0.78-2.96c-0.11-0.91-0.08-2.31,0.07-4.19l0.61-6.62c0.2-2.46,0.09-4.18-0.33-5.14
		c-0.43-0.96-1.24-1.8-2.42-2.5c-1.19-0.7-3.05-1.16-5.58-1.37c-2.79-0.23-4.93,0.09-6.42,0.97c-1.5,0.88-2.62,2.33-3.37,4.35
		l5.07,1.36C1473.02,390.73,1473.54,390.07,1474.14,389.72 M1455.13,405.24l10.3-20.73l-5.84-0.49l-4.98,10.6
		c-0.27,0.59-0.52,1.18-0.76,1.76c-0.11,0.29-0.35,0.89-0.74,1.79l-0.86-3.75l-3.13-11.28l-5.96-0.5l6.86,22.16L1455.13,405.24z
		 M1438.31,403.85l1.78-21.44l-5.67-0.47l-1.78,21.44L1438.31,403.85z M1440.33,379.5l0.44-5.25l-5.67-0.47l-0.44,5.25
		L1440.33,379.5z M1426.61,381.29l0.63-7.57l-5.97,2.84l-0.35,4.26l-2.6-0.22l-0.38,4.52l2.6,0.22l-0.78,9.35
		c-0.16,2.01-0.22,3.34-0.15,4.01c0.07,0.94,0.28,1.7,0.61,2.28c0.34,0.58,0.9,1.07,1.7,1.48c0.79,0.41,1.7,0.66,2.72,0.75
		c1.67,0.14,3.19-0.02,4.55-0.48l-0.12-4.44c-1.03,0.28-1.8,0.4-2.33,0.36c-0.38-0.03-0.69-0.15-0.93-0.36
		c-0.25-0.21-0.4-0.46-0.45-0.76c-0.05-0.3,0-1.32,0.14-3.07l0.72-8.64l3.88,0.32l0.38-4.52L1426.61,381.29z M1397.33,399.14
		c1.6,1.33,3.86,2.11,6.79,2.35c3.22,0.27,5.7-0.24,7.46-1.51c1.76-1.28,2.72-2.9,2.88-4.86c0.15-1.8-0.32-3.26-1.43-4.36
		c-1.12-1.1-3.16-2.11-6.12-3.05c-2.96-0.94-4.69-1.62-5.17-2.03c-0.35-0.32-0.51-0.67-0.48-1.08c0.04-0.47,0.29-0.84,0.74-1.1
		c0.68-0.36,1.77-0.48,3.26-0.36c1.18,0.1,2.08,0.4,2.68,0.89c0.6,0.5,0.98,1.17,1.14,2.03l5.43-0.55
		c-0.38-1.91-1.25-3.41-2.59-4.48c-1.35-1.07-3.49-1.73-6.42-1.97c-3.08-0.26-5.41,0.19-6.98,1.33c-1.57,1.14-2.43,2.64-2.59,4.5
		c-0.17,2.06,0.54,3.74,2.14,5.04c1.16,0.94,3.98,2.1,8.47,3.49c0.96,0.31,1.58,0.61,1.84,0.9c0.25,0.3,0.35,0.67,0.32,1.1
		c-0.05,0.63-0.34,1.12-0.87,1.45c-0.78,0.48-1.91,0.65-3.38,0.53c-1.33-0.11-2.34-0.48-3.04-1.12c-0.69-0.63-1.12-1.51-1.27-2.64
		l-5.76,0.4C1394.74,396.12,1395.73,397.81,1397.33,399.14 M1378.19,386.21c0.11-1.55,0.61-2.74,1.5-3.57
		c0.88-0.83,1.94-1.2,3.18-1.1c1.16,0.1,2.1,0.61,2.84,1.53c0.74,0.92,1.06,2.21,0.96,3.85L1378.19,386.21z M1384.3,394.85
		c-0.65,0.44-1.41,0.61-2.3,0.54c-1.31-0.11-2.36-0.67-3.15-1.67c-0.8-1.01-1.15-2.36-1.05-4.04l14.21,1.18
		c0.44-4.34-0.17-7.64-1.84-9.9c-1.67-2.26-4.1-3.52-7.29-3.79c-2.84-0.24-5.27,0.57-7.3,2.43c-2.03,1.86-3.18,4.56-3.48,8.11
		c-0.25,2.97,0.25,5.49,1.51,7.56c1.59,2.59,4.25,4.03,7.97,4.34c2.36,0.2,4.36-0.18,6.02-1.14c1.66-0.95,2.94-2.44,3.84-4.45
		l-5.57-1.42C1385.47,393.67,1384.95,394.41,1384.3,394.85 M1358.05,380.09l3.15,0.26l-1.41,16.97l5.67,0.47l1.41-16.98l4.24,0.35
		l0.37-4.46l-4.24-0.35l0.13-1.51c0.09-1.09,0.33-1.81,0.72-2.17c0.39-0.35,0.99-0.5,1.82-0.43c0.83,0.07,1.69,0.25,2.58,0.54
		l1.1-3.89c-1.51-0.61-3.07-0.99-4.68-1.12c-1.58-0.13-2.9,0.04-3.97,0.51c-1.08,0.47-1.84,1.14-2.3,1.99
		c-0.46,0.86-0.76,2.19-0.91,3.99l-0.13,1.62l-3.15-0.26L1358.05,380.09z M1329.95,382.2c0.11-1.55,0.61-2.74,1.5-3.57
		s1.94-1.2,3.18-1.1c1.16,0.1,2.1,0.61,2.84,1.53c0.74,0.92,1.06,2.21,0.96,3.85L1329.95,382.2z M1336.06,390.84
		c-0.65,0.44-1.41,0.61-2.3,0.54c-1.31-0.11-2.36-0.67-3.15-1.67c-0.8-1.01-1.15-2.36-1.05-4.04l14.21,1.18
		c0.44-4.34-0.17-7.64-1.84-9.9c-1.67-2.26-4.1-3.52-7.29-3.79c-2.84-0.24-5.27,0.57-7.3,2.43c-2.03,1.86-3.18,4.56-3.48,8.11
		c-0.25,2.97,0.25,5.49,1.51,7.56c1.59,2.59,4.24,4.03,7.97,4.34c2.36,0.2,4.36-0.18,6.02-1.14c1.66-0.95,2.94-2.44,3.83-4.45
		l-5.57-1.42C1337.23,389.66,1336.71,390.41,1336.06,390.84 M1301.83,362.71l-2.46,29.59l5.67,0.47l0.89-10.74
		c0.15-1.8,0.44-3.15,0.85-4.05c0.42-0.89,1.02-1.54,1.8-1.93c0.78-0.4,1.64-0.55,2.58-0.48c0.82,0.07,1.49,0.3,2,0.71
		c0.52,0.4,0.86,0.91,1.02,1.54c0.17,0.62,0.15,2.06-0.03,4.3l-0.94,11.32l5.67,0.47l1.05-12.58c0.16-1.93,0.18-3.35,0.06-4.28
		c-0.12-0.93-0.41-1.8-0.88-2.59c-0.47-0.8-1.21-1.48-2.22-2.05c-1.01-0.57-2.17-0.91-3.47-1.02c-2.54-0.21-4.82,0.68-6.83,2.67
		l0.9-10.88L1301.83,362.71z M1286.82,391.26l2.04-24.59l8.76,0.73l0.42-5.01l-23.52-1.95l-0.42,5.01l8.78,0.73l-2.04,24.59
		L1286.82,391.26z"/>
	
		<path style="clip-path:url(#SVGID_00000044858752667080563040000012983056972654923408_);fill:none;stroke:#FFFFFF;stroke-width:2.2762;" d="
		M387.15,600.3c0,0,192.58,44.81,200.64,151.68"/>
	<path style="clip-path:url(#SVGID_00000044858752667080563040000012983056972654923408_);fill:#FFFFFF;" d="M387.15,604.85
		c2.52,0,4.55-2.04,4.55-4.55s-2.04-4.55-4.55-4.55c-2.52,0-4.55,2.04-4.55,4.55S384.64,604.85,387.15,604.85"/>
	<path style="clip-path:url(#SVGID_00000044858752667080563040000012983056972654923408_);fill:#FFFFFF;" d="M587.8,756.53
		c2.52,0,4.55-2.04,4.55-4.55c0-2.52-2.04-4.55-4.55-4.55c-2.52,0-4.55,2.04-4.55,4.55C583.24,754.49,585.28,756.53,587.8,756.53"/>
	
		<path style="clip-path:url(#SVGID_00000044858752667080563040000012983056972654923408_);fill:none;stroke:#FFFFFF;stroke-width:2.2762;" d="
		M515.55,415.56c0,0,625.3,155.19,795.98,24.54"/>
	<path style="clip-path:url(#SVGID_00000044858752667080563040000012983056972654923408_);fill:#FFFFFF;" d="M515.55,420.12
		c2.52,0,4.55-2.04,4.55-4.55s-2.04-4.55-4.55-4.55s-4.55,2.04-4.55,4.55S513.03,420.12,515.55,420.12"/>
	<path style="clip-path:url(#SVGID_00000044858752667080563040000012983056972654923408_);fill:#FFFFFF;" d="M1311.53,444.66
		c2.52,0,4.55-2.04,4.55-4.55s-2.04-4.55-4.55-4.55s-4.55,2.04-4.55,4.55S1309.02,444.66,1311.53,444.66"/>
	
		<path style="clip-path:url(#SVGID_00000044858752667080563040000012983056972654923408_);fill:none;stroke:#FFFFFF;stroke-width:2.2762;" d="
		M809.69,112.13c0,0,72.81,228.88,401.87,266.79"/>
	<path style="clip-path:url(#SVGID_00000044858752667080563040000012983056972654923408_);fill:#FFFFFF;" d="M809.69,116.68
		c2.52,0,4.55-2.04,4.55-4.55c0-2.52-2.04-4.55-4.55-4.55c-2.52,0-4.55,2.04-4.55,4.55C805.14,114.65,807.18,116.68,809.69,116.68"
		/>
	<path style="clip-path:url(#SVGID_00000044858752667080563040000012983056972654923408_);fill:#FFFFFF;" d="M1211.56,383.47
		c2.52,0,4.55-2.04,4.55-4.55s-2.04-4.55-4.55-4.55c-2.52,0-4.55,2.04-4.55,4.55S1209.05,383.47,1211.56,383.47"/>
	
		<path style="clip-path:url(#SVGID_00000044858752667080563040000012983056972654923408_);fill:none;stroke:#FFFFFF;stroke-width:2.2762;" d="
		M1200.66,84.67c0,0,701.81-129.9,642.67,270.25"/>
	<path style="clip-path:url(#SVGID_00000044858752667080563040000012983056972654923408_);fill:#FFFFFF;" d="M1200.66,89.22
		c2.52,0,4.55-2.04,4.55-4.55c0-2.52-2.04-4.55-4.55-4.55s-4.55,2.04-4.55,4.55C1196.11,87.19,1198.14,89.22,1200.66,89.22"/>
	<path style="clip-path:url(#SVGID_00000044858752667080563040000012983056972654923408_);fill:#FFFFFF;" d="M1843.33,359.47
		c2.52,0,4.55-2.04,4.55-4.55s-2.04-4.55-4.55-4.55c-2.52,0-4.55,2.04-4.55,4.55S1840.81,359.47,1843.33,359.47"/>
	
		<path style="clip-path:url(#SVGID_00000044858752667080563040000012983056972654923408_);fill:none;stroke:#FFFFFF;stroke-width:2.2762;" d="
		M947.55,642.03c0,0,815.74,17.8,802.69-164.97"/>
	<path style="clip-path:url(#SVGID_00000044858752667080563040000012983056972654923408_);fill:#FFFFFF;" d="M947.55,646.58
		c2.52,0,4.55-2.04,4.55-4.55c0-2.52-2.04-4.55-4.55-4.55c-2.52,0-4.55,2.04-4.55,4.55C943,644.54,945.04,646.58,947.55,646.58"/>
	<path style="clip-path:url(#SVGID_00000044858752667080563040000012983056972654923408_);fill:#FFFFFF;" d="M1750.24,481.61
		c2.52,0,4.55-2.04,4.55-4.55s-2.04-4.55-4.55-4.55s-4.55,2.04-4.55,4.55S1747.73,481.61,1750.24,481.61"/>
	
		<path style="clip-path:url(#SVGID_00000044858752667080563040000012983056972654923408_);fill:none;stroke:#FFFFFF;stroke-width:2.2762;" d="
		M688.14,714.94c0-5.64-119.08-254.37-15.85-573.75"/>
	<path style="clip-path:url(#SVGID_00000044858752667080563040000012983056972654923408_);fill:#FFFFFF;" d="M688.14,719.5
		c2.52,0,4.55-2.04,4.55-4.55c0-2.52-2.04-4.55-4.55-4.55c-2.52,0-4.55,2.04-4.55,4.55C683.59,717.46,685.63,719.5,688.14,719.5"/>
	<path style="clip-path:url(#SVGID_00000044858752667080563040000012983056972654923408_);fill:#FFFFFF;" d="M672.3,145.75
		c2.52,0,4.55-2.04,4.55-4.55s-2.04-4.55-4.55-4.55c-2.52,0-4.55,2.04-4.55,4.55S669.78,145.75,672.3,145.75"/>
	
		<path style="clip-path:url(#SVGID_00000044858752667080563040000012983056972654923408_);fill:none;stroke:#FFFFFF;stroke-width:2.2762;" d="
		M529.98,825.02c0,0-549.54,181.88-435.02-218.38"/>
	<path style="clip-path:url(#SVGID_00000044858752667080563040000012983056972654923408_);fill:#FFFFFF;" d="M529.98,829.58
		c2.52,0,4.55-2.04,4.55-4.55c0-2.52-2.04-4.55-4.55-4.55c-2.52,0-4.55,2.04-4.55,4.55C525.43,827.54,527.46,829.58,529.98,829.58"
		/>
	<path style="clip-path:url(#SVGID_00000044858752667080563040000012983056972654923408_);fill:#FFFFFF;" d="M94.96,611.2
		c2.52,0,4.55-2.04,4.55-4.55s-2.04-4.55-4.55-4.55s-4.55,2.04-4.55,4.55S92.44,611.2,94.96,611.2"/>
	
		<path style="clip-path:url(#SVGID_00000044858752667080563040000012983056972654923408_);fill:none;stroke:#FFFFFF;stroke-width:2.2762;" d="
		M794.11,714.95c0,0-5.44-488.82-255.46-484.79"/>
	<path style="clip-path:url(#SVGID_00000044858752667080563040000012983056972654923408_);fill:#FFFFFF;" d="M794.11,719.5
		c2.52,0,4.55-2.04,4.55-4.55c0-2.52-2.04-4.55-4.55-4.55c-2.52,0-4.55,2.04-4.55,4.55C789.56,717.46,791.59,719.5,794.11,719.5"/>
	<path style="clip-path:url(#SVGID_00000044858752667080563040000012983056972654923408_);fill:#FFFFFF;" d="M538.65,234.71
		c2.52,0,4.55-2.04,4.55-4.55c0-2.52-2.04-4.55-4.55-4.55c-2.52,0-4.55,2.04-4.55,4.55C534.1,232.67,536.14,234.71,538.65,234.71"/>
</g>
<path class="st2" d="M846.22,903.26"/>
<g>
	<defs>
		<rect id="SVGID_00000017518393515698489290000007963527342411874960_" x="33.45" y="40.16" width="1815.31" height="923.35"/>
	</defs>
	<clipPath id="SVGID_00000078027943670625448320000016647112378421983375_">
		<use xlink:href="#SVGID_00000017518393515698489290000007963527342411874960_"  style="overflow:visible;"/>
	</clipPath>
	
		<path style="clip-path:url(#SVGID_00000078027943670625448320000016647112378421983375_);fill:none;stroke:#FFFFFF;stroke-width:2.2762;" d="
		M959.22,847.89c0,0,117.23-34.45,13.99-163.97"/>
	<path style="clip-path:url(#SVGID_00000078027943670625448320000016647112378421983375_);fill:#FFFFFF;" d="M959.22,852.45
		c2.52,0,4.55-2.04,4.55-4.55c0-2.52-2.04-4.55-4.55-4.55c-2.52,0-4.55,2.04-4.55,4.55C954.67,850.41,956.71,852.45,959.22,852.45"
		/>
	<path style="clip-path:url(#SVGID_00000078027943670625448320000016647112378421983375_);fill:#FFFFFF;" d="M973.21,688.47
		c2.52,0,4.55-2.04,4.55-4.55c0-2.52-2.04-4.55-4.55-4.55c-2.52,0-4.55,2.04-4.55,4.55C968.66,686.44,970.7,688.47,973.21,688.47"/>
	
		<path style="clip-path:url(#SVGID_00000078027943670625448320000016647112378421983375_);fill:none;stroke:#FFFFFF;stroke-width:2.2762;" d="
		M1479.87,460.31c0,0,18.58,479.05-670.99,468.3"/>
	<path style="clip-path:url(#SVGID_00000078027943670625448320000016647112378421983375_);fill:#FFFFFF;" d="M1479.87,464.86
		c2.52,0,4.55-2.04,4.55-4.55s-2.04-4.55-4.55-4.55c-2.52,0-4.55,2.04-4.55,4.55S1477.36,464.86,1479.87,464.86"/>
	<path style="clip-path:url(#SVGID_00000078027943670625448320000016647112378421983375_);fill:#FFFFFF;" d="M808.88,933.16
		c2.52,0,4.55-2.04,4.55-4.55c0-2.52-2.04-4.55-4.55-4.55c-2.52,0-4.55,2.04-4.55,4.55C804.33,931.12,806.37,933.16,808.88,933.16"
		/>
	
		<path style="clip-path:url(#SVGID_00000078027943670625448320000016647112378421983375_);fill:none;stroke:#FFFFFF;stroke-width:2.2762;" d="
		M1615.68,337.13c0,0-629.14-418.46-751.48,275.14"/>
	<path style="clip-path:url(#SVGID_00000078027943670625448320000016647112378421983375_);fill:#FFFFFF;" d="M1615.68,341.68
		c2.52,0,4.55-2.04,4.55-4.55s-2.04-4.55-4.55-4.55c-2.52,0-4.55,2.04-4.55,4.55S1613.17,341.68,1615.68,341.68"/>
	<path style="clip-path:url(#SVGID_00000078027943670625448320000016647112378421983375_);fill:#FFFFFF;" d="M864.21,616.82
		c2.52,0,4.55-2.04,4.55-4.55s-2.04-4.55-4.55-4.55c-2.52,0-4.55,2.04-4.55,4.55S861.69,616.82,864.21,616.82"/>
	
		<path style="clip-path:url(#SVGID_00000078027943670625448320000016647112378421983375_);fill:none;stroke:#FFFFFF;stroke-width:2.2762;" d="
		M178.27,563.22c0,0-120.24,523.42,460.45,371.05"/>
	<path style="clip-path:url(#SVGID_00000078027943670625448320000016647112378421983375_);fill:#FFFFFF;" d="M178.27,567.77
		c2.52,0,4.55-2.04,4.55-4.55c0-2.52-2.04-4.55-4.55-4.55c-2.52,0-4.55,2.04-4.55,4.55C173.72,565.74,175.76,567.77,178.27,567.77"
		/>
	<path style="clip-path:url(#SVGID_00000078027943670625448320000016647112378421983375_);fill:#FFFFFF;" d="M638.72,938.83
		c2.52,0,4.55-2.04,4.55-4.55c0-2.52-2.04-4.55-4.55-4.55s-4.55,2.04-4.55,4.55C634.17,936.79,636.21,938.83,638.72,938.83"/>
</g>
</svg>
