<?xml version="1.0" encoding="utf-8"?>
<!-- Generator: Adobe Illustrator 27.4.0, SVG Export Plug-In . SVG Version: 6.00 Build 0)  -->
<svg version="1.1" id="Ebene_1" xmlns="http://www.w3.org/2000/svg" xmlns:xlink="http://www.w3.org/1999/xlink" x="0px" y="0px"
	 viewBox="0 0 1000 895.34" style="enable-background:new 0 0 1000 895.34;" xml:space="preserve">
<style type="text/css">
	.st0{clip-path:url(#SVGID_00000142154786311368625370000011994073308393741732_);fill:#FFFFFF;}
	.st1{clip-path:url(#SVGID_00000142154786311368625370000011994073308393741732_);fill:none;stroke:#FFFFFF;stroke-width:1.9751;}
	.st2{fill:none;stroke:#FFFFFF;stroke-width:1.9751;}
	.st3{clip-path:url(#SVGID_00000044146128156491728510000002347841486422134685_);fill:none;stroke:#FFFFFF;stroke-width:1.9751;}
	.st4{clip-path:url(#SVGID_00000044146128156491728510000002347841486422134685_);fill:#FFFFFF;}
</style>
<g>
	<defs>
		<rect id="SVGID_1_" x="34.83" y="37.61" width="926.06" height="783.22"/>
	</defs>
	<clipPath id="SVGID_00000137100721363648784360000016527707171083201673_">
		<use xlink:href="#SVGID_1_"  style="overflow:visible;"/>
	</clipPath>
	<path style="clip-path:url(#SVGID_00000137100721363648784360000016527707171083201673_);fill:#FFFFFF;" d="M324.88,474.68
		c0.58-2.31,0.58-5.78,0-8.09c-0.58-2.31,0.87-4.04,3.18-4.04c1.73,0,3.32,1.59,3.75,3.47c0.72,2.89,0.72,6.36,0,9.24
		c-0.43,1.88-2.02,3.47-3.75,3.47C325.75,478.72,324.3,476.99,324.88,474.68 M317.37,488.26c0-2.31,1.73-4.05,4.05-4.05
		c2.31,0,4.05,1.73,4.05,4.05s-1.73,4.04-4.05,4.04C319.1,492.3,317.37,490.57,317.37,488.26 M294.26,495.04
		c0-2.31,1.73-3.76,4.05-3.18c2.31,0.58,5.78,0.58,8.09,0c2.31-0.58,4.05,0.87,4.05,3.18c0,1.73-1.59,3.32-3.47,3.76
		c-2.89,0.72-6.36,0.72-9.25,0C295.85,498.37,294.26,496.78,294.26,495.04 M278.37,411.99c0-2.17,1.73-3.76,4.05-3.76h15.02
		c2.31,0,4.04,1.59,4.04,3.76c0,2.17-1.73,3.76-4.04,3.76h-15.02C280.1,415.74,278.37,414.15,278.37,411.99 M272.16,470.63
		c0-2.31,1.73-4.05,4.05-4.05c2.31,0,4.05,1.73,4.05,4.05c0,2.31-1.73,4.05-4.05,4.05C273.89,474.68,272.16,472.94,272.16,470.63
		 M311.16,442.32c-0.72,1.01-1.88,1.73-3.32,1.73c-2.31,0-4.05-1.73-4.05-4.05s1.73-4.04,4.05-4.04c0.58,0,1.16,0.14,1.59,0.29
		c1.3,0.43,2.46,0.29,3.32-0.43l19.65-17.77v-11.84h-58.36v11.55h40.16c1.16,0,2.02-0.72,2.02-1.73c0-2.31,1.73-4.05,4.05-4.05
		c2.31,0,4.05,1.73,4.05,4.05s-1.73,4.05-4.05,4.05h-2.89c-1.45,0-2.89,0.43-4.04,1.44l-23.69,21.38l7.51,8.67
		c1.73-0.87,4.05-1.16,5.78-1.16c10.4,0,19.65,7.51,19.65,19.65c0,11.12-8.38,19.65-19.94,19.65c-11.84,0-20.22-8.38-20.22-20.22
		v-7.22h-12.42v8.09c0,18.35,13.58,31.49,32.36,31.49c18.92,0,32.93-13.29,32.93-31.49c0-13.87-8.24-25.13-20.22-29.03
		C313.33,440.87,312.03,441.16,311.16,442.32 M248.75,439.43c0.58-2.31,0.58-5.78,0-8.09c-0.58-2.31,0.87-4.04,3.18-4.04
		c1.73,0,3.32,1.59,3.76,3.47c0.72,2.89,0.72,6.36,0,9.24c-0.43,1.88-2.02,3.47-3.76,3.47
		C249.62,443.47,248.18,441.74,248.75,439.43 M242.26,417.48c0-2.31,1.73-4.05,4.04-4.05c2.31,0,4.05,1.73,4.05,4.05
		s-1.73,4.04-4.05,4.04C243.99,421.52,242.26,419.79,242.26,417.48 M232,458.93c0-2.31,1.73-4.05,4.05-4.05
		c2.31,0,4.05,1.73,4.05,4.05c0,2.31-1.73,4.04-4.05,4.04C233.73,462.98,232,461.24,232,458.93 M231.57,494.03
		c0-2.17,1.73-3.76,4.04-3.76h15.02c2.31,0,4.05,1.59,4.05,3.76s-1.73,3.76-4.05,3.76h-15.02
		C233.3,497.79,231.57,496.2,231.57,494.03 M220.88,411.26c0-1.73,1.59-3.32,3.47-3.76c2.89-0.72,6.36-0.72,9.25,0
		c1.88,0.43,3.47,2.02,3.47,3.76c0,2.31-1.73,3.76-4.05,3.18c-2.31-0.58-5.78-0.58-8.09,0
		C222.61,415.02,220.88,413.58,220.88,411.26 M210.48,475.54c-1.01-1.45-0.58-3.61,0.58-5.06c2.02-2.31,4.77-4.33,7.51-5.49
		c1.73-0.72,4.05-0.43,5.06,1.01c1.3,1.88,0.72,4.05-1.45,4.91c-2.17,0.87-5.06,2.89-6.5,4.77
		C214.09,477.56,211.92,477.42,210.48,475.54 M201.23,431.34c0-2.31,1.73-4.04,4.05-4.04c2.31,0,4.05,1.73,4.05,4.04
		c0,2.31-1.73,4.05-4.05,4.05C202.97,435.39,201.23,433.65,201.23,431.34 M216.4,487.97c-0.87,0-1.45,0.58-1.45,1.45
		c0,2.02-2.17,3.61-4.33,3.61c-2.31,0-4.05-1.73-4.05-4.05s1.73-4.05,4.05-4.05c0.87,0,1.59-0.58,1.88-1.44
		c2.89-7.8,12.13-11.7,23.4-18.06c9.24-5.2,22.82-12.13,22.82-31.2c0-17.91-12.42-29.76-29.75-29.76
		c-17.77,0-30.62,13.29-30.62,31.78c0,2.02,0.14,4.34,0.29,7.22l13-1.44c-0.43-2.31-0.58-4.19-0.58-5.78
		c0-11.41,7.66-19.93,18.2-19.93c10.26,0,17.62,7.94,17.62,19.07c0,12.71-9.82,16.76-14.73,19.36
		c-21.38,10.98-34.96,18.78-34.96,41.89v3.47h61.82v-12.13H216.4z M176.96,457.05c0.58-2.31,0.58-5.78,0-8.09
		c-0.58-2.31,0.87-4.05,3.18-4.05c1.73,0,3.32,1.59,3.76,3.47c0.72,2.89,0.72,6.36,0,9.25c-0.43,1.88-2.02,3.47-3.76,3.47
		C177.83,461.1,176.39,459.36,176.96,457.05 M168.01,482.77c0-2.31,1.73-4.04,4.04-4.04c2.31,0,4.05,1.73,4.05,4.04
		c0,2.31-1.73,4.05-4.05,4.05C169.74,486.81,168.01,485.08,168.01,482.77 M167.72,423.25c0-2.31,1.73-4.05,4.05-4.05
		c2.31,0,4.04,1.73,4.04,4.05s-1.73,4.05-4.04,4.05C169.46,427.3,167.72,425.56,167.72,423.25 M139.41,411.26
		c0-1.73,1.59-3.32,3.47-3.76c2.89-0.72,6.36-0.72,9.25,0c1.88,0.43,3.47,2.02,3.47,3.76c0,2.31-1.73,3.76-4.05,3.18
		c-2.31-0.58-5.78-0.58-8.09,0C141.14,415.02,139.41,413.58,139.41,411.26 M139.41,495.04c0-2.31,1.73-3.76,4.05-3.18
		c2.31,0.58,5.78,0.58,8.09,0c2.31-0.58,4.05,0.87,4.05,3.18c0,1.73-1.59,3.32-3.47,3.76c-2.89,0.72-6.36,0.72-9.25,0
		C141,498.37,139.41,496.78,139.41,495.04 M120.34,453.01c0-21.24,11.41-36.69,27.16-36.69c15.74,0,27.15,15.45,27.15,36.69
		c0,21.23-11.41,36.69-27.15,36.69C131.75,489.7,120.34,474.24,120.34,453.01 M119.19,423.25c0-2.31,1.73-4.05,4.04-4.05
		s4.05,1.73,4.05,4.05s-1.73,4.05-4.05,4.05S119.19,425.56,119.19,423.25 M118.9,483.06c0-2.31,1.73-4.05,4.05-4.05
		c2.31,0,4.04,1.73,4.04,4.05c0,2.31-1.73,4.05-4.04,4.05C120.63,487.1,118.9,485.37,118.9,483.06 M111.09,457.63
		c-0.72-2.89-0.72-6.36,0-9.25c0.43-1.88,2.02-3.47,3.76-3.47c2.31,0,3.76,1.73,3.18,4.05c-0.58,2.31-0.58,5.78,0,8.09
		c0.58,2.31-0.87,4.05-3.18,4.05C113.12,461.1,111.53,459.51,111.09,457.63 M147.5,501.84c23.11,0,39.87-20.51,39.87-48.68
		s-16.76-48.68-39.87-48.68c-23.12,0-39.87,20.51-39.87,48.68S124.38,501.84,147.5,501.84 M86.4,439.43c0.58-2.31,0.58-5.78,0-8.09
		c-0.58-2.31,0.87-4.04,3.18-4.04c1.73,0,3.32,1.59,3.76,3.47c0.72,2.89,0.72,6.36,0,9.24c-0.43,1.88-2.02,3.47-3.76,3.47
		C87.26,443.47,85.82,441.74,86.4,439.43 M79.9,417.48c0-2.31,1.73-4.05,4.05-4.05c2.31,0,4.04,1.73,4.04,4.05s-1.73,4.04-4.04,4.04
		C81.63,421.52,79.9,419.79,79.9,417.48 M69.64,458.93c0-2.31,1.73-4.05,4.05-4.05s4.05,1.73,4.05,4.05c0,2.31-1.73,4.04-4.05,4.04
		S69.64,461.24,69.64,458.93 M69.21,494.03c0-2.17,1.73-3.76,4.04-3.76h15.02c2.31,0,4.05,1.59,4.05,3.76s-1.73,3.76-4.05,3.76
		H73.25C70.94,497.79,69.21,496.2,69.21,494.03 M58.51,411.26c0-1.73,1.59-3.32,3.47-3.76c2.89-0.72,6.35-0.72,9.24,0
		c1.88,0.43,3.47,2.02,3.47,3.76c0,2.31-1.73,3.76-4.05,3.18c-2.31-0.58-5.78-0.58-8.09,0C60.25,415.02,58.51,413.58,58.51,411.26
		 M48.12,475.54c-1.01-1.45-0.58-3.61,0.58-5.06c2.02-2.31,4.77-4.33,7.51-5.49c1.73-0.72,4.05-0.43,5.06,1.01
		c1.3,1.88,0.72,4.05-1.45,4.91c-2.17,0.87-5.06,2.89-6.5,4.77C51.73,477.56,49.56,477.42,48.12,475.54 M38.87,431.34
		c0-2.31,1.73-4.04,4.05-4.04s4.05,1.73,4.05,4.04c0,2.31-1.73,4.05-4.05,4.05S38.87,433.65,38.87,431.34 M54.04,487.97
		c-0.87,0-1.45,0.58-1.45,1.45c0,2.02-2.17,3.61-4.33,3.61c-2.31,0-4.05-1.73-4.05-4.05s1.73-4.05,4.05-4.05
		c0.87,0,1.59-0.58,1.88-1.44c2.89-7.8,12.13-11.7,23.4-18.06c9.25-5.2,22.82-12.13,22.82-31.2c0-17.91-12.42-29.76-29.75-29.76
		c-17.77,0-30.62,13.29-30.62,31.78c0,2.02,0.14,4.34,0.29,7.22l13-1.44c-0.43-2.31-0.58-4.19-0.58-5.78
		c0-11.41,7.66-19.93,18.2-19.93c10.25,0,17.62,7.94,17.62,19.07c0,12.71-9.82,16.76-14.73,19.36
		c-21.38,10.98-34.96,18.78-34.96,41.89v3.47h61.82v-12.13H54.04z"/>
	<path style="clip-path:url(#SVGID_00000137100721363648784360000016527707171083201673_);fill:#FFFFFF;" d="M396.23,363.94
		c-1.45-1.88-1.16-4.19,0.58-5.49c1.73-1.3,4.04-0.87,5.49,1.01l5.06,7.08c1.3,1.88,1.16,4.19-0.72,5.49
		c-1.73,1.3-4.05,0.72-5.35-1.01L396.23,363.94z M390.75,301.83l8.52-12.42c1.3-1.88,3.61-2.31,5.49-1.16
		c1.73,1.3,2.02,3.61,0.72,5.49l-8.67,12.28c-1.3,1.88-3.61,2.46-5.35,1.16C389.59,306.02,389.3,303.71,390.75,301.83
		 M345.53,293.74c-1.3-1.88-1.01-4.34,0.72-5.49c1.73-1.3,4.05-0.87,5.49,1.01l8.81,12.13c1.3,1.88,1.01,4.19-0.72,5.49
		c-1.73,1.3-4.05,0.87-5.35-1.01L345.53,293.74z M344.81,366.55l5.06-7.08c1.45-1.88,3.76-2.31,5.49-1.01
		c1.73,1.3,2.02,3.61,0.58,5.49l-5.06,7.08c-1.3,1.73-3.61,2.31-5.34,1.01C343.65,370.74,343.51,368.42,344.81,366.55
		 M334.12,377.23h15.6l22.82-32.93c1.59-2.31-0.58-3.61-0.58-6.21c0-2.31,1.73-4.04,4.05-4.04c2.31,0,4.04,1.73,4.04,4.04
		c0,2.6-2.46,4.19-0.87,6.36l23.69,32.79h15.02l-34.67-47.95l32.36-45.94h-15.02l-21.38,30.91c-1.59,2.17,0.87,3.76,0.87,6.36
		c0,2.31-1.73,4.04-4.04,4.04c-2.31,0-4.05-1.73-4.05-4.04c0-2.6,2.31-4.19,0.58-6.5l-22.24-30.77h-15.31l33.22,45.94L334.12,377.23
		z M315.92,371.17c0-2.31,1.73-4.04,4.05-4.04c2.31,0,4.05,1.73,4.05,4.04c0,2.31-1.73,4.05-4.05,4.05
		C317.66,375.21,315.92,373.48,315.92,371.17 M314.77,289.12c0-2.31,1.73-4.04,4.05-4.04c2.31,0,4.05,1.73,4.05,4.04
		c0,2.31-1.73,4.05-4.05,4.05C316.5,293.16,314.77,291.43,314.77,289.12 M299.17,329.28c0-2.17,1.73-3.76,4.05-3.76h8.67
		c2.31,0,4.04,1.59,4.04,3.76c0,2.17-1.73,3.75-4.04,3.75h-8.67C300.9,333.03,299.17,331.44,299.17,329.28 M288.19,289.12
		c0-2.17,1.73-3.76,4.05-3.76h8.67c2.31,0,4.04,1.59,4.04,3.76c0,2.17-1.73,3.76-4.04,3.76h-8.67
		C289.92,292.87,288.19,291.29,288.19,289.12 M285.3,371.17c0-2.17,1.73-3.76,4.05-3.76h15.02c2.31,0,4.04,1.59,4.04,3.76
		c0,2.17-1.73,3.76-4.04,3.76h-15.02C287.03,374.92,285.3,373.33,285.3,371.17 M263.06,377.23h65.29v-11.84H281.4
		c-1.16,0-2.17,0.72-2.6,1.88c-0.58,1.3-2.02,2.17-3.61,2.17c-2.31,0-4.05-1.73-4.05-4.05c0-1.59,0.87-3.04,2.17-3.61
		c1.16-0.43,1.88-1.45,1.88-2.6v-17.91c0-1.16-0.72-2.17-1.88-2.6c-1.3-0.58-2.17-2.02-2.17-3.61c0-2.31,1.73-4.05,4.05-4.05
		c1.59,0,3.03,0.87,3.61,2.17c0.43,1.16,1.45,1.88,2.6,1.88h38.86V323.5H281.4c-1.16,0-2.17,0.72-2.6,1.88
		c-0.58,1.3-2.02,2.17-3.61,2.17c-2.31,0-4.05-1.73-4.05-4.05c0-1.59,0.87-3.03,2.17-3.61c1.16-0.43,1.88-1.45,1.88-2.6v-16.18
		c0-1.16-0.72-2.17-1.88-2.6c-1.3-0.58-2.17-2.02-2.17-3.61c0-2.31,1.73-4.05,4.05-4.05c1.59,0,3.03,0.87,3.61,2.17
		c0.43,1.16,1.45,1.88,2.6,1.88h45.79v-11.56h-64.13V377.23z M237.63,334.19c0.58-2.31,0.58-5.78,0-8.09
		c-0.58-2.31,0.87-4.05,3.18-4.05c1.73,0,3.32,1.59,3.76,3.47c0.72,2.89,0.72,6.35,0,9.24c-0.43,1.88-2.02,3.47-3.76,3.47
		C238.5,338.23,237.05,336.5,237.63,334.19 M226.08,360.19c0-2.31,1.73-4.04,4.05-4.04c2.31,0,4.05,1.73,4.05,4.04
		c0,2.31-1.73,4.05-4.05,4.05C227.81,364.23,226.08,362.5,226.08,360.19 M225.5,300.1c0-2.31,1.73-4.04,4.05-4.04
		c2.31,0,4.04,1.73,4.04,4.04c0,2.31-1.73,4.05-4.04,4.05C227.23,304.14,225.5,302.41,225.5,300.1 M195.74,371.17
		c0-2.17,1.73-3.76,4.05-3.76h8.67c2.31,0,4.05,1.59,4.05,3.76c0,2.17-1.73,3.76-4.05,3.76h-8.67
		C197.48,374.92,195.74,373.33,195.74,371.17 M192.27,289.12c0-2.17,1.73-3.76,4.05-3.76h8.67c2.31,0,4.04,1.59,4.04,3.76
		c0,2.17-1.73,3.76-4.04,3.76h-8.67C194.01,292.87,192.27,291.29,192.27,289.12 M175.23,365.39c0-1.59,0.87-3.04,2.17-3.61
		c1.16-0.43,1.88-1.45,1.88-2.6v-58.07c0-1.16-0.72-2.17-1.88-2.6c-1.3-0.58-2.17-2.02-2.17-3.61c0-2.31,1.73-4.05,4.05-4.05
		c1.59,0,3.03,0.87,3.61,2.17c0.43,1.16,1.45,1.88,2.6,1.88h16.32c19.5,0,33.51,14.88,33.51,35.53c0,20.22-13.29,34.96-31.78,34.96
		h-18.06c-1.16,0-2.17,0.72-2.6,1.88c-0.58,1.3-2.02,2.17-3.61,2.17C176.96,369.44,175.23,367.7,175.23,365.39 M169.45,339.68
		v-15.02c0-2.31,1.59-4.04,3.76-4.04c2.17,0,3.76,1.73,3.76,4.04v15.02c0,2.31-1.59,4.05-3.76,4.05
		C171.04,343.72,169.45,341.99,169.45,339.68 M167.14,377.23h37.56c25.57,0,43.33-20.51,43.33-47.09c0-28.02-19.79-46.8-45.64-46.8
		h-35.25V377.23z M137.67,300.39v-8.67c0-2.31,1.59-4.04,3.76-4.04c2.17,0,3.76,1.73,3.76,4.04v8.67c0,2.31-1.59,4.05-3.76,4.05
		C139.26,304.43,137.67,302.7,137.67,300.39 M137.67,335.63v-15.02c0-2.31,1.59-4.05,3.76-4.05c2.17,0,3.76,1.73,3.76,4.05v15.02
		c0,2.31-1.59,4.05-3.76,4.05C139.26,339.68,137.67,337.94,137.67,335.63 M108.21,334.77c-1.3-1.88-1.01-4.19,0.87-5.49
		c1.73-1.16,4.05-0.58,5.35,1.3l4.77,7.23c1.3,1.88,1.01,4.19-0.87,5.49c-1.73,1.16-4.05,0.58-5.35-1.3L108.21,334.77z
		 M95.35,315.12c0-2.31,1.73-4.05,4.05-4.05c2.31,0,4.05,1.73,4.05,4.05c0,2.31-1.73,4.05-4.05,4.05
		C97.08,319.17,95.35,317.43,95.35,315.12 M72.96,339.68v-15.02c0-2.31,1.59-4.04,3.76-4.04c2.17,0,3.76,1.73,3.76,4.04v15.02
		c0,2.31-1.59,4.05-3.76,4.05C74.55,343.72,72.96,341.99,72.96,339.68 M72.96,368.57v-8.67c0-2.31,1.59-4.04,3.76-4.04
		c2.17,0,3.76,1.73,3.76,4.04v8.67c0,2.31-1.59,4.05-3.76,4.05C74.55,372.61,72.96,370.88,72.96,368.57 M70.65,377.23h12.13v-71.65
		c0-1.16-0.72-2.02-1.73-2.02c-2.31,0-4.05-1.73-4.05-4.05c0-2.31,1.73-4.05,4.05-4.05c2.31,0,4.05,1.73,4.05,4.05v2.6
		c0,1.45,0.43,3.32,1.16,4.33l47.38,70.78h13.87v-93.89h-12.13v70.49c0,1.16,0.72,2.02,1.73,2.02c2.31,0,4.05,1.73,4.05,4.04
		c0,2.31-1.73,4.05-4.05,4.05c-2.31,0-4.04-1.73-4.04-4.05v-2.6c0-1.45-0.43-3.32-1.16-4.34l-45.93-69.62H70.65V377.23z
		 M41.18,339.68v-15.02c0-2.31,1.59-4.04,3.76-4.04c2.17,0,3.76,1.73,3.76,4.04v15.02c0,2.31-1.59,4.05-3.76,4.05
		C42.77,343.72,41.18,341.99,41.18,339.68 M41.18,368.57v-8.67c0-2.31,1.59-4.04,3.76-4.04c2.17,0,3.76,1.73,3.76,4.04v8.67
		c0,2.31-1.59,4.05-3.76,4.05C42.77,372.61,41.18,370.88,41.18,368.57 M40.89,291.72c0-2.31,1.73-4.04,4.05-4.04
		c2.31,0,4.05,1.73,4.05,4.04s-1.73,4.05-4.05,4.05C42.63,295.76,40.89,294.03,40.89,291.72 M38.87,377.23H51v-93.89H38.87V377.23z"
		/>
	<path style="clip-path:url(#SVGID_00000137100721363648784360000016527707171083201673_);fill:#FFFFFF;" d="M429.75,248.3
		c0-2.31,1.73-4.05,4.05-4.05c2.31,0,4.04,1.73,4.04,4.05c0,2.31-1.73,4.05-4.04,4.05C431.49,252.35,429.75,250.61,429.75,248.3
		 M428.6,166.25c0-2.31,1.73-4.05,4.05-4.05s4.04,1.73,4.04,4.05c0,2.31-1.73,4.05-4.04,4.05S428.6,168.56,428.6,166.25 M413,206.41
		c0-2.17,1.73-3.76,4.05-3.76h8.66c2.31,0,4.05,1.59,4.05,3.76c0,2.17-1.73,3.76-4.05,3.76h-8.66
		C414.73,210.17,413,208.58,413,206.41 M402.02,166.25c0-2.17,1.73-3.76,4.04-3.76h8.67c2.31,0,4.05,1.59,4.05,3.76
		c0,2.17-1.73,3.76-4.05,3.76h-8.67C403.75,170.01,402.02,168.42,402.02,166.25 M399.13,248.3c0-2.17,1.73-3.76,4.05-3.76h15.02
		c2.31,0,4.04,1.59,4.04,3.76c0,2.17-1.73,3.76-4.04,3.76h-15.02C400.86,252.06,399.13,250.47,399.13,248.3 M376.88,254.37h65.29
		v-11.84h-46.95c-1.16,0-2.17,0.72-2.6,1.88c-0.58,1.3-2.02,2.17-3.61,2.17c-2.31,0-4.04-1.73-4.04-4.04c0-1.59,0.87-3.04,2.17-3.61
		c1.16-0.43,1.88-1.45,1.88-2.6V218.4c0-1.16-0.72-2.17-1.88-2.6c-1.3-0.58-2.17-2.02-2.17-3.61c0-2.31,1.73-4.05,4.04-4.05
		c1.59,0,3.04,0.87,3.61,2.17c0.43,1.16,1.45,1.88,2.6,1.88h38.86v-11.56h-38.86c-1.16,0-2.17,0.72-2.6,1.88
		c-0.58,1.3-2.02,2.17-3.61,2.17c-2.31,0-4.04-1.73-4.04-4.05c0-1.59,0.87-3.04,2.17-3.61c1.16-0.43,1.88-1.45,1.88-2.6v-16.18
		c0-1.16-0.72-2.17-1.88-2.6c-1.3-0.58-2.17-2.02-2.17-3.61c0-2.31,1.73-4.04,4.04-4.04c1.59,0,3.04,0.87,3.61,2.17
		c0.43,1.16,1.45,1.88,2.6,1.88h45.79v-11.55h-64.14V254.37z M344.53,236.17c0-2.31,1.73-4.05,4.05-4.05c2.31,0,4.04,1.73,4.04,4.05
		c0,2.31-1.73,4.05-4.04,4.05C346.26,240.21,344.53,238.48,344.53,236.17 M343.37,178.39c0-2.31,1.73-4.04,4.05-4.04
		c2.31,0,4.04,1.73,4.04,4.04s-1.73,4.05-4.04,4.05C345.1,182.43,343.37,180.7,343.37,178.39 M312.17,249.17
		c0-2.31,1.73-3.76,4.05-3.18c2.31,0.58,5.78,0.58,8.09,0c2.31-0.58,4.05,0.87,4.05,3.18c0,1.73-1.59,3.32-3.47,3.76
		c-2.89,0.72-6.36,0.72-9.24,0C313.76,252.49,312.17,250.9,312.17,249.17 M311.59,165.53c0-1.73,1.59-3.32,3.47-3.76
		c2.89-0.72,6.36-0.72,9.24,0c1.88,0.43,3.47,2.02,3.47,3.76c0,2.31-1.73,3.76-4.05,3.18c-2.31-0.58-5.78-0.58-8.09,0
		C313.32,169.29,311.59,167.84,311.59,165.53 M288.48,177.23c0-2.31,1.73-4.05,4.04-4.05c2.31,0,4.05,1.73,4.05,4.05
		c0,2.31-1.73,4.05-4.05,4.05C290.21,181.28,288.48,179.54,288.48,177.23 M288.48,237.32c0-2.31,1.73-4.05,4.04-4.05
		c2.31,0,4.05,1.73,4.05,4.05c0,2.31-1.73,4.05-4.05,4.05C290.21,241.37,288.48,239.63,288.48,237.32 M278.66,211.9
		c-0.72-2.89-0.72-6.36,0-9.25c0.43-1.88,2.02-3.47,3.76-3.47c2.31,0,3.76,1.73,3.18,4.05c-0.58,2.31-0.58,5.78,0,8.09
		c0.58,2.31-0.87,4.05-3.18,4.05C280.68,215.37,279.09,213.78,278.66,211.9 M361.86,222.01l-13.58-4.05
		c-1.73,15.6-12.86,26-27.73,26c-18.78,0-32.36-15.31-32.36-36.55c0-21.38,13.29-36.83,31.49-36.83c13.72,0,25.42,10.4,27.74,24.84
		l13.29-4.62c-3.47-18.63-20.66-32.07-41.03-32.07c-25.86,0-44.49,20.51-44.49,48.68c0,28.17,19.07,48.68,45.36,48.68
		C341.93,256.1,358.39,242.52,361.86,222.01 M259.01,245.7c0-2.31,1.73-4.05,4.05-4.05c2.31,0,4.05,1.73,4.05,4.05
		c0,2.31-1.73,4.05-4.05,4.05C260.75,249.75,259.01,248.01,259.01,245.7 M238.21,191.68c-0.87-2.17,0-4.33,2.02-5.2
		c2.02-0.72,4.04,0.29,4.91,2.46l3.32,7.94c0.87,2.17,0,4.34-2.02,5.2c-2.02,0.87-4.05-0.14-4.91-2.31L238.21,191.68z
		 M211.78,196.88l3.32-7.94c0.87-2.17,2.89-3.18,4.91-2.46c2.02,0.87,2.89,3.03,2.02,5.2l-3.32,8.09c-0.87,2.17-2.89,3.18-4.91,2.31
		C211.78,201.21,210.91,199.04,211.78,196.88 M210.48,217.39c0-2.31,1.73-4.04,4.05-4.04c0.87,0,1.73-0.58,2.02-1.3l11.12-29.9
		c0.43-1.01,0-2.17-0.72-2.89c-0.72-0.72-1.16-1.73-1.16-2.89c0-2.31,1.73-4.05,4.04-4.05s4.05,1.73,4.05,4.05
		c0,1.16-0.43,2.17-1.16,2.89c-0.72,0.72-1.16,1.88-0.72,2.89l11.41,29.9c0.29,0.72,1.16,1.3,2.02,1.3c2.31,0,4.04,1.73,4.04,4.04
		c0,2.31-1.73,4.05-4.04,4.05c-1.73,0-3.18-1.01-3.76-2.46c-0.29-0.87-1.16-1.59-2.02-1.59H220.3c-0.87,0-1.73,0.72-2.02,1.59
		c-0.58,1.45-2.02,2.46-3.76,2.46C212.21,221.43,210.48,219.7,210.48,217.39 M193,245.7c0-2.31,1.73-4.05,4.05-4.05
		c2.31,0,4.05,1.73,4.05,4.05c0,2.31-1.73,4.05-4.05,4.05C194.73,249.75,193,248.01,193,245.7 M186.79,254.37h13.87l7.51-20.22
		c0.29-0.87,0.14-1.88-0.43-2.31c-1.16-0.72-1.88-2.02-1.88-3.47c0-2.31,1.73-4.04,4.05-4.04c1.88,0,3.47,1.16,3.9,2.89
		c0.14,1.01,0.87,1.73,1.73,1.73h29.03c0.87,0,1.59-0.72,1.73-1.73c0.43-1.73,2.02-2.89,3.9-2.89c2.31,0,4.04,1.73,4.04,4.04
		c0,1.45-0.72,2.75-1.88,3.47c-0.58,0.43-0.72,1.44-0.43,2.31l7.66,20.22h13.87l-36.98-93.89h-12.71L186.79,254.37z M180.43,194.86
		c0.58-2.31,0.58-5.78,0-8.09c-0.58-2.31,0.87-4.04,3.18-4.04c1.73,0,3.32,1.59,3.76,3.47c0.72,2.89,0.72,6.36,0,9.24
		c-0.43,1.88-2.02,3.47-3.76,3.47C181.3,198.9,179.85,197.17,180.43,194.86 M172.34,172.03c0-2.31,1.73-4.04,4.05-4.04
		c2.31,0,4.04,1.73,4.04,4.04c0,2.31-1.73,4.05-4.04,4.05C174.07,176.08,172.34,174.34,172.34,172.03 M171.19,209.3
		c0-2.31,1.73-4.05,4.05-4.05c2.31,0,4.04,1.73,4.04,4.05c0,2.31-1.73,4.05-4.04,4.05C172.92,213.35,171.19,211.61,171.19,209.3
		 M154.72,213.92c0-2.31,1.73-4.05,4.05-4.05s4.05,1.73,4.05,4.05c0,2.31-1.73,4.05-4.05,4.05S154.72,216.23,154.72,213.92
		 M147.21,166.25c0-2.17,1.73-3.76,4.05-3.76h8.67c2.31,0,4.05,1.59,4.05,3.76c0,2.17-1.73,3.76-4.05,3.76h-8.67
		C148.94,170.01,147.21,168.42,147.21,166.25 M130.16,208.15c0-1.59,0.87-3.04,2.17-3.61c1.16-0.43,1.88-1.45,1.88-2.6v-23.69
		c0-1.16-0.72-2.17-1.88-2.6c-1.3-0.58-2.17-2.02-2.17-3.61c0-2.31,1.73-4.04,4.05-4.04c1.59,0,3.04,0.87,3.61,2.17
		c0.43,1.16,1.45,1.88,2.6,1.88h20.66c9.82,0,17.04,7.51,17.04,18.06c0,10.54-7.22,18.06-17.04,18.06h-20.66
		c-1.16,0-2.17,0.72-2.6,1.88c-0.58,1.3-2.02,2.17-3.61,2.17C131.9,212.19,130.16,210.46,130.16,208.15 M124.38,245.7v-8.67
		c0-2.31,1.59-4.04,3.76-4.04c2.17,0,3.76,1.73,3.76,4.04v8.67c0,2.31-1.59,4.05-3.76,4.05
		C125.97,249.75,124.38,248.01,124.38,245.7 M122.07,254.37h12.13v-28.46c0-1.16-0.72-2.17-1.88-2.6c-1.3-0.58-2.17-2.02-2.17-3.61
		c0-2.31,1.73-4.04,4.05-4.04c1.59,0,3.04,0.87,3.61,2.17c0.43,1.16,1.45,1.88,2.6,1.88h20.66c17.19,0,29.76-12.56,29.76-29.75
		c0-17.04-12.28-29.47-29.18-29.47h-39.58V254.37z M96.07,232.99c0.58-2.31,0.58-5.78,0-8.09c-0.58-2.31,0.87-4.05,3.18-4.05
		c1.73,0,3.32,1.59,3.76,3.47c0.72,2.89,0.72,6.35,0,9.24c-0.43,1.88-2.02,3.47-3.76,3.47C96.94,237.03,95.49,235.3,96.07,232.99
		 M90.58,178.1c0-2.31,1.73-4.04,4.05-4.04s4.05,1.73,4.05,4.04c0,2.31-1.73,4.05-4.05,4.05S90.58,180.41,90.58,178.1 M65.02,249.46
		c0-2.31,1.73-3.76,4.05-3.18c2.31,0.58,5.78,0.58,8.09,0c2.31-0.58,4.05,0.87,4.05,3.18c0,1.73-1.59,3.32-3.47,3.76
		c-2.89,0.72-6.36,0.72-9.25,0C66.61,252.78,65.02,251.19,65.02,249.46 M62.42,165.24c0-1.73,1.59-3.32,3.47-3.76
		c2.89-0.72,6.36-0.72,9.25,0c1.88,0.43,3.47,2.02,3.47,3.76c0,2.31-1.73,3.76-4.05,3.18c-2.31-0.58-5.78-0.58-8.09,0
		C64.15,169,62.42,167.55,62.42,165.24 M61.4,201.64c0.58-1.88,2.46-2.46,4.34-1.88l15.31,5.06c1.88,0.58,2.89,2.31,2.31,4.19
		c-0.58,1.73-2.46,2.46-4.33,1.88l-15.31-5.2C61.84,205.11,60.83,203.38,61.4,201.64 M42.91,187.92c-0.72-2.89-0.72-6.35,0-9.24
		c0.43-1.88,2.02-3.47,3.76-3.47c2.31,0,3.76,1.73,3.18,4.04c-0.58,2.31-0.58,5.78,0,8.09c0.58,2.31-0.87,4.05-3.18,4.05
		C44.94,191.39,43.35,189.8,42.91,187.92 M40.17,232.99c0-2.31,1.73-4.05,4.05-4.05s4.05,1.73,4.05,4.05c0,2.31-1.73,4.04-4.05,4.04
		S40.17,235.3,40.17,232.99 M48.12,221.43l-13.29,3.47c1.16,18.49,16.9,31.2,38.14,31.2c20.37,0,34.09-11.12,34.09-27.16
		c0-31.92-55.18-25.57-55.18-45.65c0-7.8,8.67-13,18.49-13c11.55,0,18.78,7.51,19.94,17.33l13.29-3.76
		c-1.73-15.02-15.31-25.14-33.22-25.14c-17.62,0-31.49,9.82-31.49,25.14c0,30.48,54.89,22.68,54.89,45.07
		c0,8.96-8.96,15.31-20.51,15.31C58.95,244.26,48.7,234.72,48.12,221.43"/>
	<path style="clip-path:url(#SVGID_00000137100721363648784360000016527707171083201673_);fill:#FFFFFF;" d="M921.16,43.39
		c0-2.17,1.73-3.76,4.04-3.76h8.67c2.31,0,4.05,1.59,4.05,3.76c0,2.17-1.73,3.76-4.05,3.76h-8.67
		C922.89,47.15,921.16,45.56,921.16,43.39 M898.92,93.94V78.92c0-2.31,1.59-4.05,3.76-4.05c2.17,0,3.76,1.73,3.76,4.05v15.02
		c0,2.31-1.59,4.05-3.76,4.05C900.51,97.99,898.92,96.26,898.92,93.94 M898.63,122.84c0-2.31,1.73-4.05,4.05-4.05
		c2.31,0,4.05,1.73,4.05,4.05c0,2.31-1.73,4.04-4.05,4.04C900.36,126.88,898.63,125.15,898.63,122.84 M867.43,43.39
		c0-2.17,1.73-3.76,4.04-3.76h8.67c2.31,0,4.05,1.59,4.05,3.76c0,2.17-1.73,3.76-4.05,3.76h-8.67
		C869.16,47.15,867.43,45.56,867.43,43.39 M896.6,55.38v76.13h12.13V55.38c0-1.16-0.72-2.17-1.88-2.6c-1.3-0.58-2.17-2.02-2.17-3.61
		c0-2.31,1.73-4.05,4.05-4.05c1.59,0,3.03,0.87,3.61,2.17c0.43,1.16,1.45,1.88,2.6,1.88h27.3V37.61h-79.16v11.56h27.3
		c1.16,0,2.17-0.72,2.6-1.88c0.58-1.3,2.02-2.17,3.61-2.17c2.31,0,4.05,1.73,4.05,4.05c0,1.59-0.87,3.03-2.17,3.61
		C897.33,53.21,896.6,54.22,896.6,55.38 M843.16,54.65v-8.66c0-2.31,1.59-4.05,3.76-4.05c2.17,0,3.75,1.73,3.75,4.05v8.66
		c0,2.31-1.59,4.05-3.75,4.05C844.75,58.7,843.16,56.97,843.16,54.65 M843.16,89.9V74.88c0-2.31,1.59-4.05,3.76-4.05
		c2.17,0,3.75,1.73,3.75,4.05V89.9c0,2.31-1.59,4.04-3.75,4.04C844.75,93.94,843.16,92.21,843.16,89.9 M813.69,89.03
		c-1.3-1.88-1.01-4.19,0.87-5.49c1.73-1.16,4.05-0.58,5.35,1.3l4.77,7.22c1.3,1.88,1.01,4.19-0.87,5.49
		c-1.73,1.16-4.04,0.58-5.34-1.3L813.69,89.03z M800.83,69.39c0-2.31,1.73-4.04,4.05-4.04s4.05,1.73,4.05,4.04
		c0,2.31-1.73,4.05-4.05,4.05S800.83,71.7,800.83,69.39 M778.45,93.94V78.92c0-2.31,1.59-4.05,3.75-4.05c2.17,0,3.76,1.73,3.76,4.05
		v15.02c0,2.31-1.59,4.05-3.76,4.05C780.03,97.99,778.45,96.26,778.45,93.94 M778.45,122.84v-8.67c0-2.31,1.59-4.05,3.75-4.05
		c2.17,0,3.76,1.73,3.76,4.05v8.67c0,2.31-1.59,4.04-3.76,4.04C780.03,126.88,778.45,125.15,778.45,122.84 M776.13,131.5h12.13
		V59.85c0-1.16-0.72-2.02-1.73-2.02c-2.31,0-4.05-1.73-4.05-4.05c0-2.31,1.73-4.05,4.05-4.05c2.31,0,4.05,1.73,4.05,4.05v2.6
		c0,1.45,0.43,3.32,1.16,4.34l47.38,70.78h13.87v-93.9h-12.14v70.49c0,1.16,0.72,2.02,1.73,2.02c2.31,0,4.05,1.73,4.05,4.05
		c0,2.31-1.73,4.05-4.05,4.05c-2.31,0-4.05-1.73-4.05-4.05v-2.6c0-1.45-0.43-3.32-1.16-4.34l-45.93-69.62h-15.31V131.5z
		 M749.27,125.44c0-2.31,1.73-4.05,4.05-4.05s4.04,1.73,4.04,4.05c0,2.31-1.73,4.04-4.04,4.04S749.27,127.75,749.27,125.44
		 M748.11,43.39c0-2.31,1.73-4.05,4.05-4.05c2.31,0,4.04,1.73,4.04,4.05c0,2.31-1.73,4.04-4.04,4.04
		C749.84,47.43,748.11,45.7,748.11,43.39 M732.51,83.55c0-2.17,1.73-3.76,4.04-3.76h8.67c2.31,0,4.05,1.59,4.05,3.76
		c0,2.17-1.73,3.76-4.05,3.76h-8.67C734.24,87.3,732.51,85.71,732.51,83.55 M721.53,43.39c0-2.17,1.73-3.76,4.04-3.76h8.67
		c2.31,0,4.05,1.59,4.05,3.76c0,2.17-1.73,3.76-4.05,3.76h-8.67C723.27,47.15,721.53,45.56,721.53,43.39 M718.64,125.44
		c0-2.17,1.73-3.76,4.05-3.76h15.02c2.31,0,4.05,1.59,4.05,3.76c0,2.17-1.73,3.76-4.05,3.76h-15.02
		C720.38,129.19,718.64,127.6,718.64,125.44 M696.4,131.5h65.29v-11.85h-46.95c-1.16,0-2.17,0.72-2.6,1.88
		c-0.58,1.3-2.02,2.17-3.61,2.17c-2.31,0-4.04-1.73-4.04-4.05c0-1.59,0.87-3.03,2.17-3.61c1.16-0.43,1.88-1.45,1.88-2.6V95.53
		c0-1.16-0.72-2.17-1.88-2.6c-1.3-0.58-2.17-2.02-2.17-3.61c0-2.31,1.73-4.05,4.04-4.05c1.59,0,3.04,0.87,3.61,2.17
		c0.43,1.16,1.45,1.88,2.6,1.88h38.86V77.77h-38.86c-1.16,0-2.17,0.72-2.6,1.88c-0.58,1.3-2.02,2.17-3.61,2.17
		c-2.31,0-4.04-1.73-4.04-4.04c0-1.59,0.87-3.04,2.17-3.61c1.16-0.43,1.88-1.45,1.88-2.6V55.38c0-1.16-0.72-2.17-1.88-2.6
		c-1.3-0.58-2.17-2.02-2.17-3.61c0-2.31,1.73-4.05,4.04-4.05c1.59,0,3.04,0.87,3.61,2.17c0.43,1.16,1.45,1.88,2.6,1.88h45.79V37.61
		H696.4V131.5z M670.98,88.46c0.58-2.31,0.58-5.78,0-8.09c-0.58-2.31,0.87-4.04,3.18-4.04c1.73,0,3.32,1.59,3.76,3.47
		c0.72,2.89,0.72,6.36,0,9.24c-0.43,1.88-2.02,3.47-3.76,3.47C671.84,92.5,670.4,90.77,670.98,88.46 M659.42,114.46
		c0-2.31,1.73-4.05,4.05-4.05c2.31,0,4.04,1.73,4.04,4.05c0,2.31-1.73,4.04-4.04,4.04C661.16,118.5,659.42,116.77,659.42,114.46
		 M658.84,54.37c0-2.31,1.73-4.05,4.04-4.05c2.31,0,4.05,1.73,4.05,4.05c0,2.31-1.73,4.04-4.05,4.04
		C660.58,58.41,658.84,56.68,658.84,54.37 M629.09,125.44c0-2.17,1.73-3.76,4.05-3.76h8.66c2.31,0,4.05,1.59,4.05,3.76
		c0,2.17-1.73,3.76-4.05,3.76h-8.66C630.82,129.19,629.09,127.6,629.09,125.44 M625.62,43.39c0-2.17,1.73-3.76,4.04-3.76h8.67
		c2.31,0,4.05,1.59,4.05,3.76c0,2.17-1.73,3.76-4.05,3.76h-8.67C627.35,47.15,625.62,45.56,625.62,43.39 M608.58,119.66
		c0-1.59,0.87-3.03,2.17-3.61c1.16-0.43,1.88-1.45,1.88-2.6V55.38c0-1.16-0.72-2.17-1.88-2.6c-1.3-0.58-2.17-2.02-2.17-3.61
		c0-2.31,1.73-4.05,4.04-4.05c1.59,0,3.04,0.87,3.61,2.17c0.43,1.16,1.45,1.88,2.6,1.88h16.32c19.5,0,33.51,14.88,33.51,35.53
		c0,20.22-13.29,34.96-31.78,34.96h-18.06c-1.16,0-2.17,0.72-2.6,1.88c-0.58,1.3-2.02,2.17-3.61,2.17
		C610.31,123.7,608.58,121.97,608.58,119.66 M602.8,93.94V78.92c0-2.31,1.59-4.05,3.76-4.05c2.17,0,3.76,1.73,3.76,4.05v15.02
		c0,2.31-1.59,4.05-3.76,4.05C604.39,97.99,602.8,96.26,602.8,93.94 M600.48,131.5h37.56c25.57,0,43.33-20.51,43.33-47.09
		c0-28.02-19.79-46.8-45.65-46.8h-35.25V131.5z M571.02,54.65v-8.66c0-2.31,1.59-4.05,3.76-4.05c2.17,0,3.76,1.73,3.76,4.05v8.66
		c0,2.31-1.59,4.05-3.76,4.05C572.61,58.7,571.02,56.97,571.02,54.65 M571.02,89.9V74.88c0-2.31,1.59-4.05,3.76-4.05
		c2.17,0,3.76,1.73,3.76,4.05V89.9c0,2.31-1.59,4.04-3.76,4.04C572.61,93.94,571.02,92.21,571.02,89.9 M541.55,89.03
		c-1.3-1.88-1.01-4.19,0.87-5.49c1.73-1.16,4.04-0.58,5.34,1.3l4.77,7.22c1.3,1.88,1.01,4.19-0.87,5.49
		c-1.73,1.16-4.05,0.58-5.34-1.3L541.55,89.03z M528.69,69.39c0-2.31,1.73-4.04,4.05-4.04s4.04,1.73,4.04,4.04
		c0,2.31-1.73,4.05-4.04,4.05S528.69,71.7,528.69,69.39 M506.3,93.94V78.92c0-2.31,1.59-4.05,3.76-4.05s3.76,1.73,3.76,4.05v15.02
		c0,2.31-1.59,4.05-3.76,4.05S506.3,96.26,506.3,93.94 M506.3,122.84v-8.67c0-2.31,1.59-4.05,3.76-4.05s3.76,1.73,3.76,4.05v8.67
		c0,2.31-1.59,4.04-3.76,4.04S506.3,125.15,506.3,122.84 M503.99,131.5h12.13V59.85c0-1.16-0.72-2.02-1.73-2.02
		c-2.31,0-4.05-1.73-4.05-4.05c0-2.31,1.73-4.05,4.05-4.05s4.04,1.73,4.04,4.05v2.6c0,1.45,0.43,3.32,1.16,4.34l47.38,70.78h13.87
		v-93.9h-12.13v70.49c0,1.16,0.72,2.02,1.73,2.02c2.31,0,4.05,1.73,4.05,4.05c0,2.31-1.73,4.05-4.05,4.05s-4.05-1.73-4.05-4.05v-2.6
		c0-1.45-0.43-3.32-1.16-4.34l-45.93-69.62h-15.31V131.5z M477.13,125.44c0-2.31,1.73-4.05,4.04-4.05c2.31,0,4.05,1.73,4.05,4.05
		c0,2.31-1.73,4.04-4.05,4.04C478.86,129.48,477.13,127.75,477.13,125.44 M475.97,43.39c0-2.31,1.73-4.05,4.04-4.05
		c2.31,0,4.05,1.73,4.05,4.05c0,2.31-1.73,4.04-4.05,4.04C477.7,47.43,475.97,45.7,475.97,43.39 M460.37,83.55
		c0-2.17,1.73-3.76,4.05-3.76h8.67c2.31,0,4.05,1.59,4.05,3.76c0,2.17-1.73,3.76-4.05,3.76h-8.67
		C462.1,87.3,460.37,85.71,460.37,83.55 M449.39,43.39c0-2.17,1.73-3.76,4.05-3.76h8.67c2.31,0,4.05,1.59,4.05,3.76
		c0,2.17-1.73,3.76-4.05,3.76h-8.67C451.13,47.15,449.39,45.56,449.39,43.39 M446.5,125.44c0-2.17,1.73-3.76,4.04-3.76h15.02
		c2.31,0,4.05,1.59,4.05,3.76c0,2.17-1.73,3.76-4.05,3.76h-15.02C448.24,129.19,446.5,127.6,446.5,125.44 M424.26,131.5h65.29
		v-11.85H442.6c-1.16,0-2.17,0.72-2.6,1.88c-0.58,1.3-2.02,2.17-3.61,2.17c-2.31,0-4.05-1.73-4.05-4.05c0-1.59,0.87-3.03,2.17-3.61
		c1.16-0.43,1.88-1.45,1.88-2.6V95.53c0-1.16-0.72-2.17-1.88-2.6c-1.3-0.58-2.17-2.02-2.17-3.61c0-2.31,1.73-4.05,4.05-4.05
		c1.59,0,3.04,0.87,3.61,2.17c0.43,1.16,1.45,1.88,2.6,1.88h38.86V77.77H442.6c-1.16,0-2.17,0.72-2.6,1.88
		c-0.58,1.3-2.02,2.17-3.61,2.17c-2.31,0-4.05-1.73-4.05-4.04c0-1.59,0.87-3.04,2.17-3.61c1.16-0.43,1.88-1.45,1.88-2.6V55.38
		c0-1.16-0.72-2.17-1.88-2.6c-1.3-0.58-2.17-2.02-2.17-3.61c0-2.31,1.73-4.05,4.05-4.05c1.59,0,3.04,0.87,3.61,2.17
		c0.43,1.16,1.45,1.88,2.6,1.88h45.79V37.61h-64.14V131.5z M401.15,71.99c0.58-2.31,0.58-5.78,0-8.09
		c-0.58-2.31,0.87-4.05,3.18-4.05c1.73,0,3.32,1.59,3.76,3.47c0.72,2.89,0.72,6.36,0,9.25c-0.43,1.88-2.02,3.47-3.76,3.47
		C402.01,76.03,400.57,74.3,401.15,71.99 M393.06,49.17c0-2.31,1.73-4.05,4.04-4.05s4.05,1.73,4.05,4.05c0,2.31-1.73,4.05-4.05,4.05
		S393.06,51.48,393.06,49.17 M391.9,86.43c0-2.31,1.73-4.04,4.04-4.04c2.31,0,4.05,1.73,4.05,4.04c0,2.31-1.73,4.05-4.05,4.05
		C393.63,90.48,391.9,88.75,391.9,86.43 M375.43,91.06c0-2.31,1.73-4.05,4.05-4.05c2.31,0,4.04,1.73,4.04,4.05
		c0,2.31-1.73,4.04-4.04,4.04C377.17,95.1,375.43,93.37,375.43,91.06 M367.92,43.39c0-2.17,1.73-3.76,4.05-3.76h8.67
		c2.31,0,4.05,1.59,4.05,3.76c0,2.17-1.73,3.76-4.05,3.76h-8.67C369.66,47.15,367.92,45.56,367.92,43.39 M350.88,85.28
		c0-1.59,0.87-3.03,2.17-3.61c1.16-0.43,1.88-1.44,1.88-2.6V55.38c0-1.16-0.72-2.17-1.88-2.6c-1.3-0.58-2.17-2.02-2.17-3.61
		c0-2.31,1.73-4.05,4.05-4.05c1.59,0,3.03,0.87,3.61,2.17c0.43,1.16,1.45,1.88,2.6,1.88h20.66c9.82,0,17.04,7.51,17.04,18.06
		c0,10.55-7.22,18.06-17.04,18.06h-20.66c-1.16,0-2.17,0.72-2.6,1.88c-0.58,1.3-2.02,2.17-3.61,2.17
		C352.61,89.32,350.88,87.59,350.88,85.28 M345.1,122.84v-8.67c0-2.31,1.59-4.05,3.76-4.05c2.17,0,3.76,1.73,3.76,4.05v8.67
		c0,2.31-1.59,4.04-3.76,4.04C346.69,126.88,345.1,125.15,345.1,122.84 M342.79,131.5h12.13v-28.46c0-1.16-0.72-2.17-1.88-2.6
		c-1.3-0.58-2.17-2.02-2.17-3.61c0-2.31,1.73-4.05,4.05-4.05c1.59,0,3.03,0.87,3.61,2.17c0.43,1.16,1.45,1.88,2.6,1.88h20.66
		c17.19,0,29.76-12.57,29.76-29.76c0-17.04-12.28-29.47-29.18-29.47h-39.58V131.5z M315.92,125.44c0-2.31,1.73-4.05,4.05-4.05
		c2.31,0,4.05,1.73,4.05,4.05c0,2.31-1.73,4.04-4.05,4.04C317.66,129.48,315.92,127.75,315.92,125.44 M314.77,43.39
		c0-2.31,1.73-4.05,4.05-4.05c2.31,0,4.05,1.73,4.05,4.05c0,2.31-1.73,4.04-4.05,4.04C316.5,47.43,314.77,45.7,314.77,43.39
		 M299.17,83.55c0-2.17,1.73-3.76,4.05-3.76h8.67c2.31,0,4.04,1.59,4.04,3.76c0,2.17-1.73,3.76-4.04,3.76h-8.67
		C300.9,87.3,299.17,85.71,299.17,83.55 M288.19,43.39c0-2.17,1.73-3.76,4.05-3.76h8.67c2.31,0,4.04,1.59,4.04,3.76
		c0,2.17-1.73,3.76-4.04,3.76h-8.67C289.92,47.15,288.19,45.56,288.19,43.39 M285.3,125.44c0-2.17,1.73-3.76,4.05-3.76h15.02
		c2.31,0,4.04,1.59,4.04,3.76c0,2.17-1.73,3.76-4.04,3.76h-15.02C287.03,129.19,285.3,127.6,285.3,125.44 M263.06,131.5h65.29
		v-11.85H281.4c-1.16,0-2.17,0.72-2.6,1.88c-0.58,1.3-2.02,2.17-3.61,2.17c-2.31,0-4.05-1.73-4.05-4.05c0-1.59,0.87-3.03,2.17-3.61
		c1.16-0.43,1.88-1.45,1.88-2.6V95.53c0-1.16-0.72-2.17-1.88-2.6c-1.3-0.58-2.17-2.02-2.17-3.61c0-2.31,1.73-4.05,4.05-4.05
		c1.59,0,3.03,0.87,3.61,2.17c0.43,1.16,1.45,1.88,2.6,1.88h38.86V77.77H281.4c-1.16,0-2.17,0.72-2.6,1.88
		c-0.58,1.3-2.02,2.17-3.61,2.17c-2.31,0-4.05-1.73-4.05-4.04c0-1.59,0.87-3.04,2.17-3.61c1.16-0.43,1.88-1.45,1.88-2.6V55.38
		c0-1.16-0.72-2.17-1.88-2.6c-1.3-0.58-2.17-2.02-2.17-3.61c0-2.31,1.73-4.05,4.05-4.05c1.59,0,3.03,0.87,3.61,2.17
		c0.43,1.16,1.45,1.88,2.6,1.88h45.79V37.61h-64.13V131.5z M237.63,88.46c0.58-2.31,0.58-5.78,0-8.09
		c-0.58-2.31,0.87-4.04,3.18-4.04c1.73,0,3.32,1.59,3.76,3.47c0.72,2.89,0.72,6.36,0,9.24c-0.43,1.88-2.02,3.47-3.76,3.47
		C238.5,92.5,237.05,90.77,237.63,88.46 M226.08,114.46c0-2.31,1.73-4.05,4.05-4.05c2.31,0,4.05,1.73,4.05,4.05
		c0,2.31-1.73,4.04-4.05,4.04C227.81,118.5,226.08,116.77,226.08,114.46 M225.5,54.37c0-2.31,1.73-4.05,4.05-4.05
		c2.31,0,4.04,1.73,4.04,4.05c0,2.31-1.73,4.04-4.04,4.04C227.23,58.41,225.5,56.68,225.5,54.37 M195.74,125.44
		c0-2.17,1.73-3.76,4.05-3.76h8.67c2.31,0,4.05,1.59,4.05,3.76c0,2.17-1.73,3.76-4.05,3.76h-8.67
		C197.48,129.19,195.74,127.6,195.74,125.44 M192.27,43.39c0-2.17,1.73-3.76,4.05-3.76h8.67c2.31,0,4.04,1.59,4.04,3.76
		c0,2.17-1.73,3.76-4.04,3.76h-8.67C194.01,47.15,192.27,45.56,192.27,43.39 M175.23,119.66c0-1.59,0.87-3.03,2.17-3.61
		c1.16-0.43,1.88-1.45,1.88-2.6V55.38c0-1.16-0.72-2.17-1.88-2.6c-1.3-0.58-2.17-2.02-2.17-3.61c0-2.31,1.73-4.05,4.05-4.05
		c1.59,0,3.03,0.87,3.61,2.17c0.43,1.16,1.45,1.88,2.6,1.88h16.32c19.5,0,33.51,14.88,33.51,35.53c0,20.22-13.29,34.96-31.78,34.96
		h-18.06c-1.16,0-2.17,0.72-2.6,1.88c-0.58,1.3-2.02,2.17-3.61,2.17C176.96,123.7,175.23,121.97,175.23,119.66 M169.45,93.94V78.92
		c0-2.31,1.59-4.05,3.76-4.05c2.17,0,3.76,1.73,3.76,4.05v15.02c0,2.31-1.59,4.05-3.76,4.05C171.04,97.99,169.45,96.26,169.45,93.94
		 M167.14,131.5h37.56c25.57,0,43.33-20.51,43.33-47.09c0-28.02-19.79-46.8-45.64-46.8h-35.25V131.5z M137.67,54.65v-8.66
		c0-2.31,1.59-4.05,3.76-4.05c2.17,0,3.76,1.73,3.76,4.05v8.66c0,2.31-1.59,4.05-3.76,4.05C139.26,58.7,137.67,56.97,137.67,54.65
		 M137.67,89.9V74.88c0-2.31,1.59-4.05,3.76-4.05c2.17,0,3.76,1.73,3.76,4.05V89.9c0,2.31-1.59,4.04-3.76,4.04
		C139.26,93.94,137.67,92.21,137.67,89.9 M108.21,89.03c-1.3-1.88-1.01-4.19,0.87-5.49c1.73-1.16,4.05-0.58,5.35,1.3l4.77,7.22
		c1.3,1.88,1.01,4.19-0.87,5.49c-1.73,1.16-4.05,0.58-5.35-1.3L108.21,89.03z M95.35,69.39c0-2.31,1.73-4.04,4.05-4.04
		c2.31,0,4.05,1.73,4.05,4.04c0,2.31-1.73,4.05-4.05,4.05C97.08,73.43,95.35,71.7,95.35,69.39 M72.96,93.94V78.92
		c0-2.31,1.59-4.05,3.76-4.05c2.17,0,3.76,1.73,3.76,4.05v15.02c0,2.31-1.59,4.05-3.76,4.05C74.55,97.99,72.96,96.26,72.96,93.94
		 M72.96,122.84v-8.67c0-2.31,1.59-4.05,3.76-4.05c2.17,0,3.76,1.73,3.76,4.05v8.67c0,2.31-1.59,4.04-3.76,4.04
		C74.55,126.88,72.96,125.15,72.96,122.84 M70.65,131.5h12.13V59.85c0-1.16-0.72-2.02-1.73-2.02c-2.31,0-4.05-1.73-4.05-4.05
		c0-2.31,1.73-4.05,4.05-4.05c2.31,0,4.05,1.73,4.05,4.05v2.6c0,1.45,0.43,3.32,1.16,4.34l47.38,70.78h13.87v-93.9h-12.13v70.49
		c0,1.16,0.72,2.02,1.73,2.02c2.31,0,4.05,1.73,4.05,4.05c0,2.31-1.73,4.05-4.05,4.05c-2.31,0-4.04-1.73-4.04-4.05v-2.6
		c0-1.45-0.43-3.32-1.16-4.34L85.96,37.61H70.65V131.5z M41.18,93.94V78.92c0-2.31,1.59-4.05,3.76-4.05c2.17,0,3.76,1.73,3.76,4.05
		v15.02c0,2.31-1.59,4.05-3.76,4.05C42.77,97.99,41.18,96.26,41.18,93.94 M41.18,122.84v-8.67c0-2.31,1.59-4.05,3.76-4.05
		c2.17,0,3.76,1.73,3.76,4.05v8.67c0,2.31-1.59,4.04-3.76,4.04C42.77,126.88,41.18,125.15,41.18,122.84 M40.89,45.99
		c0-2.31,1.73-4.05,4.05-4.05c2.31,0,4.05,1.73,4.05,4.05c0,2.31-1.73,4.04-4.05,4.04C42.63,50.03,40.89,48.3,40.89,45.99
		 M38.87,131.5H51V37.61H38.87V131.5z"/>
	<path style="clip-path:url(#SVGID_00000137100721363648784360000016527707171083201673_);fill:#FFFFFF;" d="M726.96,705.47
		l-4.2-14.42c-0.65-2.22,0.39-4.33,2.47-4.93c2.08-0.61,4.09,0.62,4.74,2.83l4.2,14.42c0.65,2.22-0.39,4.33-2.47,4.93
		C729.62,708.91,727.61,707.69,726.96,705.47 M739.54,749.65c-0.65-2.22,0.53-4.37,2.75-5.01c2.22-0.65,4.37,0.53,5.02,2.75
		c0.65,2.22-0.53,4.37-2.75,5.02C742.33,753.05,740.18,751.87,739.54,749.65 M696.68,682.1c-0.65-2.22,0.53-4.37,2.75-5.02
		c2.22-0.65,4.37,0.53,5.01,2.75c0.65,2.22-0.53,4.37-2.75,5.01C699.47,685.5,697.32,684.32,696.68,682.1 M700.23,705.13
		c0.4-2.23,0.13-5.75-0.52-7.97c-0.68-2.36,0.62-4.09,2.95-4.32c1.79-0.07,3.42,1.41,3.99,3.35c0.81,2.77,1.09,6.3,0.43,9.2
		c-0.21,1.87-1.83,3.54-3.47,3.57C701.27,709.2,699.73,707.54,700.23,705.13 M740.02,758.54l11.65-3.4l-5.5-18.86
		c-0.24-0.83-0.96-1.22-1.79-0.98c-2.22,0.65-4.37-0.53-5.01-2.75c-0.65-2.22,0.53-4.37,2.75-5.01s4.37,0.53,5.02,2.75
		c0.24,0.83,0.96,1.22,1.79,0.98l11.09-3.23l-3.23-11.09l-14.98,4.36l-11.97-41.05l-11.65,3.39l10.88,37.31
		c0.2,0.69,0.92,1.09,1.61,0.88c2.22-0.65,4.37,0.53,5.02,2.75c0.65,2.22-0.53,4.37-2.75,5.02c-2.22,0.65-4.37-0.53-5.02-2.75
		c-0.24-0.83-0.96-1.22-1.79-0.98l-20.66,6.02c-0.83,0.24-1.22,0.96-0.98,1.79c0.65,2.22-0.53,4.37-2.75,5.02
		c-2.22,0.65-4.37-0.53-5.02-2.75c-0.65-2.22,0.53-4.37,2.75-5.02c0.69-0.2,1.57-0.31,2.24-0.05c0.99,0.31,1.93-0.11,2.42-1.01
		c6.58-13.05,7.14-33.83,1.2-54.21l-1.29-4.44l-11.93,3.48l2.58,8.87c6.15,21.08,3.96,42.48-5.75,52.53l3.39,11.65l41.05-11.96
		L740.02,758.54z M662.2,742.4c-0.65-2.22,0.53-4.37,2.75-5.01c2.22-0.65,4.37,0.53,5.01,2.75s-0.53,4.37-2.75,5.01
		C664.99,745.8,662.84,744.62,662.2,742.4 M630.02,751.78c-0.65-2.22,0.53-4.37,2.75-5.01c2.22-0.65,4.37,0.53,5.01,2.75
		c0.65,2.22-0.53,4.37-2.75,5.02C632.82,755.18,630.67,754,630.02,751.78 M624.28,747.58l3.15,10.82l48.26-14.07l-3.15-10.82
		L624.28,747.58z M601.15,735.82c-0.09-2.38-1.06-5.71-2.26-7.77c-1.2-2.06-0.3-4.12,1.92-4.77c1.67-0.48,3.63,0.6,4.58,2.28
		c1.5,2.57,2.47,5.9,2.59,8.87c0.11,1.93-0.97,3.89-2.63,4.38C603.11,739.46,601.24,738.2,601.15,735.82 M588.76,716.56
		c-0.65-2.22,0.53-4.37,2.75-5.01c2.22-0.65,4.37,0.53,5.02,2.75c0.65,2.22-0.53,4.37-2.75,5.02
		C591.56,719.96,589.41,718.78,588.76,716.56 M590.52,759.23c-0.65-2.22,0.53-4.37,2.75-5.01c2.22-0.65,4.36,0.53,5.01,2.75
		c0.65,2.22-0.53,4.37-2.75,5.02C593.31,762.63,591.16,761.45,590.52,759.23 M599.92,793.05c-0.61-2.08,0.62-4.09,2.83-4.74
		l14.42-4.2c2.22-0.65,4.33,0.39,4.93,2.47c0.61,2.08-0.61,4.09-2.83,4.74l-14.42,4.2C602.64,796.17,600.53,795.13,599.92,793.05
		 M566.5,716.58c-0.49-1.67,0.6-3.63,2.27-4.58c2.57-1.5,5.9-2.47,8.88-2.59c1.92-0.11,3.89,0.97,4.38,2.64
		c0.65,2.22-0.61,4.09-2.99,4.18c-2.38,0.09-5.71,1.06-7.77,2.26C569.21,719.7,567.14,718.8,566.5,716.58 M574.5,781.2
		c-1.38-1.1-1.57-3.3-0.86-5.01c1.3-2.78,3.36-5.49,5.68-7.37c1.46-1.18,3.76-1.55,5.14-0.44c1.77,1.44,1.82,3.68-0.01,5.12
		c-1.84,1.44-4.05,4.19-4.9,6.39C578.53,782.13,576.41,782.6,574.5,781.2 M553.26,741.35c-0.65-2.22,0.53-4.37,2.75-5.02
		c2.22-0.65,4.37,0.53,5.01,2.75c0.65,2.22-0.53,4.37-2.75,5.02C556.05,744.75,553.9,743.57,553.26,741.35 M583.66,791.47
		c-0.83,0.24-1.22,0.96-0.98,1.79c0.56,1.94-1.07,4.07-3.15,4.68c-2.22,0.65-4.37-0.53-5.02-2.75c-0.65-2.22,0.53-4.37,2.75-5.02
		c0.83-0.24,1.36-1,1.4-1.91c0.59-8.3,8.37-14.63,17.41-23.89c7.42-7.58,18.52-18.04,13.18-36.34
		c-5.01-17.2-20.25-25.09-36.89-20.24c-17.06,4.97-25.68,21.33-20.51,39.08c0.57,1.94,1.35,4.12,2.3,6.85l12.08-5.03
		c-1.06-2.1-1.73-3.86-2.17-5.39c-3.19-10.96,1.77-21.28,11.9-24.23c9.85-2.87,19.14,2.7,22.25,13.37
		c3.56,12.2-4.74,18.84-8.73,22.71c-17.45,16.52-28.31,27.81-21.84,50l0.97,3.33l59.35-17.3l-3.39-11.65L583.66,791.47z"/>
	<path style="clip-path:url(#SVGID_00000137100721363648784360000016527707171083201673_);fill:#FFFFFF;" d="M760.42,610.17
		c-0.65-2.22,0.53-4.37,2.75-5.02c2.22-0.65,4.37,0.53,5.02,2.75c0.65,2.22-0.53,4.37-2.75,5.01
		C763.22,613.57,761.07,612.39,760.42,610.17 M746.31,567.94c-0.65-2.22,0.53-4.37,2.75-5.01c2.22-0.65,4.37,0.53,5.01,2.75
		c0.65,2.22-0.53,4.37-2.75,5.01C749.1,571.34,746.95,570.16,746.31,567.94 M732.51,593.93c-0.65-2.22,0.53-4.37,2.75-5.02
		c2.22-0.65,4.37,0.53,5.02,2.75c0.65,2.22-0.53,4.37-2.75,5.02C735.31,597.32,733.16,596.15,732.51,593.93 M738.24,625.96
		c-0.65-2.22,0.61-4.09,2.99-4.18c2.38-0.09,5.71-1.06,7.77-2.26c2.06-1.2,4.12-0.3,4.77,1.92c0.49,1.67-0.6,3.63-2.27,4.58
		c-2.57,1.5-5.9,2.47-8.88,2.59C740.7,628.71,738.72,627.63,738.24,625.96 M719.63,566.24c-0.48-1.67,0.6-3.63,2.28-4.58
		c2.57-1.5,5.9-2.47,8.87-2.59c1.92-0.11,3.89,0.97,4.38,2.63c0.65,2.22-0.61,4.09-2.99,4.18c-2.38,0.09-5.71,1.06-7.77,2.26
		C722.34,569.36,720.27,568.46,719.63,566.24 M718.82,622.29c-0.65-2.22,0.53-4.37,2.75-5.01c2.22-0.65,4.37,0.53,5.01,2.75
		c0.65,2.22-0.53,4.37-2.75,5.01C721.61,625.69,719.46,624.51,718.82,622.29 M706.09,579.66c-0.65-2.22,0.53-4.37,2.75-5.01
		c2.22-0.65,4.37,0.53,5.02,2.75c0.65,2.22-0.53,4.37-2.75,5.01C708.88,583.06,706.73,581.88,706.09,579.66 M709.19,595.46
		c-0.65-2.22,0.53-4.37,2.75-5.01c0.97-0.28,1.6-1.22,1.69-2.45c0.87-9.43,6.22-16.86,14.82-19.37c8.46-2.47,17.82,0.22,24.01,8.05
		c0.74,0.99,1.63,1.48,2.74,1.16c2.22-0.65,4.37,0.53,5.02,2.75c0.65,2.22-0.53,4.37-2.75,5.01c-1.8,0.53-3.51-0.18-4.51-1.54
		c-0.74-0.99-1.64-1.48-2.6-1.19l-31.34,9.13c-1.39,0.4-1.84,1.44-1.93,2.67c-0.11,1.69-1.21,3.06-2.88,3.55
		C711.99,598.86,709.84,597.68,709.19,595.46 M747.59,630.16c15.53-4.53,25.98-17.2,25.48-30.29l-13.61-0.25
		c0.68,8.53-5.94,16.78-15.1,19.45c-9.71,2.83-19.15-1.19-24.95-9.73c-0.6-1.03-1.81-1.58-2.65-1.33c-2.22,0.65-4.37-0.53-5.01-2.75
		c-0.65-2.22,0.53-4.37,2.75-5.01c1.8-0.53,3.52,0.18,4.51,1.54c0.74,0.99,1.77,1.44,2.88,1.12l48.4-14.11
		c-0.18-1.15-0.39-1.84-0.55-2.4c-6.47-22.19-23.91-34.55-43.88-28.73c-19.42,5.66-28.8,25.09-22.61,46.31
		C709.35,624.9,727.62,635.98,747.59,630.16 M684.38,616.68l-2.43-8.32c-0.65-2.22,0.4-4.33,2.48-4.93
		c2.08-0.61,4.09,0.61,4.74,2.83l2.43,8.32c0.65,2.22-0.4,4.33-2.48,4.93C687.04,620.12,685.03,618.9,684.38,616.68 M689.76,636.18
		c-0.65-2.22,0.53-4.37,2.75-5.01c2.22-0.65,4.37,0.53,5.01,2.75c0.65,2.22-0.53,4.37-2.75,5.01
		C692.56,639.58,690.41,638.4,689.76,636.18 M672.41,590.08c-0.65-2.22,0.53-4.37,2.75-5.02c2.22-0.65,4.36,0.53,5.01,2.75
		c0.65,2.22-0.53,4.37-2.75,5.02C675.21,593.48,673.06,592.3,672.41,590.08 M647.04,587.69c-0.48-1.66,0.6-3.63,2.28-4.58
		c2.57-1.5,5.9-2.47,8.88-2.59c1.92-0.11,3.89,0.97,4.38,2.64c0.65,2.22-0.61,4.09-3,4.18c-2.38,0.09-5.71,1.06-7.77,2.26
		C649.76,590.81,647.69,589.91,647.04,587.69 M640.39,650.57l-2.43-8.32c-0.65-2.22,0.4-4.33,2.48-4.93
		c2.08-0.61,4.09,0.62,4.74,2.83l2.43,8.32c0.65,2.22-0.4,4.33-2.48,4.93S641.04,652.79,640.39,650.57 M632.03,622.91
		c-0.65-2.22,0.53-4.37,2.75-5.02c2.22-0.65,4.37,0.53,5.01,2.75c0.65,2.22-0.53,4.37-2.75,5.01
		C634.83,626.31,632.68,625.13,632.03,622.91 M638,595.9c0.66,0.71,0.96,1.22,1.2,2.06c0.65,2.22-0.53,4.37-2.75,5.02
		c-2.22,0.65-4.37-0.53-5.01-2.75c-0.37-1.25-0.13-2.52,0.5-3.46c0.87-1.16,1.06-2.56,0.56-3.77l-2.39-5.62l-9.43,2.75l20.21,69.34
		l11.09-3.24l-10.83-37.16c-3.84-13.18,2.94-25.53,14.45-28.89c10.4-3.03,19.74,2.67,22.89,13.49l12.04,41.33l11.1-3.23
		l-12.29-42.16c-4.89-16.78-19.64-25.57-35.31-21c-8.18,2.39-13.69,7.75-16.71,13.9C636.76,593.7,637.08,594.81,638,595.9
		 M599.64,614l-2.43-8.32c-0.65-2.22,0.4-4.33,2.48-4.93c2.08-0.61,4.09,0.61,4.74,2.83l2.43,8.32c0.65,2.22-0.39,4.33-2.48,4.93
		C602.3,617.44,600.29,616.22,599.64,614 M606.72,639.32c-0.65-2.22,0.53-4.37,2.75-5.01c2.22-0.65,4.37,0.53,5.02,2.75
		c0.65,2.22-0.53,4.36-2.75,5.01C609.52,642.72,607.37,641.54,606.72,639.32 M582.37,671.39c-0.65-2.22,0.61-4.09,2.99-4.18
		c2.38-0.09,5.71-1.06,7.77-2.26c2.06-1.2,4.12-0.3,4.77,1.92c0.49,1.66-0.6,3.63-2.27,4.58c-2.57,1.5-5.9,2.47-8.88,2.59
		C584.82,674.14,582.85,673.06,582.37,671.39 M566.99,667.15c-0.65-2.22,0.53-4.37,2.75-5.01c2.22-0.65,4.37,0.53,5.02,2.75
		c0.65,2.22-0.53,4.37-2.75,5.02C569.78,670.55,567.63,669.37,566.99,667.15 M558.18,653.47l-2.42-8.32
		c-0.65-2.22,0.39-4.33,2.47-4.93c2.08-0.61,4.09,0.62,4.74,2.83l2.43,8.32c0.65,2.22-0.4,4.33-2.47,4.93
		C560.84,656.91,558.83,655.68,558.18,653.47 M548.13,619.99c-0.65-2.22,0.53-4.37,2.75-5.01c2.22-0.65,4.37,0.53,5.02,2.75
		c0.65,2.22-0.53,4.37-2.75,5.01C550.92,623.39,548.77,622.2,548.13,619.99 M591.44,675.67c7.63-2.23,13.61-6.98,16.54-12.95
		c0.55-1.21,0.22-2.32-0.69-3.41c-0.66-0.71-0.96-1.22-1.2-2.06c-0.65-2.22,0.53-4.37,2.75-5.01c2.22-0.65,4.37,0.53,5.02,2.75
		c0.36,1.25,0.13,2.52-0.5,3.45c-0.87,1.16-1.06,2.57-0.56,3.77l2.01,4.83l9.71-2.83l-4.32-13.79l-16.17-55.47l-11.09,3.23l11.08,38
		c3.84,13.17-3.27,24.43-14.22,27.62c-10.4,3.03-19.46-2.76-22.53-13.3l-12.04-41.33l-11.09,3.23l12.37,42.44
		C561.3,671.37,576.04,680.16,591.44,675.67 M518.41,615.1l-2.42-8.32c-0.65-2.22,0.39-4.33,2.47-4.93
		c2.08-0.61,4.09,0.61,4.74,2.83l2.43,8.32c0.65,2.22-0.39,4.33-2.47,4.93C521.07,618.54,519.06,617.32,518.41,615.1 M528.36,649.22
		l-4.2-14.42c-0.65-2.22,0.4-4.33,2.48-4.93c2.08-0.61,4.09,0.61,4.74,2.83l4.2,14.42c0.65,2.22-0.39,4.33-2.48,4.93
		C531.02,652.66,529.01,651.44,528.36,649.22 M530.17,676.08c-0.65-2.22,0.53-4.37,2.75-5.02c2.22-0.65,4.37,0.53,5.01,2.75
		c0.65,2.22-0.53,4.37-2.75,5.01C532.96,679.47,530.81,678.3,530.17,676.08 M507.96,692.78c-0.65-2.22,0.61-4.09,2.99-4.18
		s5.71-1.06,7.77-2.26c2.06-1.2,4.13-0.3,4.77,1.92c0.48,1.67-0.6,3.63-2.28,4.58c-2.57,1.5-5.9,2.47-8.87,2.59
		C510.41,695.53,508.44,694.45,507.96,692.78 M488.29,688.28c-0.65-2.22,0.53-4.37,2.75-5.02c2.22-0.65,4.37,0.53,5.01,2.75
		c0.65,2.22-0.53,4.37-2.75,5.02C491.08,691.68,488.93,690.5,488.29,688.28 M478.36,672.82l-2.43-8.32
		c-0.65-2.22,0.4-4.33,2.48-4.93c2.08-0.61,4.09,0.61,4.74,2.83l2.43,8.32c0.65,2.22-0.4,4.33-2.48,4.93
		C481.02,676.26,479.01,675.04,478.36,672.82 M514.4,685.49c-11.93,3.48-22.97-2.93-26.69-15.69l-4.69-16.09l-11.93,3.48l4.85,16.64
		c5.54,19,22.99,28.81,41.71,23.35c18.72-5.46,28.09-23.38,22.47-42.66l-17.06-58.52l-11.65,3.39l17.06,58.52
		C532.12,670.39,526.33,682.01,514.4,685.49"/>
	
		<path style="clip-path:url(#SVGID_00000137100721363648784360000016527707171083201673_);fill:none;stroke:#FFFFFF;stroke-width:1.9751;" d="
		M408.85,328.79c0,0,391.98,110.05,524.28,8.78"/>
	<path style="clip-path:url(#SVGID_00000137100721363648784360000016527707171083201673_);fill:#FFFFFF;" d="M408.85,332.74
		c2.18,0,3.95-1.77,3.95-3.95c0-2.18-1.77-3.95-3.95-3.95s-3.95,1.77-3.95,3.95C404.9,330.97,406.67,332.74,408.85,332.74"/>
	<path style="clip-path:url(#SVGID_00000137100721363648784360000016527707171083201673_);fill:#FFFFFF;" d="M933.13,341.52
		c2.18,0,3.95-1.77,3.95-3.95c0-2.18-1.77-3.95-3.95-3.95c-2.18,0-3.95,1.77-3.95,3.95C929.18,339.75,930.94,341.52,933.13,341.52"
		/>
	
		<path style="clip-path:url(#SVGID_00000137100721363648784360000016527707171083201673_);fill:none;stroke:#FFFFFF;stroke-width:1.9751;" d="
		M636.66,93.75c0,0,61,187.83,316.06,217.21"/>
	<path style="clip-path:url(#SVGID_00000137100721363648784360000016527707171083201673_);fill:#FFFFFF;" d="M636.66,97.7
		c2.18,0,3.95-1.77,3.95-3.95c0-2.18-1.77-3.95-3.95-3.95c-2.18,0-3.95,1.77-3.95,3.95C632.71,95.94,634.47,97.7,636.66,97.7"/>
	<path style="clip-path:url(#SVGID_00000137100721363648784360000016527707171083201673_);fill:#FFFFFF;" d="M952.71,314.92
		c2.18,0,3.95-1.77,3.95-3.95c0-2.18-1.77-3.95-3.95-3.95c-2.18,0-3.95,1.77-3.95,3.95C948.76,313.15,950.53,314.92,952.71,314.92"
		/>
	
		<path style="clip-path:url(#SVGID_00000137100721363648784360000016527707171083201673_);fill:none;stroke:#FFFFFF;stroke-width:1.9751;" d="
		M784.78,551.54c0,0,182.28-58.6,172.16-200.27"/>
	<path style="clip-path:url(#SVGID_00000137100721363648784360000016527707171083201673_);fill:#FFFFFF;" d="M784.78,555.49
		c2.18,0,3.95-1.77,3.95-3.95c0-2.18-1.77-3.95-3.95-3.95s-3.95,1.77-3.95,3.95C780.83,553.72,782.6,555.49,784.78,555.49"/>
	<path style="clip-path:url(#SVGID_00000137100721363648784360000016527707171083201673_);fill:#FFFFFF;" d="M956.94,355.22
		c2.18,0,3.95-1.77,3.95-3.95c0-2.18-1.77-3.95-3.95-3.95s-3.95,1.77-3.95,3.95C952.99,353.45,954.76,355.22,956.94,355.22"/>
	
		<path style="clip-path:url(#SVGID_00000137100721363648784360000016527707171083201673_);fill:none;stroke:#FFFFFF;stroke-width:1.9751;" d="
		M569.37,591.16c0-4.37-119.51-227.3-39.49-474.85"/>
	<path style="clip-path:url(#SVGID_00000137100721363648784360000016527707171083201673_);fill:#FFFFFF;" d="M569.37,595.11
		c2.18,0,3.95-1.77,3.95-3.95c0-2.18-1.77-3.95-3.95-3.95c-2.18,0-3.95,1.77-3.95,3.95C565.42,593.34,567.19,595.11,569.37,595.11"
		/>
	<path style="clip-path:url(#SVGID_00000137100721363648784360000016527707171083201673_);fill:#FFFFFF;" d="M529.88,120.26
		c2.18,0,3.95-1.77,3.95-3.95c0-2.18-1.77-3.95-3.95-3.95c-2.18,0-3.95,1.77-3.95,3.95C525.93,118.49,527.7,120.26,529.88,120.26"/>
	
		<path style="clip-path:url(#SVGID_00000137100721363648784360000016527707171083201673_);fill:none;stroke:#FFFFFF;stroke-width:1.9751;" d="
		M677.86,524.54c0,0-57.23-342.79-251.02-339.67"/>
	<path style="clip-path:url(#SVGID_00000137100721363648784360000016527707171083201673_);fill:#FFFFFF;" d="M677.86,528.49
		c2.18,0,3.95-1.77,3.95-3.95c0-2.18-1.77-3.95-3.95-3.95c-2.18,0-3.95,1.77-3.95,3.95C673.91,526.72,675.68,528.49,677.86,528.49"
		/>
	<path style="clip-path:url(#SVGID_00000137100721363648784360000016527707171083201673_);fill:#FFFFFF;" d="M426.84,188.82
		c2.18,0,3.95-1.77,3.95-3.95c0-2.18-1.77-3.95-3.95-3.95c-2.18,0-3.95,1.77-3.95,3.95C422.89,187.05,424.66,188.82,426.84,188.82"
		/>
</g>
<path class="st2" d="M664.82,706.62"/>
<g>
	<defs>
		<rect id="SVGID_00000057107050208113049510000007926392713463002504_" x="34.83" y="37.61" width="926.06" height="783.22"/>
	</defs>
	<clipPath id="SVGID_00000028305490989999782010000007244546678482427811_">
		<use xlink:href="#SVGID_00000057107050208113049510000007926392713463002504_"  style="overflow:visible;"/>
	</clipPath>
	
		<path style="clip-path:url(#SVGID_00000028305490989999782010000007244546678482427811_);fill:none;stroke:#FFFFFF;stroke-width:1.9751;" d="
		M760.8,692.07c0,0,115.97-13.75,35.95-114.14"/>
	<path style="clip-path:url(#SVGID_00000028305490989999782010000007244546678482427811_);fill:#FFFFFF;" d="M760.8,696.02
		c2.18,0,3.95-1.77,3.95-3.95c0-2.18-1.77-3.95-3.95-3.95s-3.95,1.77-3.95,3.95C756.85,694.25,758.62,696.02,760.8,696.02"/>
	<path style="clip-path:url(#SVGID_00000028305490989999782010000007244546678482427811_);fill:#FFFFFF;" d="M796.75,581.88
		c2.18,0,3.95-1.77,3.95-3.95c0-2.18-1.77-3.95-3.95-3.95c-2.18,0-3.95,1.77-3.95,3.95C792.8,580.11,794.57,581.88,796.75,581.88"/>
	
		<path style="clip-path:url(#SVGID_00000028305490989999782010000007244546678482427811_);fill:none;stroke:#FFFFFF;stroke-width:1.9751;" d="
		M301.95,471.41c0,0,199.64-55.24,194.31,112.72"/>
	<path style="clip-path:url(#SVGID_00000028305490989999782010000007244546678482427811_);fill:#FFFFFF;" d="M301.95,475.36
		c2.18,0,3.95-1.77,3.95-3.95s-1.77-3.95-3.95-3.95c-2.18,0-3.95,1.77-3.95,3.95S299.77,475.36,301.95,475.36"/>
	<path style="clip-path:url(#SVGID_00000028305490989999782010000007244546678482427811_);fill:#FFFFFF;" d="M496.26,588.09
		c2.18,0,3.95-1.77,3.95-3.95c0-2.18-1.77-3.95-3.95-3.95c-2.18,0-3.95,1.77-3.95,3.95C492.3,586.32,494.07,588.09,496.26,588.09"/>
	
		<path style="clip-path:url(#SVGID_00000028305490989999782010000007244546678482427811_);fill:none;stroke:#FFFFFF;stroke-width:1.9751;" d="
		M880.14,116.34c0,0,5.79,302.9-167.1,416.28"/>
	<path style="clip-path:url(#SVGID_00000028305490989999782010000007244546678482427811_);fill:#FFFFFF;" d="M880.14,120.3
		c2.18,0,3.95-1.77,3.95-3.95c0-2.18-1.77-3.95-3.95-3.95c-2.18,0-3.95,1.77-3.95,3.95C876.19,118.53,877.95,120.3,880.14,120.3"/>
	<path style="clip-path:url(#SVGID_00000028305490989999782010000007244546678482427811_);fill:#FFFFFF;" d="M713.03,536.58
		c2.18,0,3.95-1.77,3.95-3.95s-1.77-3.95-3.95-3.95c-2.18,0-3.95,1.77-3.95,3.95S710.85,536.58,713.03,536.58"/>
	
		<path style="clip-path:url(#SVGID_00000028305490989999782010000007244546678482427811_);fill:none;stroke:#FFFFFF;stroke-width:1.9751;" d="
		M141.92,448.14c0,0,71.84,334.84,321.92,183.68"/>
	<path style="clip-path:url(#SVGID_00000028305490989999782010000007244546678482427811_);fill:#FFFFFF;" d="M141.92,452.1
		c2.18,0,3.95-1.77,3.95-3.95c0-2.18-1.77-3.95-3.95-3.95c-2.18,0-3.95,1.77-3.95,3.95C137.97,450.33,139.74,452.1,141.92,452.1"/>
	<path style="clip-path:url(#SVGID_00000028305490989999782010000007244546678482427811_);fill:#FFFFFF;" d="M463.84,635.77
		c2.18,0,3.95-1.77,3.95-3.95c0-2.18-1.77-3.95-3.95-3.95c-2.18,0-3.95,1.77-3.95,3.95C459.89,634,461.65,635.77,463.84,635.77"/>
	
		<path style="clip-path:url(#SVGID_00000028305490989999782010000007244546678482427811_);fill:none;stroke:#FFFFFF;stroke-width:1.9751;" d="
		M85.63,471.92c0,0-97.31,145.73,104.24,162.95"/>
	<path style="clip-path:url(#SVGID_00000028305490989999782010000007244546678482427811_);fill:#FFFFFF;" d="M85.63,475.87
		c2.18,0,3.95-1.77,3.95-3.95c0-2.18-1.77-3.95-3.95-3.95c-2.18,0-3.95,1.77-3.95,3.95C81.68,474.1,83.45,475.87,85.63,475.87"/>
	<path style="clip-path:url(#SVGID_00000028305490989999782010000007244546678482427811_);fill:#FFFFFF;" d="M189.87,638.82
		c2.18,0,3.95-1.77,3.95-3.95c0-2.18-1.77-3.95-3.95-3.95c-2.18,0-3.95,1.77-3.95,3.95C185.92,637.05,187.69,638.82,189.87,638.82"
		/>
	
		<path style="clip-path:url(#SVGID_00000028305490989999782010000007244546678482427811_);fill:none;stroke:#FFFFFF;stroke-width:1.9751;" d="
		M210.96,654.8c0,0,21.09,263.46,327.15,124.65"/>
	<path style="clip-path:url(#SVGID_00000028305490989999782010000007244546678482427811_);fill:#FFFFFF;" d="M210.96,658.75
		c2.18,0,3.95-1.77,3.95-3.95c0-2.18-1.77-3.95-3.95-3.95c-2.18,0-3.95,1.77-3.95,3.95C207.01,656.98,208.77,658.75,210.96,658.75"
		/>
	<path style="clip-path:url(#SVGID_00000028305490989999782010000007244546678482427811_);fill:#FFFFFF;" d="M538.1,783.41
		c2.18,0,3.95-1.77,3.95-3.95c0-2.18-1.77-3.95-3.95-3.95c-2.18,0-3.95,1.77-3.95,3.95C534.15,781.64,535.92,783.41,538.1,783.41"/>
</g>
</svg>
